<svg width="166" height="42" viewBox="0 0 166 42" fill="none" xmlns="http://www.w3.org/2000/svg">
<rect width="166" height="42" rx="4" fill="#0F42F4"/>
<path d="M65.072 14.784V22.544H66.72V14.784H65.072ZM57.28 23.216V29.056H66.72V23.216H65.088V24.816H58.912V23.216H57.28ZM58.912 26.096H65.088V27.728H58.912V26.096ZM58.928 15.44C56.72 15.44 55.088 16.816 55.088 18.8C55.088 20.784 56.72 22.16 58.928 22.16C61.136 22.16 62.752 20.784 62.752 18.8C62.752 16.816 61.136 15.44 58.928 15.44ZM58.928 16.8C60.224 16.8 61.152 17.6 61.152 18.8C61.152 20.016 60.224 20.8 58.928 20.8C57.616 20.8 56.704 20.016 56.704 18.8C56.704 17.6 57.616 16.8 58.928 16.8ZM78.0948 20.832C75.9188 20.32 74.6228 18.976 74.6228 17.552V17.472H77.6628V16.16H74.6388V14.72H72.9748V16.16H69.9348V17.472H72.9748V17.552C72.9748 19.136 71.6628 20.544 69.4548 21.072L70.1748 22.352C71.9188 21.904 73.1828 20.928 73.8388 19.632C74.4948 20.784 75.7268 21.68 77.4068 22.08L78.0948 20.832ZM73.1348 26.592H80.8148V23.008H71.4868V24.272H79.1828V25.408H71.5188V29.104H81.2948V27.824H73.1348V26.592ZM80.8148 17.856V14.784H79.1668V22.336H80.8148V19.216H82.8468V17.856H80.8148ZM88.4615 24.768C87.2935 24.768 86.4455 23.968 86.4455 22.752C86.4455 21.536 87.2935 20.736 88.4615 20.736C89.6295 20.736 90.4775 21.536 90.4775 22.752C90.4775 23.968 89.6295 24.768 88.4615 24.768ZM88.4615 19.376C86.3815 19.376 84.8775 20.784 84.8775 22.752C84.8775 24.736 86.3815 26.128 88.4615 26.128C90.5255 26.128 92.0455 24.736 92.0455 22.752C92.0455 20.784 90.5255 19.376 88.4615 19.376ZM89.2615 15.008H87.6135V17.008H84.1735V18.352H92.6375V17.008H89.2615V15.008ZM97.6935 20.592H95.4695V14.784H93.8055V29.248H95.4695V21.968H97.6935V20.592ZM99.7883 16.304V17.648H104.94C104.652 20.976 102.86 23.52 99.0683 25.344L99.9483 26.656C104.908 24.256 106.636 20.608 106.636 16.304H99.7883ZM109.244 14.784V29.232H110.892V14.784H109.244Z" fill="white"/>
</svg>
