<svg width="30" height="49" viewBox="0 0 30 49" fill="none" xmlns="http://www.w3.org/2000/svg">
<mask id="path-1-inside-1_825_10579" fill="white">
<path d="M2 3C2 1.89543 2.89543 1 4 1H27C28.1046 1 29 1.89543 29 3V7H2V3Z"/>
</mask>
<path d="M2 3C2 1.89543 2.89543 1 4 1H27C28.1046 1 29 1.89543 29 3V7H2V3Z" fill="#0F42F4" fill-opacity="0.6"/>
<path d="M2 1H29H2ZM29 8.6H2V5.4H29V8.6ZM2 7V1V7ZM29 1V7V1Z" fill="black" mask="url(#path-1-inside-1_825_10579)"/>
<path d="M2.32698 2.63806L2.95069 2.95585L2.32698 2.63806ZM3.6377 1.32698L3.95549 1.95069L3.6377 1.32698ZM3.6377 27.673L3.95549 27.0493L3.6377 27.673ZM2.32698 26.362L1.70328 26.6797L2.32698 26.362ZM28.6733 26.362L28.0496 26.0442L28.6733 26.362ZM27.3617 27.673L27.0439 27.0493L27.3617 27.673ZM28.6733 2.63806L28.0496 2.95585L28.6733 2.63806ZM27.3617 1.32698L27.6795 0.703276L27.3617 1.32698ZM15.5 23.5V22.8C15.1134 22.8 14.8 23.1134 14.8 23.5H15.5ZM15.503 23.5L16.2028 23.5165C16.2072 23.328 16.1355 23.1457 16.0038 23.0109C15.872 22.876 15.6915 22.8 15.503 22.8V23.5ZM15.5029 23.503L15.5079 24.203C15.8862 24.2003 16.1938 23.8976 16.2027 23.5195L15.5029 23.503ZM15.5 23.503H14.8C14.8 23.6895 14.8744 23.8683 15.0068 23.9998C15.1392 24.1312 15.3185 24.2043 15.505 24.203L15.5 23.503ZM28.3 5.80002V23.2H29.7V5.80002H28.3ZM24.2003 27.3H6.80029V28.7H24.2003V27.3ZM2.7 23.2V5.80002H1.3V23.2H2.7ZM6.80029 1.7H24.2003V0.3H6.80029V1.7ZM2.7 5.80002C2.7 4.94839 2.70054 4.35177 2.73855 3.88663C2.77588 3.42967 2.84585 3.1616 2.95069 2.95585L1.70328 2.32027C1.48113 2.75626 1.38761 3.22909 1.3432 3.77263C1.29946 4.308 1.3 4.97149 1.3 5.80002H2.7ZM6.80029 0.3C5.97176 0.3 5.30812 0.299456 4.7726 0.343196C4.22896 0.3876 3.75594 0.481104 3.3199 0.703276L3.95549 1.95069C4.16119 1.84588 4.42939 1.77589 4.88657 1.73855C5.35188 1.70054 5.94867 1.7 6.80029 1.7V0.3ZM2.95069 2.95585C3.17129 2.5229 3.5229 2.1711 3.95549 1.95069L3.3199 0.703276C2.62352 1.0581 2.05792 1.62425 1.70328 2.32027L2.95069 2.95585ZM6.80029 27.3C5.94868 27.3 5.35189 27.2994 4.88659 27.2614C4.42941 27.2241 4.1612 27.1541 3.95549 27.0493L3.3199 28.2967C3.75593 28.5188 4.22894 28.6124 4.77259 28.6568C5.30811 28.7005 5.97175 28.7 6.80029 28.7V27.3ZM1.3 23.2C1.3 24.0285 1.29946 24.692 1.3432 25.2274C1.38761 25.7709 1.48113 26.2438 1.70328 26.6797L2.95069 26.0442C2.84585 25.8384 2.77588 25.5703 2.73855 25.1134C2.70054 24.6483 2.7 24.0516 2.7 23.2H1.3ZM3.95549 27.0493C3.52287 26.8288 3.17127 26.4771 2.95069 26.0442L1.70328 26.6797C2.05793 27.3758 2.62355 27.9419 3.3199 28.2967L3.95549 27.0493ZM28.3 23.2C28.3 24.0517 28.2995 24.6483 28.2616 25.1135C28.2243 25.5705 28.1544 25.8385 28.0496 26.0442L29.297 26.6797C29.5192 26.2437 29.6127 25.7708 29.657 25.2273C29.7006 24.692 29.7 24.0285 29.7 23.2H28.3ZM24.2003 28.7C25.0288 28.7 25.6922 28.7005 26.2274 28.6568C26.7709 28.6123 27.2435 28.5188 27.6795 28.2967L27.0439 27.0493C26.8381 27.1541 26.5701 27.2241 26.1134 27.2614C25.6484 27.2994 25.0519 27.3 24.2003 27.3V28.7ZM28.0496 26.0442C27.8293 26.4766 27.477 26.8286 27.0439 27.0493L27.6795 28.2967C28.3754 27.9421 28.9422 27.3763 29.297 26.6797L28.0496 26.0442ZM29.7 5.80002C29.7 4.97156 29.7006 4.30806 29.657 3.77274C29.6127 3.22923 29.5192 2.75634 29.297 2.32027L28.0496 2.95585C28.1544 3.16152 28.2243 3.42952 28.2616 3.88652C28.2995 4.3517 28.3 4.94832 28.3 5.80002H29.7ZM24.2003 1.7C25.0519 1.7 25.6484 1.70054 26.1134 1.73855C26.5701 1.77588 26.8381 1.84584 27.0439 1.95069L27.6795 0.703276C27.2435 0.481145 26.7709 0.387613 26.2274 0.343199C25.6922 0.299455 25.0288 0.3 24.2003 0.3V1.7ZM29.297 2.32027C28.9422 1.62378 28.3754 1.05786 27.6795 0.703276L27.0439 1.95069C27.4769 2.17134 27.8293 2.52337 28.0496 2.95585L29.297 2.32027ZM15.5 24.2H15.503V22.8H15.5V24.2ZM14.8032 23.4835L14.8031 23.4865L16.2027 23.5195L16.2028 23.5165L14.8032 23.4835ZM15.4979 22.803L15.495 22.803L15.505 24.203L15.5079 24.203L15.4979 22.803ZM16.2 23.503V23.5H14.8V23.503H16.2Z" fill="#191919"/>
<path d="M15.5 23.5V22C14.6716 22 14 22.6716 14 23.5H15.5ZM15.503 23.5L17.0026 23.5353C17.0121 23.1314 16.8583 22.7409 16.5761 22.4519C16.2938 22.1629 15.9069 22 15.503 22V23.5ZM15.5029 23.503L15.5137 25.003C16.3242 24.9972 16.9835 24.3486 17.0025 23.5383L15.5029 23.503ZM15.5 23.503H14C14 23.9027 14.1595 24.2859 14.4431 24.5675C14.7268 24.8491 15.1111 25.0058 15.5107 25.003L15.5 23.503ZM15.5 25H15.503V22H15.5V25ZM14.0034 23.4647L14.0033 23.4677L17.0025 23.5383L17.0026 23.5353L14.0034 23.4647ZM15.4922 22.003L15.4893 22.0031L15.5107 25.003L15.5137 25.003L15.4922 22.003ZM17 23.503V23.5H14V23.503H17Z" fill="#191919"/>
<path d="M15.503 23.5H15.5V23.503L15.5029 23.503L15.503 23.5Z" stroke="#0F42F4" stroke-opacity="0.6" stroke-width="1.4" stroke-linecap="round" stroke-linejoin="round"/>
<path d="M1.19117 43.78V44.65H1.80117C3.23117 44.65 4.12117 44.62 5.18117 44.43L5.08117 43.57C4.05117 43.75 3.20117 43.78 1.80117 43.78H1.19117ZM1.19117 38.69V44.12H2.19117V39.53H4.83117V38.69H1.19117ZM1.89117 41.1V41.92H4.67117V41.1H1.89117ZM7.66117 37.69V46.83H8.66117V37.69H7.66117ZM6.36117 41.3V42.15H8.01117V41.3H6.36117ZM5.66117 37.86V46.39H6.65117V37.86H5.66117ZM10.9304 37.85V40.89H17.0504V37.85H16.0104V38.59H11.9604V37.85H10.9304ZM11.9604 39.37H16.0104V40.09H11.9604V39.37ZM9.85039 41.53V42.36H18.1104V41.53H9.85039ZM10.8304 43.05V43.83H16.0504V44.48H10.8404V46.21H11.8804V45.22H17.0804V43.05H10.8304ZM10.8404 45.95V46.75H17.3404V45.95H10.8404ZM25.3396 37.69V43.9H26.3896V37.69H25.3396ZM19.3296 42.08V42.93H20.0896C21.9396 42.93 23.1296 42.88 24.5096 42.63L24.3996 41.79C23.0596 42.03 21.8996 42.08 20.0896 42.08H19.3296ZM19.3096 38.26V39.11H22.4496V40.16H19.3296V42.47H20.3496V40.95H23.4796V38.26H19.3096ZM22.8296 43.44V43.65C22.8296 44.79 21.6196 45.74 19.8396 45.99L20.2296 46.8C22.2596 46.48 23.7196 45.31 23.7196 43.65V43.44H22.8296ZM23.0196 43.44V43.65C23.0196 45.31 24.4696 46.47 26.4896 46.8L26.8896 45.99C25.0996 45.74 23.9096 44.79 23.9096 43.65V43.44H23.0196Z" fill="#424242"/>
</svg>
