<svg width="37" height="55" viewBox="0 0 37 55" fill="none" xmlns="http://www.w3.org/2000/svg">
<path d="M10 6H32L29.5 18H12L10 6Z" fill="#0F42F4" fill-opacity="0.4"/>
<path d="M23.6667 25.8889C23.6667 27.6071 25.0596 29 26.7778 29C28.496 29 29.8889 27.6071 29.8889 25.8889C29.8889 24.1707 28.496 22.7778 26.7778 22.7778C25.0596 22.7778 23.6667 24.1707 23.6667 25.8889Z" fill="#0F42F4" fill-opacity="0.4"/>
<path d="M9.66667 25.8889C9.66667 27.6071 11.0596 29 12.7778 29C14.496 29 15.8889 27.6071 15.8889 25.8889C15.8889 24.1707 14.496 22.7778 12.7778 22.7778C11.0596 22.7778 9.66667 24.1707 9.66667 25.8889Z" fill="#0F42F4" fill-opacity="0.4"/>
<path d="M5 0.2C4.55817 0.2 4.2 0.558172 4.2 1C4.2 1.44183 4.55817 1.8 5 1.8V0.2ZM8.53342 2.96742L9.31566 2.7998L8.53342 2.96742ZM12.3569 20.8104L13.1392 20.6428L13.1392 20.6428L12.3569 20.8104ZM12.3618 20.8331L11.5795 21.0007L11.5795 21.0007L12.3618 20.8331ZM12.7677 22.1248L13.4192 21.6606L12.7677 22.1248ZM13.4188 22.6502L13.7362 21.9158L13.4188 22.6502ZM7.46991 1.12763L7.78726 0.39327H7.78726L7.46991 1.12763ZM8.12023 1.65302L8.77179 1.18884V1.18884L8.12023 1.65302ZM9.66667 4.86667C9.22484 4.86667 8.86667 5.22484 8.86667 5.66667C8.86667 6.10849 9.22484 6.46667 9.66667 6.46667V4.86667ZM32.0838 8.84538L31.3151 8.62365L32.0838 8.84538ZM29.9299 16.312L29.1612 16.0903L29.9299 16.312ZM12.3585 17.3111C11.9167 17.3111 11.5585 17.6693 11.5585 18.1111C11.5585 18.5529 11.9167 18.9111 12.3585 18.9111V17.3111ZM29.462 17.519L28.8339 17.0235L28.8339 17.0235L29.462 17.519ZM28.8266 17.996L29.1285 18.7369L28.8266 17.996ZM31.7524 5.90056L31.3305 6.58027V6.58027L31.7524 5.90056ZM32.429 6.80029L33.199 6.58332V6.58332L32.429 6.80029ZM26.7778 28.2C25.5014 28.2 24.4667 27.1653 24.4667 25.8889H22.8667C22.8667 28.0489 24.6177 29.8 26.7778 29.8V28.2ZM24.4667 25.8889C24.4667 24.6125 25.5014 23.5778 26.7778 23.5778V21.9778C24.6177 21.9778 22.8667 23.7288 22.8667 25.8889H24.4667ZM26.7778 23.5778C28.0542 23.5778 29.0889 24.6125 29.0889 25.8889H30.6889C30.6889 23.7288 28.9378 21.9778 26.7778 21.9778V23.5778ZM29.0889 25.8889C29.0889 27.1653 28.0542 28.2 26.7778 28.2V29.8C28.9378 29.8 30.6889 28.0489 30.6889 25.8889H29.0889ZM12.7778 28.2C11.5014 28.2 10.4667 27.1653 10.4667 25.8889H8.86667C8.86667 28.0489 10.6177 29.8 12.7778 29.8V28.2ZM10.4667 25.8889C10.4667 24.6125 11.5014 23.5778 12.7778 23.5778V21.9778C10.6177 21.9778 8.86667 23.7288 8.86667 25.8889H10.4667ZM12.7778 23.5778C14.0542 23.5778 15.0889 24.6125 15.0889 25.8889H16.6889C16.6889 23.7288 14.9378 21.9778 12.7778 21.9778V23.5778ZM15.0889 25.8889C15.0889 27.1653 14.0542 28.2 12.7778 28.2V29.8C14.9378 29.8 16.6889 28.0489 16.6889 25.8889H15.0889ZM5 1.8H6.09905V0.2H5V1.8ZM7.75118 3.13504L11.5747 20.978L13.1392 20.6428L9.31566 2.7998L7.75118 3.13504ZM14.7906 23.5778H26.7778V21.9778H14.7906V23.5778ZM11.5747 20.978L11.5795 21.0007L13.144 20.6655L13.1392 20.6428L11.5747 20.978ZM11.5795 21.0007C11.6506 21.3325 11.7127 21.6244 11.7829 21.8642C11.8561 22.1137 11.952 22.3586 12.1161 22.5889L13.4192 21.6606C13.3987 21.6317 13.3652 21.5741 13.3183 21.4141C13.2686 21.2445 13.22 21.0201 13.144 20.6655L11.5795 21.0007ZM14.7906 21.9778H14.7902V23.5778H14.7906V21.9778ZM14.7902 21.9778C14.4199 21.9778 14.1852 21.9773 14.0051 21.964C13.8351 21.9515 13.7699 21.9304 13.7362 21.9158L13.1015 23.3845C13.363 23.4976 13.6249 23.5403 13.8874 23.5597C14.1399 23.5783 14.4432 23.5778 14.7902 23.5778V21.9778ZM12.1161 22.5889C12.3663 22.9402 12.7085 23.2147 13.1015 23.3845L13.7362 21.9158C13.6082 21.8605 13.4983 21.7716 13.4192 21.6606L12.1161 22.5889ZM6.09905 1.8C6.46951 1.8 6.70403 1.8005 6.88389 1.81378C7.05357 1.82631 7.11863 1.84733 7.15255 1.86199L7.78726 0.39327C7.52584 0.280299 7.26423 0.237506 7.00169 0.218125C6.74934 0.199496 6.4461 0.2 6.09905 0.2V1.8ZM9.31566 2.7998C9.24282 2.45986 9.1795 2.16316 9.10799 1.91983C9.03367 1.66693 8.93671 1.42034 8.77179 1.18884L7.46866 2.1172C7.49042 2.14775 7.52489 2.20757 7.57291 2.37096C7.62374 2.54393 7.67368 2.7734 7.75118 3.13504L9.31566 2.7998ZM7.15255 1.86199C7.27955 1.91687 7.38899 2.00537 7.46866 2.1172L8.77179 1.18884C8.52217 0.838451 8.18123 0.563523 7.78726 0.39327L7.15255 1.86199ZM9.66667 6.46667H29.6917V4.86667H9.66667V6.46667ZM31.3151 8.62365L29.1612 16.0903L30.6986 16.5338L32.8524 9.06711L31.3151 8.62365ZM27.5374 17.3111H12.3585V18.9111H27.5374V17.3111ZM29.1612 16.0903C28.9554 16.8039 28.902 16.9372 28.8339 17.0235L30.0902 18.0144C30.3996 17.622 30.5323 17.1102 30.6986 16.5338L29.1612 16.0903ZM27.5374 18.9111C28.1373 18.9111 28.6657 18.9255 29.1285 18.7369L28.5246 17.2552C28.4228 17.2967 28.28 17.3111 27.5374 17.3111V18.9111ZM28.8339 17.0235C28.754 17.1249 28.6472 17.2053 28.5246 17.2552L29.1285 18.7369C29.5042 18.5837 29.8369 18.3355 30.0902 18.0144L28.8339 17.0235ZM29.6917 6.46667C30.2679 6.46667 30.6468 6.46742 30.9307 6.49274C31.2093 6.5176 31.2979 6.56005 31.3305 6.58027L32.1743 5.22084C31.83 5.00718 31.4496 4.93268 31.0728 4.89907C30.7012 4.86592 30.2382 4.86667 29.6917 4.86667V6.46667ZM32.8524 9.06711C33.004 8.54156 33.1328 8.09683 33.2036 7.73019C33.2755 7.35846 33.3087 6.9727 33.199 6.58332L31.6589 7.01726C31.6695 7.05478 31.6857 7.15217 31.6327 7.42657C31.5787 7.70606 31.4747 8.07042 31.3151 8.62365L32.8524 9.06711ZM31.3305 6.58027C31.4905 6.6796 31.6077 6.8353 31.6589 7.01726L33.199 6.58332C33.0395 6.01742 32.6744 5.53127 32.1743 5.22084L31.3305 6.58027Z" fill="#191919"/>
<path d="M1.85156 44.26V45.09H7.57156V44.26H1.85156ZM0.861562 48.16V49.02H9.12156V48.16H0.861562ZM4.43156 48.75V52.84H5.48156V48.75H4.43156ZM7.05156 44.26V45.06C7.05156 45.99 7.05156 47.06 6.70156 48.56L7.73156 48.69C8.08156 47.11 8.08156 46.03 8.08156 45.06V44.26H7.05156ZM16.6608 43.69V52.83H17.6608V43.69H16.6608ZM15.3608 47.25V48.1H17.0108V47.25H15.3608ZM14.6408 43.86V52.39H15.6308V43.86H14.6408ZM10.1508 44.69V50.45H13.6908V44.69H10.1508ZM12.7108 45.52V49.63H11.1308V45.52H12.7108ZM25.63 43.69V52.83H26.63V43.69H25.63ZM24.25 47.32V48.17H25.9V47.32H24.25ZM23.57 43.87V52.38H24.55V43.87H23.57ZM19.26 44.75V50.03H20.31V44.75H19.26ZM19.26 49.62V50.52H19.86C20.82 50.52 21.87 50.48 23.09 50.25L22.98 49.34C21.81 49.57 20.78 49.62 19.86 49.62H19.26ZM31.9592 44.98V45.83H34.7092V44.98H31.9592ZM31.9592 47V47.85H34.7092V47H31.9592ZM29.2692 49.55V50.39H34.3792V52.83H35.4292V49.55H29.2692ZM34.3792 43.69V49.09H35.4292V43.69H34.3792ZM30.3592 44.18C28.9992 44.18 27.9792 45.11 27.9792 46.41C27.9792 47.72 28.9992 48.64 30.3592 48.64C31.7092 48.64 32.7392 47.72 32.7392 46.41C32.7392 45.11 31.7092 44.18 30.3592 44.18ZM30.3592 45.08C31.1492 45.08 31.7392 45.61 31.7392 46.41C31.7392 47.22 31.1492 47.75 30.3592 47.75C29.5692 47.75 28.9792 47.22 28.9792 46.41C28.9792 45.61 29.5692 45.08 30.3592 45.08Z" fill="#424242"/>
</svg>
