<svg width="310" height="42" viewBox="0 0 310 42" fill="none" xmlns="http://www.w3.org/2000/svg">
<rect width="310" height="42" rx="4" fill="#F44336"/>
<path d="M149.561 21.408C147.401 20.688 146.169 18.944 146.169 17.088V15.536H144.505V16.944C144.505 18.992 143.273 20.848 141.001 21.616L141.833 22.928C143.529 22.352 144.713 21.152 145.353 19.632C145.961 21.04 147.129 22.16 148.729 22.688L149.561 21.408ZM142.873 25.52H150.729V29.232H152.377V24.192H142.873V25.52ZM154.425 18.48H152.377V14.8H150.729V23.52H152.377V19.84H154.425V18.48ZM160.2 17.712H162.584V16.352H156.056V17.712H158.6V18.752C158.6 21.328 157.64 23.936 155.592 25.216L156.584 26.432C157.976 25.552 158.904 24 159.416 22.176C159.928 23.856 160.824 25.28 162.184 26.08L163.144 24.88C161.128 23.712 160.2 21.216 160.2 18.752V17.712ZM163.656 19.856H161.528V21.2H163.656V28.528H165.208V15.056H163.656V19.856ZM166.568 14.768V29.216H168.136V14.768H166.568Z" fill="white"/>
</svg>
