<svg width="37" height="55" viewBox="0 0 37 55" fill="none" xmlns="http://www.w3.org/2000/svg">
<path d="M4.66875 6.71956L4.09341 13.0483L4.09169 13.0672C4.00586 14.0113 3.96269 14.4862 4.04112 14.9372C4.11108 15.3396 4.25056 15.7266 4.45438 16.0805C4.68309 16.4776 5.021 16.8155 5.69243 17.4869L5.70415 17.4986L14.7056 26.5001L14.7138 26.5083C16.0893 27.8838 16.7776 28.572 17.5722 28.8302C18.2725 29.0578 19.0271 29.0578 19.7275 28.8302C20.5237 28.5715 21.2156 27.881 22.5965 26.5L29.5006 19.5959C30.8816 18.215 31.5706 17.5246 31.8293 16.7284C32.0569 16.028 32.0569 15.2737 31.8293 14.5733C31.5706 13.7771 30.8812 13.0866 29.5003 11.7057L20.4988 2.70419C19.8196 2.02497 19.4798 1.68531 19.0805 1.45527C18.7266 1.25145 18.3393 1.11133 17.937 1.04138C17.4829 0.962422 17.0045 1.00585 16.0479 1.09281L9.71909 1.66816L9.71754 1.6683C8.07133 1.81795 7.24751 1.89285 6.60317 2.25115C6.0349 2.56716 5.56626 3.03579 5.25026 3.60406C4.89367 4.24531 4.81926 5.06389 4.67104 6.69434L4.66875 6.71956Z" fill="#0F42F4" fill-opacity="0.4"/>
<path d="M4.09341 13.0483L4.89012 13.1208L4.09341 13.0483ZM4.66875 6.71956L5.46547 6.79198L5.46547 6.79198L4.66875 6.71956ZM9.71909 1.66816L9.79148 2.46487L9.79151 2.46487L9.71909 1.66816ZM16.0479 1.09281L15.9754 0.296099L16.0479 1.09281ZM20.4988 2.70419L19.9331 3.26988L20.4988 2.70419ZM29.5003 11.7057L28.9346 12.2714L29.5003 11.7057ZM29.5006 19.5959L28.9349 19.0302L29.5006 19.5959ZM22.5965 26.5L22.0308 25.9343L22.5965 26.5ZM14.7056 26.5001L15.2713 25.9344L14.7056 26.5001ZM5.70415 17.4986L6.26984 16.9329L6.26982 16.9329L5.70415 17.4986ZM19.7275 28.8302L19.4803 28.0694L19.7275 28.8302ZM14.7138 26.5083L15.2795 25.9426H15.2795L14.7138 26.5083ZM17.5722 28.8302L17.8194 28.0694H17.8194L17.5722 28.8302ZM31.8293 14.5733L31.0685 14.8205V14.8205L31.8293 14.5733ZM31.8293 16.7284L31.0685 16.4812L31.8293 16.7284ZM17.937 1.04138L17.7999 1.82955L17.937 1.04138ZM19.0805 1.45527L19.4798 0.762046V0.762046L19.0805 1.45527ZM4.67104 6.69434L3.87433 6.62191L3.87433 6.62191L4.67104 6.69434ZM5.25026 3.60406L4.55109 3.21527H4.55109L5.25026 3.60406ZM9.71754 1.6683L9.64514 0.87158L9.64511 0.871583L9.71754 1.6683ZM6.60317 2.25115L6.21437 1.55198V1.55198L6.60317 2.25115ZM4.09169 13.0672L4.8884 13.1397L4.8884 13.1397L4.09169 13.0672ZM4.04112 14.9372L4.82929 14.8002L4.04112 14.9372ZM5.69243 17.4869L5.12674 18.0526L5.12676 18.0526L5.69243 17.4869ZM4.45438 16.0805L3.76115 16.4798H3.76115L4.45438 16.0805ZM12.7597 8.42476C13.1282 8.79324 13.1282 9.39067 12.7597 9.75915L13.8911 10.8905C14.8844 9.8972 14.8844 8.28671 13.8911 7.29339L12.7597 8.42476ZM12.7597 9.75915C12.3911 10.1277 11.794 10.1277 11.4256 9.75931L10.2942 10.8907C11.2876 11.8841 12.8978 11.8837 13.8911 10.8905L12.7597 9.75915ZM11.4256 9.75931C11.057 9.39075 11.057 8.79317 11.4254 8.42476L10.2941 7.29339C9.30067 8.28679 9.30096 9.89744 10.2942 10.8907L11.4256 9.75931ZM11.4254 8.42476C11.7939 8.05628 12.3912 8.05628 12.7597 8.42476L13.8911 7.29339C12.8977 6.30007 11.2874 6.30008 10.2941 7.29339L11.4254 8.42476ZM4.89012 13.1208L5.46547 6.79198L3.87204 6.64713L3.29669 12.9759L4.89012 13.1208ZM9.79151 2.46487L16.1203 1.88953L15.9754 0.296099L9.64666 0.871442L9.79151 2.46487ZM19.9331 3.26988L28.9346 12.2714L30.066 11.14L21.0645 2.13851L19.9331 3.26988ZM28.9349 19.0302L22.0308 25.9343L23.1622 27.0657L30.0663 20.1616L28.9349 19.0302ZM15.2713 25.9344L6.26984 16.9329L5.13846 18.0643L14.1399 27.0658L15.2713 25.9344ZM22.0308 25.9343C21.3312 26.634 20.8395 27.1244 20.4252 27.4759C20.0179 27.8214 19.7381 27.9856 19.4803 28.0694L19.9747 29.5911C20.5131 29.4161 20.9773 29.1057 21.4602 28.696C21.9361 28.2923 22.4809 27.747 23.1622 27.0657L22.0308 25.9343ZM14.1399 27.0658L14.1481 27.074L15.2795 25.9426L15.2713 25.9344L14.1399 27.0658ZM14.1481 27.074C14.8265 27.7524 15.3691 28.2958 15.8431 28.6982C16.3244 29.1066 16.7873 29.4164 17.325 29.5911L17.8194 28.0694C17.5624 27.9859 17.2839 27.8224 16.8785 27.4783C16.4659 27.1281 15.9766 26.6397 15.2795 25.9426L14.1481 27.074ZM19.4803 28.0694C18.9406 28.2447 18.3591 28.2447 17.8194 28.0694L17.325 29.5911C18.186 29.8708 19.1137 29.8708 19.9747 29.5911L19.4803 28.0694ZM28.9346 12.2714C29.6343 12.9711 30.1244 13.4623 30.4756 13.8763C30.8207 14.2831 30.9847 14.5626 31.0685 14.8205L32.5902 14.3261C32.4153 13.7878 32.1052 13.324 31.6957 12.8412C31.2923 12.3657 30.7472 11.8212 30.066 11.14L28.9346 12.2714ZM30.0663 20.1616C30.7476 19.4803 31.2925 18.9359 31.6959 18.4603C32.1054 17.9776 32.4153 17.5138 32.5902 16.9756L31.0685 16.4812C30.9847 16.7391 30.8207 17.0187 30.4757 17.4254C30.1246 17.8393 29.6346 18.3306 28.9349 19.0302L30.0663 20.1616ZM31.0685 14.8205C31.2438 15.3602 31.2438 15.9415 31.0685 16.4812L32.5902 16.9756C32.8699 16.1146 32.8699 15.1871 32.5902 14.3261L31.0685 14.8205ZM16.1203 1.88953C17.1199 1.79865 17.4744 1.77295 17.7999 1.82955L18.074 0.253203C17.4914 0.151898 16.889 0.213045 15.9754 0.296099L16.1203 1.88953ZM21.0645 2.13851C20.4158 1.48985 19.9922 1.05721 19.4798 0.762046L18.6812 2.1485C18.9675 2.31342 19.2233 2.56009 19.9331 3.26988L21.0645 2.13851ZM17.7999 1.82955C18.1101 1.88348 18.4086 1.9915 18.6812 2.1485L19.4798 0.762046C19.0446 0.511402 18.5685 0.339188 18.074 0.253203L17.7999 1.82955ZM5.46547 6.79198L5.46776 6.76676L3.87433 6.62191L3.87204 6.64713L5.46547 6.79198ZM5.46776 6.76676C5.54294 5.93969 5.59595 5.36231 5.67156 4.91019C5.74549 4.46804 5.8329 4.20241 5.94943 3.99286L4.55109 3.21527C4.31103 3.64696 4.18294 4.11125 4.09347 4.64631C4.00566 5.17141 3.94736 5.81854 3.87433 6.62191L5.46776 6.76676ZM9.64669 0.871439L9.64514 0.87158L9.78993 2.46502L9.79148 2.46487L9.64669 0.871439ZM9.64511 0.871583C8.83386 0.945333 8.18154 1.00411 7.65286 1.09241C7.11428 1.18236 6.64777 1.31098 6.21437 1.55198L6.99197 2.95032C7.20291 2.83302 7.47048 2.74504 7.91644 2.67055C8.37231 2.59441 8.95501 2.54092 9.78996 2.46501L9.64511 0.871583ZM5.94943 3.99286C6.19294 3.55496 6.55407 3.19383 6.99197 2.95032L6.21437 1.55198C5.51573 1.94049 4.93959 2.51663 4.55109 3.21527L5.94943 3.99286ZM3.29669 12.9759L3.29497 12.9948L4.8884 13.1397L4.89012 13.1208L3.29669 12.9759ZM3.29497 12.9948C3.21305 13.896 3.15217 14.4947 3.25295 15.0743L4.82929 14.8002C4.77321 14.4776 4.79868 14.1266 4.8884 13.1397L3.29497 12.9948ZM6.26982 16.9329L6.25809 16.9212L5.12676 18.0526L5.13848 18.0643L6.26982 16.9329ZM6.25811 16.9212C5.55619 16.2193 5.31121 15.9652 5.1476 15.6812L3.76115 16.4798C4.05497 16.9899 4.48581 17.4117 5.12674 18.0526L6.25811 16.9212ZM3.25295 15.0743C3.33881 15.5681 3.51016 16.044 3.76115 16.4798L5.1476 15.6812C4.99095 15.4092 4.88334 15.111 4.82929 14.8002L3.25295 15.0743Z" fill="#191919"/>
<path d="M13.3258 10.3241C14.0067 9.64319 14.0067 8.53923 13.3258 7.85833C12.6449 7.17743 11.5411 7.17743 10.8602 7.85833C10.1793 8.53923 10.1795 9.64335 10.8603 10.3242C11.5412 11.0051 12.6449 11.005 13.3258 10.3241Z" fill="white"/>
<path d="M12.7602 8.42402C13.1286 8.7925 13.1286 9.38992 12.7602 9.7584L13.8915 10.8898C14.8848 9.89645 14.8848 8.28596 13.8915 7.29265L12.7602 8.42402ZM12.7602 9.7584C12.3916 10.127 11.7944 10.1269 11.426 9.75856L10.2947 10.8899C11.2881 11.8833 12.8983 11.883 13.8915 10.8898L12.7602 9.7584ZM11.426 9.75856C11.0575 9.39 11.0575 8.79242 11.4259 8.42402L10.2945 7.29265C9.30113 8.28604 9.30142 9.89669 10.2947 10.8899L11.426 9.75856ZM11.4259 8.42402C11.7944 8.05554 12.3917 8.05554 12.7602 8.42402L13.8915 7.29265C12.8982 6.29933 11.2879 6.29933 10.2945 7.29265L11.4259 8.42402Z" fill="#191919"/>
<path d="M1.09156 44.49V45.34H5.97156V44.49H1.09156ZM0.961562 49.13C2.50156 49.13 4.61156 49.09 6.42156 48.79L6.35156 48.02C4.57156 48.24 2.42156 48.26 0.841562 48.27L0.961562 49.13ZM1.91156 45.14V48.44H2.92156V45.14H1.91156ZM4.14156 45.14V48.44H5.15156V45.14H4.14156ZM6.94156 43.7V50.43H7.99156V43.7H6.94156ZM7.68156 46.38V47.25H9.28156V46.38H7.68156ZM2.21156 51.8V52.65H8.36156V51.8H2.21156ZM2.21156 49.79V52.02H3.26156V49.79H2.21156ZM16.6608 43.69V52.83H17.6608V43.69H16.6608ZM15.3608 47.25V48.1H17.0108V47.25H15.3608ZM14.6408 43.86V52.39H15.6308V43.86H14.6408ZM10.1508 44.69V50.45H13.6908V44.69H10.1508ZM12.7108 45.52V49.63H11.1308V45.52H12.7108ZM25.63 43.69V52.83H26.63V43.69H25.63ZM24.25 47.32V48.17H25.9V47.32H24.25ZM23.57 43.87V52.38H24.55V43.87H23.57ZM19.26 44.75V50.03H20.31V44.75H19.26ZM19.26 49.62V50.52H19.86C20.82 50.52 21.87 50.48 23.09 50.25L22.98 49.34C21.81 49.57 20.78 49.62 19.86 49.62H19.26ZM31.9592 44.98V45.83H34.7092V44.98H31.9592ZM31.9592 47V47.85H34.7092V47H31.9592ZM29.2692 49.55V50.39H34.3792V52.83H35.4292V49.55H29.2692ZM34.3792 43.69V49.09H35.4292V43.69H34.3792ZM30.3592 44.18C28.9992 44.18 27.9792 45.11 27.9792 46.41C27.9792 47.72 28.9992 48.64 30.3592 48.64C31.7092 48.64 32.7392 47.72 32.7392 46.41C32.7392 45.11 31.7092 44.18 30.3592 44.18ZM30.3592 45.08C31.1492 45.08 31.7392 45.61 31.7392 46.41C31.7392 47.22 31.1492 47.75 30.3592 47.75C29.5692 47.75 28.9792 47.22 28.9792 46.41C28.9792 45.61 29.5692 45.08 30.3592 45.08Z" fill="#424242"/>
</svg>
