<svg width="118" height="34" viewBox="0 0 118 34" fill="none" xmlns="http://www.w3.org/2000/svg">
<rect x="0.25" y="0.25" width="117.5" height="33.5" rx="3.75" stroke="#BDBDBD" stroke-width="0.5"/>
<path d="M49.212 17.38C47.628 16.852 46.512 15.544 46.512 14.104V13.672H48.948V12.88H43.044V13.672H45.504V14.104C45.504 15.616 44.412 17.02 42.78 17.596L43.296 18.364C44.568 17.896 45.564 16.936 46.02 15.712C46.512 16.84 47.496 17.728 48.732 18.16L49.212 17.38ZM44.268 19.996H50.484V22.888H51.468V19.204H44.268V19.996ZM50.484 12.124V18.64H51.468V12.124H50.484ZM54.1431 13.288V14.08H58.0671C57.8871 16.6 56.5551 18.652 53.6631 20.068L54.2031 20.836C57.7791 19.072 59.0511 16.348 59.0511 13.288H54.1431ZM61.5471 12.136V16.444H59.0271V17.248H61.5471V22.888H62.5311V12.136H61.5471ZM66.0221 17.08H69.0821V13.3H65.0381V14.104H68.1221V16.276H65.0741V20.308H65.7821C67.1141 20.308 68.3261 20.26 69.8141 20.008L69.7421 19.192C68.3741 19.432 67.2461 19.48 66.0221 19.492V17.08ZM72.9101 12.124V16.372H71.3861V12.364H70.4621V22.336H71.3861V17.176H72.9101V22.876H73.8581V12.124H72.9101Z" fill="#BDBDBD"/>
</svg>
