<svg width="22" height="42" viewBox="0 0 22 42" fill="none" xmlns="http://www.w3.org/2000/svg">
<path d="M5.02078 33.19H6.60078V32.35H5.02078V31.05H4.04078V32.35H2.45078V33.19H4.04078V33.5C4.04078 34.93 3.43078 36.47 2.20078 37.2L2.79078 37.97C3.65078 37.47 4.22078 36.56 4.54078 35.51C4.87078 36.48 5.45078 37.31 6.30078 37.76L6.87078 36.99C5.63078 36.33 5.02078 34.9 5.02078 33.5V33.19ZM9.08078 30.74V34.3H8.09078V30.91H7.12078V39.35H8.09078V35.15H9.08078V39.77H10.0608V30.74H9.08078ZM18.95 30.75H17.92V36.28H18.95V30.75ZM17.01 34.68C15.81 34.88 14.78 34.92 13.04 34.92V33.95H16.08V33.14H13.04V32.21H16.34V31.38H12.02V35.74H12.77C14.71 35.74 15.82 35.71 17.11 35.5L17.01 34.68ZM15.94 38.97C14.65 38.97 13.91 38.66 13.91 38.09C13.91 37.52 14.65 37.21 15.94 37.21C17.22 37.21 17.97 37.52 17.97 38.09C17.97 38.66 17.22 38.97 15.94 38.97ZM15.94 36.41C14.04 36.41 12.88 37.03 12.88 38.09C12.88 39.15 14.04 39.77 15.94 39.77C17.84 39.77 19 39.15 19 38.09C19 37.03 17.84 36.41 15.94 36.41Z" fill="#191919"/>
<path d="M21.5 12.9749V4.10828V4.10446C21.5 2.80022 21.5 2.14769 21.2459 1.64905C21.0222 1.21 20.6648 0.853023 20.2258 0.629318C19.7266 0.375 19.0737 0.375 17.7669 0.375H4.23356C2.92677 0.375 2.27289 0.375 1.77376 0.629318C1.33472 0.853023 0.978023 1.21 0.754318 1.64905C0.5 2.14818 0.5 2.80149 0.5 4.10828V17.4911C0.5 18.7344 0.5 19.3562 0.754867 19.6755C0.97652 19.9531 1.31251 20.1147 1.66781 20.1143C2.07634 20.1139 2.56201 19.7254 3.53288 18.9487L5.31083 17.5264C5.68985 17.2232 5.87931 17.0716 6.09034 16.9638C6.27756 16.8682 6.47659 16.7982 6.68254 16.756C6.91467 16.7083 7.15761 16.7083 7.64298 16.7083H17.7667C19.0735 16.7083 19.7266 16.7083 20.2258 16.454C20.6648 16.2303 21.0222 15.8734 21.2459 15.4344C21.5 14.9357 21.5 14.283 21.5 12.9788V12.9749Z" fill="#191919"/>
</svg>
