<svg width="340" height="42" viewBox="0 0 340 42" fill="none" xmlns="http://www.w3.org/2000/svg">
<rect width="340" height="42" rx="4" fill="#F44336"/>
<path d="M132.719 18.688H130.895C131.007 18.016 131.055 17.296 131.055 16.56H125.471V17.888H129.423C129.183 20.848 127.743 23.2 124.767 25.008L125.711 26.176C128.415 24.56 129.935 22.464 130.607 20.032H132.719V22.32H130.351V23.664H132.719V28.528H134.255V15.136H132.719V18.688ZM135.631 14.784V29.232H137.215V14.784H135.631ZM147.342 18.416V19.76H149.902V23.392H151.55V14.784H149.902V18.416H147.342ZM148.174 21.632C146.014 20.88 144.782 19.088 144.782 17.28V17.088H147.79V15.76H140.062V17.088H143.118V17.296C143.118 19.28 141.822 21.2 139.582 22L140.43 23.312C142.142 22.704 143.358 21.424 143.998 19.84C144.606 21.232 145.758 22.368 147.358 22.928L148.174 21.632ZM146.75 27.968C144.686 27.968 143.518 27.456 143.518 26.512C143.518 25.568 144.686 25.056 146.75 25.056C148.782 25.056 149.966 25.568 149.966 26.512C149.966 27.456 148.782 27.968 146.75 27.968ZM146.75 23.776C143.726 23.776 141.87 24.8 141.87 26.512C141.87 28.24 143.726 29.248 146.75 29.248C149.758 29.248 151.614 28.24 151.614 26.512C151.614 24.8 149.758 23.776 146.75 23.776ZM166.102 20.24C164.278 20.528 162.742 20.592 160.134 20.592V19.248H164.902V17.984H160.134V16.736H165.174V15.44H158.486V21.904H159.622C162.614 21.904 164.278 21.856 166.246 21.536L166.102 20.24ZM161.494 26.528H169.174V22.928H159.846V24.208H167.542V25.344H159.878V29.104H169.654V27.824H161.494V26.528ZM169.174 17.792V14.784H167.526V22.272H169.174V19.152H171.206V17.792H169.174ZM178.213 22.912H181.237V21.584H175.381V20.08H180.885V18.784H175.381V17.36H181.205V16.032H173.733V22.912H176.565V25.056C175.173 25.104 173.813 25.104 172.677 25.104L172.885 26.464C175.445 26.448 178.901 26.432 182.085 25.824L181.957 24.608C180.757 24.8 179.477 24.928 178.213 24.976V22.912ZM182.837 14.752V29.248H184.501V14.752H182.837ZM191.54 24.768C190.372 24.768 189.524 23.968 189.524 22.752C189.524 21.536 190.372 20.736 191.54 20.736C192.708 20.736 193.556 21.536 193.556 22.752C193.556 23.968 192.708 24.768 191.54 24.768ZM191.54 19.376C189.46 19.376 187.956 20.784 187.956 22.752C187.956 24.736 189.46 26.128 191.54 26.128C193.604 26.128 195.124 24.736 195.124 22.752C195.124 20.784 193.604 19.376 191.54 19.376ZM192.34 15.008H190.692V17.008H187.252V18.352H195.716V17.008H192.34V15.008ZM200.772 20.592H198.548V14.784H196.884V29.248H198.548V21.968H200.772V20.592ZM202.866 16.304V17.648H208.018C207.73 20.976 205.938 23.52 202.146 25.344L203.026 26.656C207.986 24.256 209.714 20.608 209.714 16.304H202.866ZM212.322 14.784V29.232H213.97V14.784H212.322Z" fill="white"/>
</svg>
