<svg width="224" height="42" viewBox="0 0 224 42" fill="none" xmlns="http://www.w3.org/2000/svg">
<rect width="224" height="42" rx="4" fill="#0F42F4"/>
<path d="M94.072 14.784V22.544H95.72V14.784H94.072ZM86.28 23.216V29.056H95.72V23.216H94.088V24.816H87.912V23.216H86.28ZM87.912 26.096H94.088V27.728H87.912V26.096ZM87.928 15.44C85.72 15.44 84.088 16.816 84.088 18.8C84.088 20.784 85.72 22.16 87.928 22.16C90.136 22.16 91.752 20.784 91.752 18.8C91.752 16.816 90.136 15.44 87.928 15.44ZM87.928 16.8C89.224 16.8 90.152 17.6 90.152 18.8C90.152 20.016 89.224 20.8 87.928 20.8C86.616 20.8 85.704 20.016 85.704 18.8C85.704 17.6 86.616 16.8 87.928 16.8ZM107.095 20.832C104.919 20.32 103.623 18.976 103.623 17.552V17.472H106.663V16.16H103.639V14.72H101.975V16.16H98.9348V17.472H101.975V17.552C101.975 19.136 100.663 20.544 98.4548 21.072L99.1748 22.352C100.919 21.904 102.183 20.928 102.839 19.632C103.495 20.784 104.727 21.68 106.407 22.08L107.095 20.832ZM102.135 26.592H109.815V23.008H100.487V24.272H108.183V25.408H100.519V29.104H110.295V27.824H102.135V26.592ZM109.815 17.856V14.784H108.167V22.336H109.815V19.216H111.847V17.856H109.815ZM117.462 24.768C116.294 24.768 115.446 23.968 115.446 22.752C115.446 21.536 116.294 20.736 117.462 20.736C118.63 20.736 119.478 21.536 119.478 22.752C119.478 23.968 118.63 24.768 117.462 24.768ZM117.462 19.376C115.382 19.376 113.878 20.784 113.878 22.752C113.878 24.736 115.382 26.128 117.462 26.128C119.526 26.128 121.046 24.736 121.046 22.752C121.046 20.784 119.526 19.376 117.462 19.376ZM118.262 15.008H116.614V17.008H113.174V18.352H121.638V17.008H118.262V15.008ZM126.694 20.592H124.47V14.784H122.806V29.248H124.47V21.968H126.694V20.592ZM128.788 16.304V17.648H133.94C133.652 20.976 131.86 23.52 128.068 25.344L128.948 26.656C133.908 24.256 135.636 20.608 135.636 16.304H128.788ZM138.244 14.784V29.232H139.892V14.784H138.244Z" fill="white"/>
</svg>
