<svg width="46" height="50" viewBox="0 0 46 50" fill="none" xmlns="http://www.w3.org/2000/svg">
<path d="M4.40195 39.27V39.96C4.40195 41.4 2.94195 42.82 1.13195 43.15L1.59195 44.02C3.65195 43.58 5.31195 41.94 5.31195 39.96V39.27H4.40195ZM4.60195 39.27V39.96C4.60195 41.96 6.26195 43.58 8.32195 44.02L8.78195 43.15C6.97195 42.82 5.51195 41.42 5.51195 39.96V39.27H4.60195ZM0.861953 45.79V46.65H9.14195V45.79H0.861953ZM10.1812 39.58V45.55H14.4512V39.58H10.1812ZM13.4212 40.41V44.72H11.2112V40.41H13.4212ZM15.8912 38.69V47.83H16.9412V38.69H15.8912ZM16.7012 42.25V43.12H18.3612V42.25H16.7012ZM19.8804 43.52V44.35H26.2204V43.52H19.8804ZM18.8604 45.85V46.71H27.1404V45.85H18.8604ZM19.8804 39.42V43.76H20.9404V40.27H26.1304V39.42H19.8804ZM20.6104 41.45V42.27H25.9304V41.45H20.6104ZM30.2096 43.81V47.55H31.2596V43.81H30.2096ZM34.4096 38.69V47.83H35.4696V38.69H34.4096ZM27.9496 44.29C29.6396 44.29 31.8096 44.26 33.8296 43.91L33.7696 43.14C31.7996 43.41 29.5296 43.42 27.8196 43.42L27.9496 44.29ZM32.4496 44.89V45.69H34.6496V44.89H32.4496ZM30.7896 39.11C29.4296 39.11 28.4796 39.85 28.4796 40.94C28.4796 42.04 29.4296 42.77 30.7896 42.77C32.1296 42.77 33.0896 42.04 33.0896 40.94C33.0896 39.85 32.1296 39.11 30.7896 39.11ZM30.7896 39.91C31.5596 39.91 32.1096 40.32 32.1096 40.94C32.1096 41.58 31.5596 41.97 30.7896 41.97C30.0096 41.97 29.4596 41.58 29.4596 40.94C29.4596 40.32 30.0096 39.91 30.7896 39.91ZM43.3288 38.69V47.83H44.3888V38.69H43.3288ZM39.2588 40.95V41.6C39.2588 43.1 38.3788 44.65 36.9688 45.29L37.5388 46.1C39.0988 45.38 40.0988 43.54 40.0988 41.6V40.95H39.2588ZM39.4788 40.95V41.6C39.4788 43.48 40.4888 45.26 42.0588 45.94L42.6288 45.14C41.1988 44.52 40.2988 43.03 40.2988 41.6V40.95H39.4788ZM37.2388 40.23V41.07H42.2888V40.23H37.2388ZM39.2588 38.88V40.68H40.3088V38.88H39.2588Z" fill="#424242"/>
<rect x="19" y="2" width="7" height="4" fill="#0F42F4" fill-opacity="0.6"/>
<rect x="19" y="22" width="7" height="4" fill="#0F42F4" fill-opacity="0.6"/>
<path d="M27.7533 5.99994L27.2694 1.76207C27.2199 1.32818 26.8523 1 26.4154 1H18.846C18.4092 1 18.0415 1.32815 17.992 1.76207L17.5078 5.99994C16.0601 6.45484 15 7.79322 15 9.38943V18.6106C15 20.2068 16.0601 21.5457 17.5079 22.0008L17.992 26.2379C18.0415 26.6719 18.4091 27 18.846 27H26.4154C26.8523 27 27.2199 26.6719 27.2694 26.2379L27.7533 22.0008C29.2013 21.5458 30.2614 20.2068 30.2614 18.6106V9.38943C30.2614 7.79317 29.2012 6.45478 27.7533 5.99994ZM28.5426 18.6106C28.5426 19.1287 28.3274 19.5962 27.9833 19.9324C27.7352 20.1748 27.4205 20.3493 27.0684 20.4224C26.9469 20.4475 26.8213 20.4612 26.6924 20.4612H18.5686C18.4398 20.4612 18.3141 20.4476 18.1927 20.4224C17.8405 20.3494 17.5258 20.1748 17.2777 19.9323C16.9338 19.5961 16.7188 19.1286 16.7188 18.6106V9.38946C16.7188 8.87189 16.9338 8.40457 17.2777 8.06849C17.5258 7.82598 17.8405 7.6515 18.1926 7.57846C18.3141 7.55329 18.4398 7.5397 18.5686 7.5397H26.6924C26.8213 7.5397 26.947 7.55334 27.0685 7.57851C27.4206 7.65155 27.7352 7.82599 27.9833 8.06832C28.3274 8.40441 28.5426 8.87177 28.5426 9.38946V18.6106ZM25.6488 25.2811H19.6127L19.2583 22.18H26.0028L25.6488 25.2811ZM19.6127 2.71882H25.6488L26.0029 5.8208H19.2583L19.6127 2.71882Z" fill="#191919" stroke="#191919" stroke-width="0.1" stroke-miterlimit="10"/>
<path d="M22.631 9.48096C22.1564 9.48096 21.7716 9.86533 21.7716 10.3404V13.141H20.6075C20.1328 13.141 19.748 13.5254 19.748 14.0005C19.748 14.4755 20.1328 14.8599 20.6075 14.8599H22.631C23.1056 14.8599 23.4904 14.4755 23.4904 14.0005V10.3404C23.4904 9.86533 23.1056 9.48096 22.631 9.48096Z" fill="#191919" stroke="#191919" stroke-width="0.1" stroke-miterlimit="10"/>
</svg>
