<svg width="24" height="24" viewBox="0 0 24 24" fill="none" xmlns="http://www.w3.org/2000/svg">
<circle opacity="0.9" cx="12" cy="12" r="11.5" fill="#191919" stroke="white"/>
<path d="M9.27056 6.22293C9.31048 6.09974 9.33045 6.03814 9.3525 5.98379C9.57827 5.42731 10.0888 5.04866 10.6734 5.00433C10.7306 5 10.7937 5 10.9199 5H13.08C13.2063 5 13.2694 5 13.3266 5.00433C13.9112 5.04866 14.422 5.42731 14.6478 5.98379C14.6698 6.03814 14.6899 6.09976 14.7298 6.22295C14.7658 6.3339 14.7838 6.38938 14.7928 6.43304C14.8888 6.89563 14.5757 7.34239 14.1186 7.39502C14.0755 7.39999 14.0185 7.4 13.9048 7.4H10.0951C9.98135 7.4 9.92475 7.39999 9.88162 7.39502C9.42461 7.34239 9.11154 6.89563 9.20752 6.43304M9.27056 6.22293C9.23461 6.33388 9.21658 6.38938 9.20752 6.43304M9.27056 6.22293L9.2697 6.22559C9.23432 6.33477 9.21651 6.38973 9.20752 6.43304M12 14.6C10.7113 14.6 9.66667 13.5255 9.66667 12.2C9.66667 10.8745 10.7113 9.8 12 9.8C13.2887 9.8 14.3333 10.8745 14.3333 12.2C14.3333 13.5255 13.2887 14.6 12 14.6ZM19 9.96001V14.44C19 15.3361 19.0002 15.7841 18.8306 16.1264C18.6815 16.4274 18.4432 16.6722 18.1505 16.8256C17.8177 17 17.3825 17 16.5113 17H7.48904C6.61785 17 6.18193 17 5.84918 16.8256C5.55648 16.6722 5.31868 16.4274 5.16955 16.1264C5 15.7841 5 15.3361 5 14.44V9.96001C5 9.06393 5 8.61589 5.16955 8.27363C5.31868 7.97257 5.55648 7.72779 5.84918 7.57439C6.18193 7.4 6.61785 7.4 7.48904 7.4H16.5113C17.3825 7.4 17.8177 7.4 18.1505 7.57439C18.4432 7.72779 18.6815 7.97257 18.8306 8.27363C19.0002 8.61589 19 9.06393 19 9.96001Z" stroke="white" stroke-width="0.8" stroke-linecap="round" stroke-linejoin="round"/>
</svg>
