<svg width="28" height="51" viewBox="0 0 28 51" fill="none" xmlns="http://www.w3.org/2000/svg">
<path d="M6.32698 2.63806L6.95069 2.95585L6.32698 2.63806ZM7.6377 1.32698L7.95549 1.95069L7.6377 1.32698ZM7.6377 27.673L7.95549 27.0493H7.95549L7.6377 27.673ZM6.32698 26.362L5.70328 26.6797L6.32698 26.362ZM20.6733 26.362L21.297 26.6797L20.6733 26.362ZM19.3617 27.673L19.0439 27.0493L19.3617 27.673ZM20.6733 2.63806L20.0496 2.95585L20.6733 2.63806ZM19.3617 1.32698L19.6795 0.703276V0.703276L19.3617 1.32698ZM20.3 5.80002V23.2H21.7V5.80002H20.3ZM16.2003 27.3H10.8003V28.7H16.2003V27.3ZM6.7 23.2V5.80002H5.3V23.2H6.7ZM10.8003 1.7H16.2003V0.3H10.8003V1.7ZM6.7 5.80002C6.7 4.94839 6.70054 4.35177 6.73855 3.88663C6.77588 3.42967 6.84585 3.1616 6.95069 2.95585L5.70328 2.32027C5.48113 2.75626 5.38761 3.22909 5.3432 3.77263C5.29946 4.308 5.3 4.97149 5.3 5.80002H6.7ZM10.8003 0.3C9.97176 0.3 9.30812 0.299456 8.7726 0.343196C8.22896 0.3876 7.75594 0.481104 7.3199 0.703276L7.95549 1.95069C8.16119 1.84588 8.42939 1.77589 8.88657 1.73855C9.35188 1.70054 9.94867 1.7 10.8003 1.7V0.3ZM6.95069 2.95585C7.17129 2.5229 7.5229 2.1711 7.95549 1.95069L7.3199 0.703276C6.62352 1.0581 6.05792 1.62425 5.70328 2.32027L6.95069 2.95585ZM10.8003 27.3C9.94868 27.3 9.35189 27.2994 8.88659 27.2614C8.42941 27.2241 8.1612 27.1541 7.95549 27.0493L7.3199 28.2967C7.75593 28.5188 8.22894 28.6124 8.77259 28.6568C9.30811 28.7005 9.97175 28.7 10.8003 28.7V27.3ZM5.3 23.2C5.3 24.0285 5.29946 24.692 5.3432 25.2274C5.38761 25.7709 5.48113 26.2438 5.70328 26.6797L6.95069 26.0442C6.84585 25.8384 6.77588 25.5703 6.73855 25.1134C6.70054 24.6483 6.7 24.0516 6.7 23.2H5.3ZM7.95549 27.0493C7.52287 26.8288 7.17127 26.4771 6.95069 26.0442L5.70328 26.6797C6.05793 27.3758 6.62355 27.9419 7.3199 28.2967L7.95549 27.0493ZM20.3 23.2C20.3 24.0517 20.2995 24.6483 20.2616 25.1135C20.2243 25.5705 20.1544 25.8385 20.0496 26.0442L21.297 26.6797C21.5192 26.2437 21.6127 25.7708 21.657 25.2273C21.7006 24.692 21.7 24.0285 21.7 23.2H20.3ZM16.2003 28.7C17.0288 28.7 17.6922 28.7005 18.2274 28.6568C18.7709 28.6123 19.2435 28.5188 19.6795 28.2967L19.0439 27.0493C18.8381 27.1541 18.5701 27.2241 18.1134 27.2614C17.6484 27.2994 17.0519 27.3 16.2003 27.3V28.7ZM20.0496 26.0442C19.8293 26.4766 19.477 26.8286 19.0439 27.0493L19.6795 28.2967C20.3754 27.9421 20.9422 27.3763 21.297 26.6797L20.0496 26.0442ZM21.7 5.80002C21.7 4.97156 21.7006 4.30806 21.657 3.77274C21.6127 3.22923 21.5192 2.75634 21.297 2.32027L20.0496 2.95585C20.1544 3.16152 20.2243 3.42952 20.2616 3.88652C20.2995 4.3517 20.3 4.94832 20.3 5.80002H21.7ZM16.2003 1.7C17.0519 1.7 17.6484 1.70054 18.1134 1.73855C18.5701 1.77588 18.8381 1.84584 19.0439 1.95069L19.6795 0.703276C19.2435 0.481145 18.7709 0.387613 18.2274 0.343199C17.6922 0.299455 17.0288 0.3 16.2003 0.3V1.7ZM21.297 2.32027C20.9422 1.62378 20.3754 1.05786 19.6795 0.703276L19.0439 1.95069C19.4769 2.17134 19.8293 2.52337 20.0496 2.95585L21.297 2.32027Z" fill="#191919"/>
<path d="M9.5 5.5V4C8.67157 4 8 4.67157 8 5.5H9.5ZM9.503 5.5L11.0026 5.53503C11.012 5.13125 10.8582 4.74072 10.576 4.4518C10.2937 4.16288 9.9069 4 9.503 4V5.5ZM9.50293 5.503L9.51367 7.00296C10.3243 6.99716 10.9836 6.34842 11.0025 5.53804L9.50293 5.503ZM9.5 5.50302H8C8 5.90271 8.15951 6.28587 8.44314 6.56747C8.72678 6.84908 9.11107 7.00585 9.51074 7.00298L9.5 5.50302ZM9.5 7H9.503V4H9.5V7ZM8.00341 5.46497L8.00334 5.46797L11.0025 5.53804L11.0026 5.53503L8.00341 5.46497ZM9.49219 4.00304L9.48926 4.00306L9.51074 7.00298L9.51367 7.00296L9.49219 4.00304ZM11 5.50302V5.5H8V5.50302H11Z" fill="#191919"/>
<path d="M9.5 9V8.5C9.22386 8.5 9 8.72386 9 9H9.5ZM9.503 9L10.0029 9.01168C10.006 8.87708 9.95474 8.74691 9.86066 8.6506C9.76658 8.55429 9.63763 8.5 9.503 8.5V9ZM9.50293 9.003L9.50651 9.50299C9.77671 9.50105 9.99648 9.28481 10.0028 9.01468L9.50293 9.003ZM9.5 9.00302H9C9 9.13625 9.05317 9.26397 9.14771 9.35784C9.24226 9.45171 9.37036 9.50396 9.50358 9.50301L9.5 9.00302ZM9.5 9.5H9.503V8.5H9.5V9.5ZM9.00314 8.98832L9.00307 8.99132L10.0028 9.01468L10.0029 9.01168L9.00314 8.98832ZM9.49935 8.50301L9.49642 8.50303L9.50358 9.50301L9.50651 9.50299L9.49935 8.50301ZM10 9.00302V9H9V9.00302H10Z" fill="#191919"/>
<path d="M9.5 11V10.5C9.22386 10.5 9 10.7239 9 11H9.5ZM9.503 11L10.0029 11.0117C10.006 10.8771 9.95474 10.7469 9.86066 10.6506C9.76658 10.5543 9.63763 10.5 9.503 10.5V11ZM9.50293 11.003L9.50651 11.503C9.77671 11.5011 9.99648 11.2848 10.0028 11.0147L9.50293 11.003ZM9.5 11.003H9C9 11.1362 9.05317 11.264 9.14771 11.3578C9.24226 11.4517 9.37036 11.504 9.50358 11.503L9.5 11.003ZM9.5 11.5H9.503V10.5H9.5V11.5ZM9.00314 10.9883L9.00307 10.9913L10.0028 11.0147L10.0029 11.0117L9.00314 10.9883ZM9.49935 10.503L9.49642 10.503L9.50358 11.503L9.50651 11.503L9.49935 10.503ZM10 11.003V11H9V11.003H10Z" fill="#191919"/>
<path d="M9.503 5.5H9.5V5.50302L9.50293 5.503L9.503 5.5Z" stroke="#6F8EF8" stroke-width="1.4" stroke-linecap="round" stroke-linejoin="round"/>
<path d="M7.60117 39.69V44.32H8.59117V39.69H7.60117ZM6.29117 41.66V42.5H7.90117V41.66H6.29117ZM5.60117 39.86V44.26H6.58117V39.86H5.60117ZM3.73117 40.24V40.63C3.73117 42.11 2.83117 43.22 0.881172 43.87L1.37117 44.64C3.64117 43.83 4.79117 42.39 4.79117 40.24H3.73117ZM1.27117 40.24V41.07H4.17117V40.24H1.27117ZM2.48117 44.72V45.54H7.57117V46.28H2.50117V48.27H3.54117V47.06H8.59117V44.72H2.48117ZM2.50117 47.89V48.72H8.92117V47.89H2.50117ZM16.3804 39.7V45.3H17.4304V39.7H16.3804ZM14.8004 41.85V42.7H16.6504V41.85H14.8004ZM11.2504 45.77V46.61H16.3804V48.84H17.4304V45.77H11.2504ZM10.2204 44.06V44.91H10.9404C12.5604 44.91 13.7104 44.88 15.0704 44.66L14.9904 43.81C13.6604 44.03 12.5404 44.06 10.9404 44.06H10.2204ZM10.2004 40.23V41.07H13.2504V42.12H10.2204V44.66H11.2604V42.92H14.2804V40.23H10.2004ZM21.1796 40.44V41.94C21.1796 43.69 20.2396 45.45 18.7796 46.11L19.4096 46.98C21.0496 46.18 22.0396 44.15 22.0396 41.94V40.44H21.1796ZM21.3796 40.44V41.94C21.3796 44.07 22.3696 46.02 23.9796 46.78L24.5996 45.94C23.1596 45.3 22.2296 43.62 22.2296 41.94V40.44H21.3796ZM25.3296 39.68V48.84H26.3796V39.68H25.3296Z" fill="#424242"/>
</svg>
