<svg width="340" height="48" viewBox="0 0 340 48" fill="none" xmlns="http://www.w3.org/2000/svg">
<rect width="340" height="48" rx="4" fill="#03C75A"/>
<path d="M64.2076 24.6395L57.5339 15H52V33H57.7924V23.3605L64.4661 33H70V15H64.2076V24.6395Z" fill="white"/>
<path d="M103.19 19.668V27.144H104.646V19.668H103.19ZM103.19 26.752V27.998H104.044C105.626 27.998 107.04 27.928 108.65 27.606L108.454 26.36C106.9 26.682 105.556 26.752 104.044 26.752H103.19ZM112.164 18.366V31.162H113.578V18.366H112.164ZM106.746 22.552V23.742H109.826V22.552H106.746ZM109.462 18.632V30.546H110.834V18.632H109.462ZM124.581 18.352V31.176H126.051V18.352H124.581ZM119.233 19.304C117.329 19.304 115.943 21.054 115.943 23.812C115.943 26.57 117.329 28.334 119.233 28.334C121.151 28.334 122.537 26.57 122.537 23.812C122.537 21.054 121.151 19.304 119.233 19.304ZM119.233 20.634C120.353 20.634 121.123 21.824 121.123 23.812C121.123 25.814 120.353 27.018 119.233 27.018C118.113 27.018 117.343 25.814 117.343 23.812C117.343 21.824 118.113 20.634 119.233 20.634ZM137.558 18.352V31.176H139.014V18.352H137.558ZM134.394 23V24.19H137.978V23H134.394ZM128.892 19.36V28.054H134.884V19.36H133.442V22.594H130.348V19.36H128.892ZM130.348 23.742H133.442V26.864H130.348V23.742ZM147.827 19.304C145.923 19.304 144.551 21.054 144.551 23.812C144.551 26.57 145.923 28.334 147.827 28.334C149.731 28.334 151.103 26.57 151.103 23.812C151.103 21.054 149.731 19.304 147.827 19.304ZM147.827 20.634C148.933 20.634 149.703 21.824 149.703 23.812C149.703 25.814 148.933 27.018 147.827 27.018C146.721 27.018 145.951 25.814 145.951 23.812C145.951 21.824 146.721 20.634 147.827 20.634ZM152.867 18.366V31.162H154.337V18.366H152.867ZM154.001 23.35V24.568H156.325V23.35H154.001ZM166.362 18.352V31.176H167.832V18.352H166.362ZM161.014 19.304C159.11 19.304 157.724 21.054 157.724 23.812C157.724 26.57 159.11 28.334 161.014 28.334C162.932 28.334 164.318 26.57 164.318 23.812C164.318 21.054 162.932 19.304 161.014 19.304ZM161.014 20.634C162.134 20.634 162.904 21.824 162.904 23.812C162.904 25.814 162.134 27.018 161.014 27.018C159.894 27.018 159.124 25.814 159.124 23.812C159.124 21.824 159.894 20.634 161.014 20.634ZM179.241 18.366V31.19H180.711V18.366H179.241ZM170.981 26.836V28.068H172.045C174.691 28.068 176.343 27.998 178.191 27.648L178.051 26.43C176.231 26.766 174.649 26.836 172.045 26.836H170.981ZM170.981 19.542V27.298H172.437V20.746H177.071V19.542H170.981ZM183.062 28.46V29.664H194.654V28.46H183.062ZM188.102 25.856V28.95H189.558V25.856H188.102ZM184.42 19.262V20.438H191.812V22.146H184.448V25.688H185.904V23.308H193.268V19.262H184.42ZM184.448 25.086V26.276H193.562V25.086H184.448ZM199.085 28.46V29.664H210.677V28.46H199.085ZM204.125 25.856V28.95H205.581V25.856H204.125ZM200.443 19.262V20.438H207.835V22.146H200.471V25.688H201.927V23.308H209.291V19.262H200.443ZM200.471 25.086V26.276H209.585V25.086H200.471ZM213.182 19.64V20.816H221.358V19.64H213.182ZM211.964 28.18V29.384H223.528V28.18H211.964ZM220.574 19.64V21.026C220.574 22.678 220.574 24.554 220.084 27.088L221.554 27.228C222.03 24.526 222.03 22.734 222.03 21.026V19.64H220.574ZM233.915 18.38V27.648H235.385V18.38H233.915ZM227.027 29.72V30.91H235.749V29.72H227.027ZM227.027 26.71V30.168H228.497V26.71H227.027ZM228.483 19.234C226.551 19.234 225.081 20.55 225.081 22.426C225.081 24.274 226.551 25.618 228.483 25.618C230.415 25.618 231.871 24.274 231.871 22.426C231.871 20.55 230.415 19.234 228.483 19.234ZM228.483 20.494C229.603 20.494 230.443 21.25 230.443 22.426C230.443 23.574 229.603 24.33 228.483 24.33C227.363 24.33 226.509 23.574 226.509 22.426C226.509 21.25 227.363 20.494 228.483 20.494Z" fill="white"/>
</svg>
