<svg width="24" height="43" viewBox="0 0 24 43" fill="none" xmlns="http://www.w3.org/2000/svg">
<path d="M5.14078 34.05V34.52C5.14078 35.99 4.44078 37.56 3.21078 38.28L3.71078 38.91C5.03078 38.12 5.78078 36.31 5.78078 34.52V34.05H5.14078ZM5.29078 34.05V34.52C5.29078 36.26 6.07078 37.97 7.40078 38.71L7.87078 38.09C6.66078 37.43 5.93078 35.95 5.93078 34.52V34.05H5.29078ZM3.44078 33.42V34.1H7.63078V33.42H3.44078ZM5.14078 32.06V33.93H5.94078V32.06H5.14078ZM10.2108 31.74V40.78H11.0008V31.74H10.2108ZM8.78078 35.38V36.08H10.5208V35.38H8.78078ZM8.24078 31.93V40.33H9.02078V31.93H8.24078ZM13.02 36.03V36.7H13.75C15.72 36.7 16.82 36.67 18.13 36.44L18.04 35.78C16.77 35.99 15.7 36.03 13.75 36.03H13.02ZM13.02 32.4V36.37H13.84V33.07H17.32V32.4H13.02ZM13.57 34.19V34.85H17.07V34.19H13.57ZM19.07 31.75V37.34H19.91V31.75H19.07ZM16.92 37.47C15.03 37.47 13.88 38.07 13.88 39.11C13.88 40.16 15.03 40.76 16.92 40.76C18.8 40.76 19.95 40.16 19.95 39.11C19.95 38.07 18.8 37.47 16.92 37.47ZM16.92 38.13C18.29 38.13 19.12 38.49 19.12 39.11C19.12 39.75 18.29 40.11 16.92 40.11C15.54 40.11 14.71 39.75 14.71 39.11C14.71 38.49 15.54 38.13 16.92 38.13Z" fill="#9E9E9E"/>
<path d="M4.53288 19.9487L4.03312 19.324L4.03312 19.324L4.53288 19.9487ZM1.75432 2.64905L2.46712 3.01224H2.46712L1.75432 2.64905ZM2.77376 1.62932L3.13696 2.34212L2.77376 1.62932ZM2.66781 21.1143L2.66694 20.3143L2.66781 21.1143ZM1.75487 20.6755L2.3801 20.1764L1.75487 20.6755ZM7.68254 17.756L7.84337 18.5396H7.84337L7.68254 17.756ZM7.09034 17.9638L6.72638 17.2514L7.09034 17.9638ZM22.2459 16.4344L21.5331 16.0712L22.2459 16.4344ZM21.2258 17.454L20.8626 16.7412L21.2258 17.454ZM22.2459 2.64905L21.5331 3.01224L22.2459 2.64905ZM21.2258 1.62932L21.5889 0.916513L21.2258 1.62932ZM21.7 5.10828V13.9749H23.3V5.10828H21.7ZM18.7667 16.9083H8.64298V18.5083H18.7667V16.9083ZM5.81108 17.9017L4.03312 19.324L5.03263 20.5734L6.81059 19.1511L5.81108 17.9017ZM2.3 18.4911V5.10828H0.7V18.4911H2.3ZM5.23356 2.175H18.7669V0.575H5.23356V2.175ZM2.3 5.10828C2.3 4.44168 2.30062 3.98987 2.32913 3.64094C2.35688 3.30135 2.407 3.13024 2.46712 3.01224L1.04151 2.28586C0.847317 2.66699 0.77028 3.07209 0.734447 3.51064C0.699378 3.93984 0.7 4.46808 0.7 5.10828H2.3ZM5.23356 0.575C4.59336 0.575 4.06499 0.574378 3.63566 0.609445C3.19705 0.64527 2.79176 0.722289 2.41057 0.916513L3.13696 2.34212C3.2549 2.28203 3.42611 2.23189 3.76591 2.20413C4.115 2.17562 4.56697 2.175 5.23356 2.175V0.575ZM2.46712 3.01224C2.61423 2.72352 2.84865 2.48902 3.13696 2.34212L2.41057 0.916513C1.82079 1.21702 1.34181 1.69649 1.04151 2.28586L2.46712 3.01224ZM4.03312 19.324C3.53526 19.7223 3.20455 19.9858 2.9483 20.1552C2.67965 20.3328 2.62366 20.3143 2.66694 20.3143L2.66867 21.9143C3.12048 21.9138 3.5116 21.7009 3.83064 21.49C4.16207 21.2709 4.55963 20.9518 5.03263 20.5734L4.03312 19.324ZM0.7 18.4911C0.7 19.0968 0.699205 19.6065 0.735138 20.0022C0.769729 20.383 0.847756 20.8214 1.12963 21.1745L2.3801 20.1764C2.40711 20.2102 2.3577 20.1781 2.32858 19.8574C2.30079 19.5515 2.3 19.1287 2.3 18.4911H0.7ZM2.66694 20.3143C2.55537 20.3144 2.44982 20.2637 2.3801 20.1764L1.12963 21.1745C1.50322 21.6426 2.06965 21.9149 2.66867 21.9143L2.66694 20.3143ZM8.64298 16.9083C8.18968 16.9083 7.85181 16.9046 7.5217 16.9723L7.84337 18.5396C7.97752 18.5121 8.12554 18.5083 8.64298 18.5083V16.9083ZM6.81059 19.1511C7.21453 18.8279 7.33231 18.7386 7.4543 18.6762L6.72638 17.2514C6.42631 17.4047 6.16517 17.6184 5.81108 17.9017L6.81059 19.1511ZM7.5217 16.9723C7.24486 17.0291 6.97753 17.1231 6.72638 17.2514L7.4543 18.6762C7.57759 18.6133 7.70832 18.5674 7.84337 18.5396L7.5217 16.9723ZM21.7 13.9749C21.7 14.6416 21.6994 15.0935 21.671 15.4425C21.6433 15.7822 21.5932 15.9533 21.5331 16.0712L22.9587 16.7976C23.153 16.4163 23.2299 16.0111 23.2657 15.5725C23.3007 15.1433 23.3 14.6151 23.3 13.9749H21.7ZM18.7667 18.5083C19.4069 18.5083 19.9351 18.5089 20.3643 18.4739C20.8028 18.438 21.2078 18.361 21.5889 18.1668L20.8626 16.7412C20.7445 16.8013 20.5734 16.8514 20.2339 16.8792C19.8851 16.9077 19.4333 16.9083 18.7667 16.9083V18.5083ZM21.5331 16.0712C21.3863 16.3593 21.1515 16.594 20.8626 16.7412L21.5889 18.1668C22.1781 17.8666 22.6581 17.3875 22.9587 16.7976L21.5331 16.0712ZM23.3 5.10828C23.3 4.46816 23.3007 3.93992 23.2657 3.51077C23.2299 3.07226 23.153 2.66708 22.9587 2.28586L21.5331 3.01224C21.5932 3.13015 21.6433 3.30118 21.671 3.64081C21.6994 3.9898 21.7 4.4416 21.7 5.10828H23.3ZM18.7669 2.175C19.4335 2.175 19.8852 2.17562 20.234 2.20413C20.5735 2.23187 20.7445 2.28198 20.8626 2.34212L21.5889 0.916513C21.2078 0.722336 20.8029 0.645286 20.3644 0.609448C19.9352 0.574377 19.4071 0.575 18.7669 0.575V2.175ZM22.9587 2.28586C22.6582 1.69596 22.1782 1.21675 21.5889 0.916513L20.8626 2.34212C21.1514 2.4893 21.3863 2.72405 21.5331 3.01224L22.9587 2.28586Z" fill="#191919"/>
</svg>
