<svg width="340" height="48" viewBox="0 0 340 48" fill="none" xmlns="http://www.w3.org/2000/svg">
<rect width="340" height="48" rx="4" fill="black"/>
<path d="M124.332 23.4C124.668 22.28 124.99 21.146 125.284 19.97H125.354C125.662 21.132 125.97 22.28 126.32 23.4L126.726 24.786H123.912L124.332 23.4ZM121 29H122.652L123.534 26.06H127.118L127.986 29H129.708L126.292 18.682H124.416L121 29ZM131.067 29H132.691V25.094H134.245C136.485 25.094 138.123 24.058 138.123 21.804C138.123 19.48 136.485 18.682 134.189 18.682H131.067V29ZM132.691 23.792V19.998H134.035C135.673 19.998 136.527 20.446 136.527 21.804C136.527 23.162 135.743 23.792 134.091 23.792H132.691ZM140.131 29H141.755V25.094H143.309C145.549 25.094 147.187 24.058 147.187 21.804C147.187 19.48 145.549 18.682 143.253 18.682H140.131V29ZM141.755 23.792V19.998H143.099C144.737 19.998 145.591 20.446 145.591 21.804C145.591 23.162 144.807 23.792 143.155 23.792H141.755ZM149.196 29H155.188V27.628H150.82V18.682H149.196V29ZM157.003 29H163.247V27.628H158.627V24.296H162.407V22.924H158.627V20.054H163.093V18.682H157.003V29ZM171.179 27.404V25.248H175.127V24.086H167.553V22.322H174.847V18.318H166.111V19.48H173.419V21.174H166.139V25.248H169.737V27.404H164.753V28.594H176.205V27.404H171.179ZM187.203 27.404V25.248H191.151V24.086H183.577V22.322H190.871V18.318H182.135V19.48H189.443V21.174H182.163V25.248H185.761V27.404H180.777V28.594H192.229V27.404H187.203ZM202.181 20.054C202.181 21.692 202.181 23.554 201.691 26.046L203.147 26.2C203.623 23.526 203.623 21.748 203.623 20.054V18.696H194.873V19.858H202.181V20.054ZM193.655 27.124V28.314H205.093V27.124H193.655ZM216.95 17.436H215.508V26.62H216.95V17.436ZM208.186 21.44C208.186 20.278 209.012 19.522 210.132 19.522C211.238 19.522 212.078 20.278 212.078 21.44C212.078 22.588 211.238 23.358 210.132 23.358C209.012 23.358 208.186 22.588 208.186 21.44ZM213.478 21.44C213.478 19.592 212.036 18.276 210.132 18.276C208.228 18.276 206.772 19.592 206.772 21.44C206.772 23.274 208.228 24.604 210.132 24.604C212.036 24.604 213.478 23.274 213.478 21.44ZM210.146 28.664V25.696H208.69V29.84H217.314V28.664H210.146Z" fill="white"/>
<path d="M68.6437 29.3654C68.3385 30.0991 67.9772 30.7744 67.5586 31.3953C66.9881 32.2418 66.5209 32.8277 66.1609 33.153C65.6027 33.6871 65.0048 33.9606 64.3644 33.9762C63.9047 33.9762 63.3504 33.8401 62.705 33.564C62.0576 33.2891 61.4626 33.153 60.9186 33.153C60.348 33.153 59.7361 33.2891 59.0815 33.564C58.426 33.8401 57.8979 33.9839 57.4942 33.9982C56.8801 34.0254 56.2681 33.7441 55.6571 33.153C55.2672 32.7992 54.7795 32.1925 54.1952 31.3331C53.5683 30.4153 53.0529 29.3511 52.6492 28.1378C52.2168 26.8273 52 25.5583 52 24.3297C52 22.9223 52.2923 21.7085 52.8777 20.6913C53.3377 19.8743 53.9498 19.2298 54.7158 18.7567C55.4818 18.2835 56.3095 18.0424 57.2009 18.027C57.6886 18.027 58.3282 18.184 59.123 18.4925C59.9156 18.802 60.4245 18.959 60.6476 18.959C60.8144 18.959 61.3798 18.7755 62.3382 18.4095C63.2445 18.0702 64.0094 17.9297 64.636 17.985C66.334 18.1276 67.6097 18.8241 68.4581 20.0789C66.9395 21.0363 66.1883 22.3773 66.2032 24.0975C66.2169 25.4375 66.6841 26.5525 67.6022 27.4378C68.0183 27.8488 68.483 28.1663 69 28.3919C68.8879 28.7302 68.7695 29.0543 68.6437 29.3654ZM64.7494 13.4201C64.7494 14.4704 64.3806 15.451 63.6456 16.3586C62.7586 17.4376 61.6857 18.0611 60.5223 17.9627C60.5075 17.8367 60.4989 17.7041 60.4989 17.5648C60.4989 16.5565 60.9207 15.4775 61.6698 14.5953C62.0438 14.1486 62.5194 13.7772 63.0962 13.4809C63.6718 13.189 64.2162 13.0276 64.7282 13C64.7431 13.1404 64.7494 13.2808 64.7494 13.4201Z" fill="white"/>
</svg>
