<svg width="23" height="43" viewBox="0 0 23 43" fill="none" xmlns="http://www.w3.org/2000/svg">
<path d="M3.85078 32.28V33.12H6.84078C6.66078 34.51 5.44078 35.6 3.37078 36.16L3.79078 36.98C6.40078 36.24 7.95078 34.62 7.95078 32.28H3.85078ZM5.92078 38.04H9.78078V39.83H5.92078V38.04ZM4.91078 40.66H10.7908V37.22H4.91078V40.66ZM9.76078 31.73V33.98H7.97078V34.83H9.76078V36.85H10.7908V31.73H9.76078ZM17.03 35.91C15.86 35.44 15.28 34.42 15.28 33.41V32.26H14.28V33.41C14.28 34.44 13.67 35.59 12.46 36.14L13.01 36.93C13.87 36.55 14.46 35.85 14.79 35.02C15.12 35.75 15.68 36.36 16.48 36.69L17.03 35.91ZM14.03 38.49H19.12V40.78H20.15V37.66H14.03V38.49ZM19.17 31.74V34.02H18.22V31.89H17.25V37.16H18.22V34.86H19.17V37.21H20.15V31.74H19.17Z" fill="#191919"/>
<path d="M9.90909 18.8182C14.8294 18.8182 18.8182 14.8294 18.8182 9.90909C18.8182 4.98874 14.8294 1 9.90909 1C4.98874 1 1 4.98874 1 9.90909C1 14.8294 4.98874 18.8182 9.90909 18.8182Z" fill="#191919"/>
<path d="M18.0182 9.90909C18.0182 14.3876 14.3876 18.0182 9.90909 18.0182V19.6182C15.2713 19.6182 19.6182 15.2713 19.6182 9.90909H18.0182ZM9.90909 18.0182C5.43056 18.0182 1.8 14.3876 1.8 9.90909H0.2C0.2 15.2713 4.54691 19.6182 9.90909 19.6182V18.0182ZM1.8 9.90909C1.8 5.43056 5.43056 1.8 9.90909 1.8V0.2C4.54691 0.2 0.2 4.54691 0.2 9.90909H1.8ZM9.90909 1.8C14.3876 1.8 18.0182 5.43056 18.0182 9.90909H19.6182C19.6182 4.54691 15.2713 0.2 9.90909 0.2V1.8Z" fill="#191919"/>
<path d="M16.8391 15.707C16.5267 15.3946 16.0202 15.3946 15.7078 15.707C15.3953 16.0194 15.3953 16.526 15.7078 16.8384L16.8391 15.707ZM21.435 22.5657C21.7474 22.8781 22.254 22.8781 22.5664 22.5657C22.8788 22.2532 22.8788 21.7467 22.5664 21.4343L21.435 22.5657ZM15.7078 16.8384L21.435 22.5657L22.5664 21.4343L16.8391 15.707L15.7078 16.8384Z" fill="#191919"/>
</svg>
