<svg width="119" height="40" viewBox="0 0 119 40" fill="none" xmlns="http://www.w3.org/2000/svg">
<rect x="0.75" y="0.25" width="117.5" height="39.5" rx="3.75" stroke="#BDBDBD" stroke-width="0.5"/>
<path d="M46.4214 16.204V17.068C46.4214 18.604 45.3174 20.02 43.6854 20.596L44.2014 21.376C46.0254 20.728 47.2494 19.06 47.2494 17.068V16.204H46.4214ZM46.6134 16.204V17.068C46.6134 18.964 47.8614 20.56 49.6614 21.172L50.1774 20.392C48.5694 19.852 47.4414 18.532 47.4414 17.068V16.204H46.6134ZM51.4254 15.088V21.652H52.4334V15.088H51.4254ZM45.1854 22.228V23.044H51.4254V25.936H52.4334V22.228H45.1854ZM43.9494 15.844V16.648H49.8894V15.844H43.9494ZM62.5005 15.088V25.936H63.4965V15.088H62.5005ZM59.9685 19.432V20.26H62.9445V19.432H59.9685ZM59.0205 16.252V16.42C59.0205 19.252 57.7245 21.556 54.5685 23.104L55.1205 23.884C58.7205 22.084 60.0045 19.348 60.0045 16.252H59.0205ZM55.0365 16.252V17.068H59.5485V16.252H55.0365ZM65.9675 22.516V23.344H66.6875C68.0315 23.344 69.2555 23.308 70.7555 23.044L70.6715 22.216C69.2075 22.468 68.0075 22.516 66.6875 22.516H65.9675ZM65.9435 16.264V17.08H69.0395V19.264H65.9675V22.828H66.9395V20.08H70.0115V16.264H65.9435ZM73.8635 15.088V25.936H74.8235V15.088H73.8635ZM72.0275 19.372V20.188H74.1155V19.372H72.0275ZM71.4035 15.328V25.384H72.3395V15.328H71.4035Z" fill="#BDBDBD"/>
</svg>
