<svg width="46" height="47" viewBox="0 0 46 47" fill="none" xmlns="http://www.w3.org/2000/svg">
<path d="M1.78547 39.74V40.59H8.17547V39.74H1.78547ZM0.815469 42.87V43.72H9.09547V42.87H0.815469ZM4.41547 40.25V43.12H5.46547V40.25H4.41547ZM1.78547 36.43V40.11H2.83547V36.43H1.78547ZM10.8347 40.52V41.35H17.1747V40.52H10.8347ZM9.81469 42.85V43.71H18.0947V42.85H9.81469ZM10.8347 36.42V40.76H11.8947V37.27H17.0847V36.42H10.8347ZM11.5647 38.45V39.27H16.8847V38.45H11.5647ZM22.4039 40.71V42.2H23.4439V40.71H22.4039ZM18.8039 40.11V40.95H27.0639V40.11H18.8039ZM19.7239 41.88V42.72H25.0139V44.83H26.0539V41.88H19.7239ZM19.8839 35.91V39.38H26.0039V35.91H24.9639V36.84H20.9139V35.91H19.8839ZM20.9139 37.64H24.9639V38.55H20.9139V37.64ZM30.1931 41.15C30.6131 41.15 30.9631 40.8 30.9631 40.34C30.9631 39.86 30.6131 39.52 30.1931 39.52C29.7531 39.52 29.4231 39.86 29.4231 40.34C29.4231 40.8 29.7531 41.15 30.1931 41.15ZM33.8553 44H35.0253V41.21H36.1353C37.7353 41.21 38.9053 40.48 38.9053 38.87C38.9053 37.2 37.7353 36.64 36.0953 36.64H33.8553V44ZM35.0253 40.28V37.58H35.9753C37.1553 37.58 37.7553 37.89 37.7553 38.87C37.7553 39.83 37.1953 40.28 36.0253 40.28H35.0253ZM43.0097 44.14C43.9697 44.14 44.7197 43.76 45.3097 43.07L44.6797 42.34C44.2497 42.82 43.7297 43.12 43.0597 43.12C41.7597 43.12 40.9397 42.05 40.9397 40.3C40.9397 38.58 41.8197 37.52 43.0897 37.52C43.6897 37.52 44.1497 37.79 44.5297 38.18L45.1497 37.43C44.6997 36.95 43.9897 36.51 43.0697 36.51C41.2097 36.51 39.7397 37.94 39.7397 40.34C39.7397 42.76 41.1697 44.14 43.0097 44.14Z" fill="#424242"/>
<path d="M35 19V19.7C35.1857 19.7 35.3637 19.6263 35.495 19.495C35.6263 19.3637 35.7 19.1857 35.7 19H35ZM11.327 2.63806L11.9507 2.95585L11.327 2.63806ZM12.6377 1.32698L12.9555 1.95069L12.6377 1.32698ZM34.6733 2.63806L34.0496 2.95585L34.6733 2.63806ZM33.3617 1.32698L33.6795 0.703276V0.703276L33.3617 1.32698ZM35.75 22.8H10.25V24.2H35.75V22.8ZM10.25 19.7H35.75V18.3H10.25V19.7ZM8.7 21.25C8.7 20.394 9.39396 19.7 10.25 19.7V18.3C8.62076 18.3 7.3 19.6208 7.3 21.25H8.7ZM10.25 22.8C9.39396 22.8 8.7 22.106 8.7 21.25H7.3C7.3 22.8792 8.62076 24.2 10.25 24.2V22.8ZM37.3 21.25C37.3 22.106 36.606 22.8 35.75 22.8V24.2C37.3792 24.2 38.7 22.8792 38.7 21.25H37.3ZM38.7 21.25C38.7 19.6208 37.3792 18.3 35.75 18.3V19.7C36.606 19.7 37.3 20.394 37.3 21.25H38.7ZM34.3 5.80002V19H35.7V5.80002H34.3ZM35 18.3L11 18.3L11 19.7L35 19.7V18.3ZM11.7 19V5.80002H10.3V19H11.7ZM15.8003 1.7H30.2003V0.3H15.8003V1.7ZM11.7 5.80002C11.7 4.94839 11.7005 4.35177 11.7385 3.88663C11.7759 3.42967 11.8459 3.1616 11.9507 2.95585L10.7033 2.32027C10.4811 2.75626 10.3876 3.22909 10.3432 3.77263C10.2995 4.308 10.3 4.97149 10.3 5.80002H11.7ZM15.8003 0.3C14.9718 0.3 14.3081 0.299456 13.7726 0.343196C13.229 0.3876 12.7559 0.481104 12.3199 0.703276L12.9555 1.95069C13.1612 1.84588 13.4294 1.77589 13.8866 1.73855C14.3519 1.70054 14.9487 1.7 15.8003 1.7V0.3ZM11.9507 2.95585C12.1713 2.5229 12.5229 2.1711 12.9555 1.95069L12.3199 0.703276C11.6235 1.0581 11.0579 1.62425 10.7033 2.32027L11.9507 2.95585ZM35.7 5.80002C35.7 4.97156 35.7006 4.30806 35.657 3.77274C35.6127 3.22923 35.5192 2.75634 35.297 2.32027L34.0496 2.95585C34.1544 3.16152 34.2243 3.42952 34.2616 3.88652C34.2995 4.3517 34.3 4.94832 34.3 5.80002H35.7ZM30.2003 1.7C31.0519 1.7 31.6484 1.70054 32.1134 1.73855C32.5701 1.77588 32.8381 1.84584 33.0439 1.95069L33.6795 0.703276C33.2435 0.481145 32.7709 0.387613 32.2274 0.343199C31.6922 0.299455 31.0288 0.3 30.2003 0.3V1.7ZM35.297 2.32027C34.9422 1.62378 34.3754 1.05786 33.6795 0.703276L33.0439 1.95069C33.4769 2.17134 33.8293 2.52337 34.0496 2.95585L35.297 2.32027ZM10.25 19.7H11V18.3H10.25V19.7ZM11 19.7H35.75V18.3H11V19.7Z" fill="#191919"/>
<path d="M35 5.80002V19V19L11 19V5.80002C11 4.11986 11 3.2798 11.327 2.63806C11.6146 2.07358 12.0732 1.6146 12.6377 1.32698C13.2794 1 14.1201 1 15.8003 1H30.2003C31.8805 1 32.7199 1 33.3617 1.32698C33.9262 1.6146 34.3857 2.07358 34.6733 2.63806C35 3.27917 35 4.11822 35 5.79509V5.80002Z" fill="#0F42F4" fill-opacity="0.6"/>
<path d="M10.25 18.3C9.8634 18.3 9.55 18.6134 9.55 19C9.55 19.3866 9.8634 19.7 10.25 19.7V18.3ZM35.75 19.7C36.1366 19.7 36.45 19.3866 36.45 19C36.45 18.6134 36.1366 18.3 35.75 18.3V19.7ZM35 19V19.7C35.1857 19.7 35.3637 19.6263 35.495 19.495C35.6263 19.3637 35.7 19.1857 35.7 19H35ZM11.327 2.63806L11.9507 2.95586V2.95585L11.327 2.63806ZM12.6377 1.32698L12.3199 0.703276L12.6377 1.32698ZM34.6733 2.63806L35.297 2.32027V2.32027L34.6733 2.63806ZM33.3617 1.32698L33.6795 0.703276V0.703276L33.3617 1.32698ZM10.25 19.7H11V18.3H10.25V19.7ZM11 19.7H35V18.3H11V19.7ZM35 19.7H35.75V18.3H35V19.7ZM34.3 5.80002V19H35.7V5.80002H34.3ZM34.3 19V19H35.7V19H34.3ZM35 18.3L11 18.3L11 19.7L35 19.7V18.3ZM11.7 19V5.80002H10.3V19H11.7ZM15.8003 1.7H30.2003V0.3H15.8003V1.7ZM11.7 5.80002C11.7 4.94839 11.7005 4.35177 11.7385 3.88663C11.7759 3.42967 11.8459 3.1616 11.9507 2.95586L10.7033 2.32027C10.4811 2.75626 10.3876 3.22909 10.3432 3.77263C10.2995 4.308 10.3 4.97149 10.3 5.80002H11.7ZM15.8003 0.3C14.9718 0.3 14.3081 0.299456 13.7726 0.343196C13.229 0.3876 12.7559 0.481104 12.3199 0.703276L12.9555 1.95069C13.1612 1.84588 13.4294 1.77589 13.8866 1.73855C14.3519 1.70054 14.9487 1.7 15.8003 1.7V0.3ZM11.9507 2.95585C12.1713 2.5229 12.5229 2.1711 12.9555 1.95069L12.3199 0.703276C11.6235 1.0581 11.0579 1.62425 10.7033 2.32027L11.9507 2.95585ZM35.7 5.80002V5.79509H34.3V5.80002H35.7ZM35.7 5.79509C35.7 4.9682 35.7005 4.30577 35.6568 3.77113C35.6125 3.22831 35.519 2.75592 35.297 2.32027L34.0496 2.95585C34.1543 3.16131 34.2242 3.429 34.2615 3.88519C34.2995 4.34957 34.3 4.9451 34.3 5.79509H35.7ZM30.2003 1.7C31.0519 1.7 31.6484 1.70054 32.1134 1.73855C32.5701 1.77588 32.8381 1.84584 33.0439 1.95068L33.6795 0.703276C33.2435 0.481145 32.7709 0.387613 32.2274 0.343199C31.6922 0.299455 31.0288 0.3 30.2003 0.3V1.7ZM35.297 2.32027C34.9422 1.62378 34.3754 1.05786 33.6795 0.703276L33.0439 1.95068C33.4769 2.17134 33.8293 2.52337 34.0496 2.95586L35.297 2.32027Z" fill="#191919"/>
</svg>
