<svg width="310" height="42" viewBox="0 0 310 42" fill="none" xmlns="http://www.w3.org/2000/svg">
<rect width="310" height="42" rx="4" fill="#0F42F4"/>
<path d="M112.567 18.576V19.168C112.567 21.488 111.607 23.952 109.575 25.136L110.551 26.4C112.775 25.104 113.847 22.128 113.847 19.168V18.576H112.567ZM112.887 18.576V19.168C112.887 22.064 113.991 24.864 116.231 26.08L117.159 24.832C115.159 23.744 114.167 21.424 114.167 19.168V18.576H112.887ZM110.007 17.312V18.672H116.727V17.312H110.007ZM112.567 15.216V18.368H114.167V15.216H112.567ZM120.727 14.704V29.328H122.327V14.704H120.727ZM118.663 20.464V21.856H121.303V20.464H118.663ZM117.559 14.976V28.624H119.127V14.976H117.559ZM125.318 21.472V22.816H126.534C129.67 22.816 131.478 22.768 133.574 22.416L133.398 21.088C131.366 21.424 129.622 21.472 126.534 21.472H125.318ZM125.318 15.744V22.08H126.982V17.088H132.31V15.744H125.318ZM126.454 18.592V19.904H131.894V18.592H126.454ZM134.87 14.72V23.664H136.55V14.72H134.87ZM131.67 23.888C128.598 23.888 126.726 24.88 126.726 26.592C126.726 28.32 128.598 29.312 131.67 29.312C134.726 29.312 136.614 28.32 136.614 26.592C136.614 24.88 134.726 23.888 131.67 23.888ZM131.67 25.184C133.75 25.184 134.95 25.68 134.95 26.592C134.95 27.52 133.75 28.016 131.67 28.016C129.574 28.016 128.39 27.52 128.39 26.592C128.39 25.68 129.574 25.184 131.67 25.184ZM145.924 23.776C142.916 23.776 141.044 24.8 141.044 26.544C141.044 28.304 142.916 29.328 145.924 29.328C148.916 29.328 150.788 28.304 150.788 26.544C150.788 24.8 148.916 23.776 145.924 23.776ZM145.924 25.104C147.956 25.104 149.124 25.6 149.124 26.544C149.124 27.504 147.956 28.016 145.924 28.016C143.892 28.016 142.708 27.504 142.708 26.544C142.708 25.6 143.892 25.104 145.924 25.104ZM148.948 14.704V23.408H150.628V14.704H148.948ZM150.164 18.256V19.648H152.692V18.256H150.164ZM139.732 15.632V22.432H146.612V15.632H144.964V17.648H141.396V15.632H139.732ZM141.396 18.96H144.964V21.104H141.396V18.96ZM168.413 20.4V21.792H171.053V20.4H168.413ZM167.181 14.688V29.312H168.861V14.688H167.181ZM158.045 16.112V25.184H159.709V16.112H158.045ZM158.045 24.272V25.68H159.245C161.437 25.68 163.725 25.536 166.189 25.024L165.997 23.648C163.613 24.128 161.373 24.272 159.245 24.272H158.045ZM181.9 14.688V29.312H183.58V14.688H181.9ZM183.132 20.48V21.856H185.772V20.48H183.132ZM178.108 16.24V16.528C178.108 20.432 176.172 23.36 172.22 25.376L173.164 26.656C177.948 24.256 179.756 20.496 179.756 16.24H178.108ZM172.956 16.24V17.6H178.972V16.24H172.956ZM197.354 14.704V29.328H199.034V14.704H197.354ZM193.066 16.256V16.544C193.066 20.448 191.29 23.344 187.082 25.376L187.962 26.72C192.986 24.272 194.714 20.592 194.714 16.256H193.066ZM187.802 16.256V17.6H193.818V16.256H187.802Z" fill="white"/>
</svg>
