<svg width="39" height="53" viewBox="0 0 39 53" fill="none" xmlns="http://www.w3.org/2000/svg">
<path d="M19 5.90665C15.8889 -1.39581 5 -0.618028 5 8.71535C5 18.0487 19 25.8264 19 25.8264C19 25.8264 33 18.0487 33 8.71535C33 -0.618028 22.1111 -1.39581 19 5.90665Z" fill="#0F42F4" fill-opacity="0.4"/>
<path d="M19 5.90665L18.08 6.2986C18.2371 6.66734 18.5992 6.90665 19 6.90665C19.4008 6.90665 19.7629 6.66734 19.92 6.2986L19 5.90665ZM19 25.8264L18.5144 26.7006C18.8164 26.8684 19.1836 26.8684 19.4856 26.7006L19 25.8264ZM6 8.71535C6 6.58205 6.61879 5.02148 7.51525 3.9558C8.41458 2.8867 9.64414 2.25425 10.976 2.06234C13.649 1.67715 16.7064 3.07441 18.08 6.2986L19.92 5.5147C18.1825 1.43643 14.2398 -0.428643 10.6907 0.0827855C8.91142 0.33918 7.22431 1.19478 5.98475 2.66833C4.74232 4.1453 4 6.18196 4 8.71535H6ZM19.92 6.2986C21.2936 3.07441 24.351 1.67715 27.024 2.06234C28.3559 2.25425 29.5854 2.8867 30.4848 3.9558C31.3812 5.02148 32 6.58205 32 8.71535H34C34 6.18196 33.2577 4.1453 32.0152 2.66833C30.7757 1.19478 29.0886 0.33918 27.3093 0.0827855C23.7602 -0.428643 19.8175 1.43643 18.08 5.5147L19.92 6.2986ZM32 8.71535C32 12.9152 28.8116 16.9337 25.3356 20.0235C23.6297 21.5399 21.9191 22.7757 20.6328 23.6333C19.9906 24.0614 19.4566 24.3936 19.0851 24.6177C18.8993 24.7297 18.7544 24.8146 18.657 24.8709C18.6082 24.8991 18.5714 24.92 18.5474 24.9337C18.5354 24.9405 18.5265 24.9454 18.521 24.9486C18.5182 24.9501 18.5163 24.9512 18.5152 24.9518C18.5146 24.9521 18.5143 24.9523 18.5141 24.9524C18.5141 24.9524 18.5141 24.9524 18.5141 24.9524C18.5142 24.9524 18.5144 24.9523 19 25.8264C19.4856 26.7006 19.4859 26.7004 19.4862 26.7003C19.4864 26.7002 19.4868 26.6999 19.4872 26.6997C19.4879 26.6993 19.4888 26.6988 19.4899 26.6982C19.4922 26.6969 19.4953 26.6952 19.4993 26.6929C19.5072 26.6885 19.5185 26.6822 19.5329 26.674C19.5619 26.6576 19.6037 26.6338 19.6575 26.6027C19.7652 26.5405 19.921 26.4492 20.1181 26.3303C20.5121 26.0926 21.0719 25.7443 21.7422 25.2974C23.0809 24.4049 24.8703 23.113 26.6644 21.5183C30.1884 18.3859 34 13.8488 34 8.71535H32ZM19 25.8264C19.4856 24.9523 19.4858 24.9524 19.4859 24.9524C19.4859 24.9524 19.4859 24.9524 19.4859 24.9524C19.4857 24.9523 19.4854 24.9521 19.4848 24.9518C19.4837 24.9512 19.4818 24.9501 19.479 24.9486C19.4735 24.9454 19.4646 24.9405 19.4526 24.9337C19.4286 24.92 19.3918 24.8991 19.343 24.8709C19.2456 24.8146 19.1007 24.7297 18.9149 24.6177C18.5434 24.3936 18.0094 24.0614 17.3672 23.6333C16.0809 22.7757 14.3703 21.5399 12.6644 20.0235C9.18835 16.9337 6 12.9152 6 8.71535H4C4 13.8488 7.81165 18.3859 11.3356 21.5183C13.1297 23.113 14.9191 24.4049 16.2578 25.2974C16.9281 25.7443 17.4879 26.0926 17.8819 26.3303C18.079 26.4492 18.2348 26.5405 18.3425 26.6027C18.3963 26.6338 18.4381 26.6576 18.4671 26.674C18.4815 26.6822 18.4928 26.6885 18.5007 26.6929C18.5047 26.6952 18.5078 26.6969 18.5101 26.6982C18.5112 26.6988 18.5121 26.6993 18.5128 26.6997C18.5132 26.6999 18.5136 26.7002 18.5138 26.7003C18.5141 26.7004 18.5144 26.7006 19 25.8264Z" fill="#191919"/>
<path d="M2.11852 42.62V43.29C2.11852 44.24 1.74852 45.39 0.718515 45.94L1.26852 46.7C2.47852 46.05 2.86852 44.59 2.86852 43.29V42.62H2.11852ZM2.37852 42.62V43.29C2.37852 44.46 2.66852 46.07 3.90852 46.79L4.36852 46.02C3.35852 45.37 3.09852 44.15 3.09852 43.29V42.62H2.37852ZM4.70852 42.62V43.29C4.70852 44.19 4.44852 45.38 3.44852 46.02L3.90852 46.79C5.14852 46.09 5.43852 44.51 5.43852 43.29V42.62H4.70852ZM4.94852 42.62V43.29C4.94852 44.61 5.33852 46.05 6.55852 46.7L7.09852 45.94C6.06852 45.4 5.70852 44.26 5.70852 43.29V42.62H4.94852ZM1.04852 42.29V43.13H3.70852V42.29H1.04852ZM4.10852 42.29V43.13H6.70852V42.29H4.10852ZM7.45852 41.69V47.03H8.51852V41.69H7.45852ZM2.35852 47.49V50.72H8.51852V47.49H2.35852ZM7.47852 48.32V49.87H3.37852V48.32H7.47852ZM15.9177 41.7V48.54H16.9677V41.7H15.9177ZM16.6577 44.6V45.47H18.2577V44.6H16.6577ZM9.84773 42.74V43.57H15.2277V42.74H9.84773ZM12.5377 43.99C11.2277 43.99 10.3177 44.69 10.3177 45.72C10.3177 46.76 11.2277 47.45 12.5377 47.45C13.8377 47.45 14.7477 46.76 14.7477 45.72C14.7477 44.69 13.8377 43.99 12.5377 43.99ZM12.5377 44.8C13.2577 44.8 13.7477 45.15 13.7477 45.72C13.7477 46.3 13.2577 46.64 12.5377 46.64C11.8177 46.64 11.3277 46.3 11.3277 45.72C11.3277 45.15 11.8177 44.8 12.5377 44.8ZM12.0177 41.69V43.15H13.0577V41.69H12.0177ZM11.1877 49.8V50.65H17.3377V49.8H11.1877ZM11.1877 48.01V50.16H12.2377V48.01H11.1877ZM23.003 42.17V43.05C23.003 44.38 22.233 45.61 20.793 46.12L21.343 46.95C22.963 46.35 23.863 44.84 23.863 43.05V42.17H23.003ZM23.203 42.17V43.14C23.203 44.76 24.103 46.14 25.653 46.69L26.203 45.87C24.833 45.42 24.053 44.32 24.053 43.14V42.17H23.203ZM26.963 41.69V47.17H28.013V41.69H26.963ZM27.723 43.94V44.81H29.303V43.94H27.723ZM25.073 47.4C23.183 47.4 22.023 48.03 22.023 49.11C22.023 50.19 23.183 50.82 25.073 50.82C26.953 50.82 28.113 50.19 28.113 49.11C28.113 48.03 26.953 47.4 25.073 47.4ZM25.073 48.22C26.343 48.22 27.073 48.53 27.073 49.11C27.073 49.69 26.343 50 25.073 50C23.803 50 23.063 49.69 23.063 49.11C23.063 48.53 23.803 48.22 25.073 48.22ZM33.4823 46.62V48.11H34.5223V46.62H33.4823ZM29.8723 46.04V46.88H38.1323V46.04H29.8723ZM30.6223 41.96V42.81H37.3723V41.96H30.6223ZM30.6723 44.48V45.32H37.3223V44.48H30.6723ZM31.9023 42.3V45.03H32.9523V42.3H31.9023ZM35.0423 42.3V45.03H36.0923V42.3H35.0423ZM30.8623 47.81V50.72H37.1323V47.81H30.8623ZM36.1123 48.63V49.88H31.8923V48.63H36.1123Z" fill="#424242"/>
</svg>
