<svg width="30" height="43" viewBox="0 0 30 43" fill="none" xmlns="http://www.w3.org/2000/svg">
<path d="M4.75432 2.64905L5.46712 3.01224L4.75432 2.64905ZM5.77376 1.62932L6.13696 2.34212V2.34212L5.77376 1.62932ZM5.77376 19.7873L6.13696 19.0745L5.77376 19.7873ZM4.75432 18.7677L4.04151 19.1309H4.04151L4.75432 18.7677ZM25.2459 18.7677L24.5331 18.4045L25.2459 18.7677ZM24.2258 19.7873L23.8626 19.0745L24.2258 19.7873ZM25.2459 2.64905L24.5331 3.01224V3.01224L25.2459 2.64905ZM24.2258 1.62932L24.5889 0.916513L24.2258 1.62932ZM12.3 6.04167C12.3 5.59984 11.9418 5.24167 11.5 5.24167C11.0582 5.24167 10.7 5.59984 10.7 6.04167H12.3ZM19.3 6.04167C19.3 5.59984 18.9418 5.24167 18.5 5.24167C18.0582 5.24167 17.7 5.59984 17.7 6.04167H19.3ZM24.7 5.10828V16.3083H26.3V5.10828H24.7ZM21.7669 19.2417H8.23356V20.8417H21.7669V19.2417ZM5.3 16.3083V5.10828H3.7V16.3083H5.3ZM8.23356 2.175H21.7669V0.575H8.23356V2.175ZM5.3 5.10828C5.3 4.44168 5.30062 3.98987 5.32913 3.64094C5.35688 3.30135 5.407 3.13024 5.46712 3.01224L4.04151 2.28586C3.84732 2.66699 3.77028 3.07209 3.73445 3.51064C3.69938 3.93984 3.7 4.46808 3.7 5.10828H5.3ZM8.23356 0.575C7.59336 0.575 7.06499 0.574378 6.63566 0.609445C6.19705 0.64527 5.79176 0.722289 5.41057 0.916513L6.13696 2.34212C6.2549 2.28203 6.42611 2.23189 6.76591 2.20413C7.115 2.17562 7.56697 2.175 8.23356 2.175V0.575ZM5.46712 3.01224C5.61423 2.72352 5.84865 2.48902 6.13696 2.34212L5.41057 0.916513C4.82079 1.21702 4.34181 1.69649 4.04151 2.28586L5.46712 3.01224ZM8.23356 19.2417C7.56699 19.2417 7.11501 19.241 6.76593 19.2125C6.42614 19.1848 6.25491 19.1346 6.13696 19.0745L5.41057 20.5001C5.79174 20.6943 6.19702 20.7714 6.63565 20.8072C7.06498 20.8423 7.59335 20.8417 8.23356 20.8417V19.2417ZM3.7 16.3083C3.7 16.9485 3.69938 17.4768 3.73445 17.906C3.77028 18.3446 3.84731 18.7497 4.04151 19.1309L5.46712 18.4045C5.40701 18.2865 5.35688 18.1154 5.32913 17.7757C5.30062 17.4267 5.3 16.9749 5.3 16.3083H3.7ZM6.13696 19.0745C5.84856 18.9276 5.61419 18.6931 5.46712 18.4045L4.04151 19.1309C4.34185 19.7203 4.82088 20.1997 5.41057 20.5001L6.13696 19.0745ZM24.7 16.3083C24.7 16.975 24.6994 17.4268 24.671 17.7758C24.6433 18.1156 24.5932 18.2866 24.5331 18.4045L25.9587 19.1309C26.153 18.7497 26.2299 18.3444 26.2657 17.9059C26.3007 17.4767 26.3 16.9484 26.3 16.3083H24.7ZM21.7669 20.8417C22.4071 20.8417 22.9353 20.8423 23.3644 20.8072C23.8029 20.7714 24.2079 20.6943 24.5889 20.5001L23.8626 19.0745C23.7445 19.1347 23.5734 19.1848 23.234 19.2125C22.8852 19.241 22.4335 19.2417 21.7669 19.2417V20.8417ZM24.5331 18.4045C24.3863 18.6926 24.1515 18.9273 23.8626 19.0745L24.5889 20.5001C25.1781 20.1999 25.6581 19.7209 25.9587 19.1309L24.5331 18.4045ZM26.3 5.10828C26.3 4.46816 26.3007 3.93992 26.2657 3.51077C26.2299 3.07226 26.153 2.66708 25.9587 2.28586L24.5331 3.01224C24.5932 3.13015 24.6433 3.30119 24.671 3.64081C24.6994 3.9898 24.7 4.4416 24.7 5.10828H26.3ZM21.7669 2.175C22.4335 2.175 22.8852 2.17562 23.234 2.20413C23.5735 2.23187 23.7445 2.28198 23.8626 2.34212L24.5889 0.916513C24.2078 0.722336 23.8029 0.645286 23.3644 0.609448C22.9352 0.574377 22.4071 0.575 21.7669 0.575V2.175ZM25.9587 2.28586C25.6582 1.69596 25.1782 1.21675 24.5889 0.916513L23.8626 2.34212C24.1514 2.4893 24.3863 2.72405 24.5331 3.01224L25.9587 2.28586ZM10.7 6.04167C10.7 8.41649 12.6252 10.3417 15 10.3417V8.74167C13.5088 8.74167 12.3 7.53284 12.3 6.04167H10.7ZM15 10.3417C17.3748 10.3417 19.3 8.41649 19.3 6.04167H17.7C17.7 7.53284 16.4912 8.74167 15 8.74167V10.3417Z" fill="#191919"/>
<path d="M1.87301 32.86H1.05301V38.41H1.62301C2.59301 38.41 3.62301 38.36 4.83301 38.13L4.75301 37.42C3.68301 37.63 2.73301 37.69 1.87301 37.7V32.86ZM7.43301 31.77V35.42H6.16301V31.97H5.39301V40.28H6.16301V36.1H7.43301V40.73H8.22301V31.77H7.43301ZM12.4386 32.74V33.4H15.7086C15.5586 35.5 14.4486 37.21 12.0386 38.39L12.4886 39.03C15.4686 37.56 16.5286 35.29 16.5286 32.74H12.4386ZM18.6086 31.78V35.37H16.5086V36.04H18.6086V40.74H19.4286V31.78H18.6086ZM22.3378 35.9H24.8878V32.75H21.5178V33.42H24.0878V35.23H21.5478V38.59H22.1378C23.2478 38.59 24.2578 38.55 25.4978 38.34L25.4378 37.66C24.2978 37.86 23.3578 37.9 22.3378 37.91V35.9ZM28.0778 31.77V35.31H26.8078V31.97H26.0378V40.28H26.8078V35.98H28.0778V40.73H28.8678V31.77H28.0778Z" fill="#9E9E9E"/>
</svg>
