<svg width="310" height="42" viewBox="0 0 310 42" fill="none" xmlns="http://www.w3.org/2000/svg">
<rect width="310" height="42" rx="4" fill="#F5F5F5"/>
<path d="M145.001 17.36V17.552C145.001 18.976 143.769 20.256 141.593 20.704L142.281 22.016C144.905 21.424 146.361 19.696 146.361 17.552V17.36H145.001ZM145.321 17.36V17.552C145.321 19.6 146.777 21.248 149.353 21.808L150.025 20.512C147.897 20.064 146.681 18.896 146.681 17.552V17.36H145.321ZM141.945 16.272V17.568H149.721V16.272H141.945ZM144.985 14.736V17.184H146.681V14.736H144.985ZM145.001 23.04V28.896H146.681V23.04H145.001ZM151.433 14.704V29.328H153.097V14.704H151.433ZM141.225 24.24C143.897 24.24 147.369 24.192 150.601 23.632L150.489 22.416C147.353 22.832 143.737 22.848 141.017 22.848L141.225 24.24ZM155.736 26.128V27.504H168.984V26.128H155.736ZM161.448 22.72V26.544H163.112V22.72H161.448ZM161.4 15.6V16.704C161.4 18.944 159.064 21.136 156.152 21.632L156.856 23.024C160.184 22.368 162.856 19.824 162.856 16.704V15.6H161.4ZM161.704 15.6V16.704C161.704 19.84 164.376 22.368 167.72 23.024L168.424 21.632C165.512 21.136 163.176 18.976 163.176 16.704V15.6H161.704Z" fill="#9E9E9E"/>
</svg>
