<svg width="70" height="12" viewBox="0 0 70 12" fill="none" xmlns="http://www.w3.org/2000/svg">
<path d="M23.48 1.124H22.496V6.716H23.48V1.124ZM17.132 2.624H18.884V5.42C18.296 5.456 17.708 5.48 17.132 5.492V2.624ZM21.416 5.216C20.9 5.264 20.372 5.324 19.832 5.36V2.624H20.888V1.844H15.116V2.624H16.172V5.516C15.704 5.528 15.248 5.528 14.828 5.528L14.924 6.344C16.82 6.332 19.328 6.26 21.464 5.936L21.416 5.216ZM17.456 10.988V9.812H23.48V7.232H16.448V8H22.508V9.08H16.484V11.768H23.888V10.988H17.456ZM27.1511 5.924H30.6791V5.132H27.1511V2.912H31.1471V2.096H26.1671V9.308H26.9951C29.0471 9.308 30.3551 9.248 31.9151 8.972L31.8071 8.168C30.3431 8.432 29.0951 8.504 27.1511 8.504V5.924ZM33.5591 1.112V5.18H31.3391V5.996H33.5591V11.9H34.5431V1.112H33.5591ZM37.6381 7.652C39.3661 7.34 40.9141 6.476 41.5981 5.156C42.2701 6.476 43.8181 7.34 45.5461 7.652L45.9301 6.872C43.8421 6.536 42.0901 5.276 42.0901 3.62H45.5461V2.828H42.0901V1.364H41.0941V2.828H37.6261V3.62H41.0941C41.0941 5.276 39.3421 6.536 37.2541 6.872L37.6381 7.652ZM42.0901 9.716V7.268H41.0941V9.716H36.7141V10.532H46.4821V9.716H42.0901ZM48.3892 2.288V3.08H52.4332C52.2292 5.636 50.7892 7.7 47.8972 9.08L48.4252 9.884C52.0012 8.132 53.4292 5.396 53.4292 2.288H48.3892ZM55.6012 1.124V11.888H56.5852V1.124H55.6012ZM65.2843 2.432H62.5723V1.136H61.5883V2.432H58.8523V3.212H65.2843V2.432ZM60.4723 5.84C60.4723 5.096 61.1203 4.604 62.0803 4.604C63.0403 4.604 63.6883 5.096 63.6883 5.84C63.6883 6.584 63.0403 7.064 62.0803 7.064C61.1203 7.064 60.4723 6.584 60.4723 5.84ZM62.5723 7.808C63.8083 7.652 64.6243 6.908 64.6243 5.84C64.6243 4.628 63.5803 3.848 62.0803 3.848C60.5803 3.848 59.5363 4.628 59.5363 5.84C59.5363 6.908 60.3523 7.652 61.5883 7.808V8.984C60.5443 9.02 59.5363 9.02 58.6723 9.02L58.8043 9.848C60.6883 9.848 63.2203 9.824 65.5243 9.416L65.4643 8.684C64.5403 8.828 63.5443 8.9 62.5723 8.948V7.808ZM68.7643 5.696H67.0843V1.124H66.1003V11.888H67.0843V6.524H68.7643V5.696Z" fill="#9E9E9E"/>
<path d="M9.60822 6.8782C9.51036 6.8779 9.41596 6.91515 9.34367 6.98259C9.27138 7.05002 9.22646 7.14273 9.21778 7.2424C9.15376 8.08078 8.85339 8.88219 8.35306 9.54957C7.85273 10.217 7.1739 10.7217 6.39879 11.0026C5.62367 11.2836 4.78553 11.3287 3.98585 11.1325C3.18618 10.9363 2.4593 10.5072 1.89322 9.89722C1.32715 9.28722 0.94618 8.52248 0.79645 7.69561C0.646719 6.86873 0.734653 6.0152 1.0496 5.23839C1.36455 4.46157 1.893 3.7948 2.57095 3.31882C3.24891 2.84284 4.04728 2.57807 4.86937 2.55658C4.88342 2.5559 4.89745 2.55818 4.9106 2.56328C4.92375 2.56839 4.93573 2.5762 4.94579 2.58625C4.95586 2.59629 4.96379 2.60834 4.96911 2.62165C4.97442 2.63497 4.97699 2.64926 4.97667 2.66363V4.01109C4.97688 4.08785 4.9972 4.16314 5.03553 4.22914C5.07386 4.29514 5.12879 4.34942 5.1946 4.38633C5.26041 4.42325 5.3347 4.44145 5.40972 4.43904C5.48475 4.43663 5.55777 4.41369 5.62118 4.37262L8.14148 2.57106C8.2016 2.53254 8.25117 2.47904 8.28553 2.41557C8.31988 2.3521 8.33791 2.28074 8.33791 2.2082C8.33791 2.13565 8.31988 2.06429 8.28553 2.00082C8.25117 1.93735 8.2016 1.88385 8.14148 1.84533L5.62416 0.066626C5.56075 0.0255571 5.48773 0.00262312 5.4127 0.000211936C5.33768 -0.00219924 5.26339 0.0160005 5.19758 0.0529163C5.13177 0.0898321 5.07684 0.144114 5.03851 0.210109C5.00018 0.276105 4.97986 0.351401 4.97965 0.428158V1.65218C4.9799 1.66609 4.97744 1.6799 4.97243 1.69283C4.96742 1.70576 4.95995 1.71754 4.95046 1.7275C4.94097 1.73745 4.92964 1.74538 4.91713 1.75083C4.90461 1.75628 4.89117 1.75914 4.87757 1.75923C3.91088 1.78503 2.97217 2.09645 2.17479 2.65589C1.37741 3.21534 0.755471 3.99888 0.384082 4.9119C0.0126924 5.82491 -0.0922648 6.82835 0.0818853 7.80103C0.256035 8.77371 0.701845 9.67404 1.36548 10.3933C2.02911 11.1125 2.88217 11.6199 3.82166 11.8542C4.76115 12.0885 5.74687 12.0396 6.6598 11.7135C7.57272 11.3874 8.37379 10.798 8.96628 10.0165C9.55876 9.23499 9.91732 8.2948 9.99865 7.30945C10.0031 7.25436 9.99638 7.19891 9.97877 7.14663C9.96116 7.09436 9.9331 7.04641 9.89637 7.00584C9.85964 6.96527 9.81505 6.93297 9.76544 6.911C9.71582 6.88902 9.66228 6.87785 9.60822 6.8782Z" fill="#9E9E9E"/>
</svg>
