<svg width="23" height="43" viewBox="0 0 23 43" fill="none" xmlns="http://www.w3.org/2000/svg">
<path d="M7.06078 32.32V32.67C7.06078 34.35 5.68078 35.66 3.39078 36.31L3.73078 36.96C6.33078 36.23 7.93078 34.6 7.93078 32.32H7.06078ZM3.86078 32.32V32.99H7.62078V32.32H3.86078ZM9.90078 31.74V36.9H10.7308V31.74H9.90078ZM7.94078 34.06V34.75H10.0608V34.06H7.94078ZM4.90078 37.28V40.66H10.7308V37.28H4.90078ZM9.92078 37.95V39.98H5.72078V37.95H9.92078ZM14.39 32.28V33.49C14.39 34.52 13.68 35.71 12.5 36.24L12.95 36.89C14.28 36.28 15.05 34.85 15.05 33.49V32.28H14.39ZM14.52 32.28V33.49C14.52 34.84 15.26 36.11 16.57 36.66L17.01 36.02C15.85 35.55 15.18 34.52 15.18 33.49V32.28H14.52ZM19.32 31.75V37.21H20.11V31.75H19.32ZM17.86 34.09V34.78H19.57V34.09H17.86ZM17.38 31.9V37.16H18.17V31.9H17.38ZM14.05 37.7V38.38H19.29V40.78H20.11V37.7H14.05Z" fill="#9E9E9E"/>
<path d="M18.0182 9.90909C18.0182 14.3876 14.3876 18.0182 9.90909 18.0182V19.6182C15.2713 19.6182 19.6182 15.2713 19.6182 9.90909H18.0182ZM9.90909 18.0182C5.43056 18.0182 1.8 14.3876 1.8 9.90909H0.2C0.2 15.2713 4.54691 19.6182 9.90909 19.6182V18.0182ZM1.8 9.90909C1.8 5.43056 5.43056 1.8 9.90909 1.8V0.2C4.54691 0.2 0.2 4.54691 0.2 9.90909H1.8ZM9.90909 1.8C14.3876 1.8 18.0182 5.43056 18.0182 9.90909H19.6182C19.6182 4.54691 15.2713 0.2 9.90909 0.2V1.8Z" fill="#191919"/>
<path d="M16.8391 15.707C16.5267 15.3946 16.0202 15.3946 15.7078 15.707C15.3953 16.0194 15.3953 16.526 15.7078 16.8384L16.8391 15.707ZM21.435 22.5657C21.7474 22.8781 22.254 22.8781 22.5664 22.5657C22.8788 22.2532 22.8788 21.7467 22.5664 21.4343L21.435 22.5657ZM15.7078 16.8384L21.435 22.5657L22.5664 21.4343L16.8391 15.707L15.7078 16.8384Z" fill="#191919"/>
</svg>
