<svg width="166" height="42" viewBox="0 0 166 42" fill="none" xmlns="http://www.w3.org/2000/svg">
<rect width="166" height="42" rx="4" fill="#0F42F4"/>
<path d="M57.52 18.576V19.168C57.52 21.488 56.56 23.952 54.528 25.136L55.504 26.4C57.728 25.104 58.8 22.128 58.8 19.168V18.576H57.52ZM57.84 18.576V19.168C57.84 22.064 58.944 24.864 61.184 26.08L62.112 24.832C60.112 23.744 59.12 21.424 59.12 19.168V18.576H57.84ZM54.96 17.312V18.672H61.68V17.312H54.96ZM57.52 15.216V18.368H59.12V15.216H57.52ZM65.68 14.704V29.328H67.28V14.704H65.68ZM63.616 20.464V21.856H66.256V20.464H63.616ZM62.512 14.976V28.624H64.08V14.976H62.512ZM70.2708 21.472V22.816H71.4868C74.6228 22.816 76.4308 22.768 78.5268 22.416L78.3508 21.088C76.3188 21.424 74.5748 21.472 71.4868 21.472H70.2708ZM70.2708 15.744V22.08H71.9348V17.088H77.2628V15.744H70.2708ZM71.4068 18.592V19.904H76.8468V18.592H71.4068ZM79.8228 14.72V23.664H81.5028V14.72H79.8228ZM76.6228 23.888C73.5508 23.888 71.6788 24.88 71.6788 26.592C71.6788 28.32 73.5508 29.312 76.6228 29.312C79.6788 29.312 81.5668 28.32 81.5668 26.592C81.5668 24.88 79.6788 23.888 76.6228 23.888ZM76.6228 25.184C78.7028 25.184 79.9028 25.68 79.9028 26.592C79.9028 27.52 78.7028 28.016 76.6228 28.016C74.5268 28.016 73.3428 27.52 73.3428 26.592C73.3428 25.68 74.5268 25.184 76.6228 25.184ZM93.8375 14.704V29.328H95.5015V14.704H93.8375ZM95.1175 20.576V21.968H97.7735V20.576H95.1175ZM84.0935 16.96V18.304H92.6695V16.96H84.0935ZM88.4295 19.36C86.3335 19.36 84.7975 20.768 84.7975 22.768C84.7975 24.784 86.3335 26.192 88.4295 26.192C90.5095 26.192 92.0455 24.784 92.0455 22.768C92.0455 20.768 90.5095 19.36 88.4295 19.36ZM88.4295 20.736C89.5975 20.736 90.4455 21.536 90.4455 22.768C90.4455 24 89.5975 24.816 88.4295 24.816C87.2455 24.816 86.3975 24 86.3975 22.768C86.3975 21.536 87.2455 20.736 88.4295 20.736ZM87.5655 14.912V17.52H89.2455V14.912H87.5655ZM109.276 14.704V29.328H110.956V14.704H109.276ZM104.988 16.256V16.544C104.988 20.448 103.212 23.344 99.0043 25.376L99.8843 26.72C104.908 24.272 106.636 20.592 106.636 16.256H104.988ZM99.7243 16.256V17.6H105.74V16.256H99.7243Z" fill="white"/>
</svg>
