<svg width="340" height="42" viewBox="0 0 340 42" fill="none" xmlns="http://www.w3.org/2000/svg">
<rect width="340" height="42" rx="4" fill="#0F42F4"/>
<path d="M158.385 18.288C158.385 17.296 159.233 16.656 160.433 16.656C161.649 16.656 162.465 17.296 162.465 18.288C162.465 19.296 161.649 19.936 160.433 19.936C159.233 19.936 158.385 19.296 158.385 18.288ZM164.913 22.016C163.761 22.192 162.513 22.288 161.281 22.368V21.12C162.913 20.848 164.001 19.76 164.001 18.288C164.001 16.576 162.529 15.408 160.433 15.408C158.337 15.408 156.849 16.576 156.849 18.288C156.849 19.776 157.969 20.864 159.633 21.12V22.432C158.337 22.48 157.105 22.48 156.065 22.48L156.273 23.824C158.689 23.824 162.049 23.776 165.025 23.216L164.913 22.016ZM159.713 24.896H158.065V28.944H167.905V27.616H159.713V24.896ZM167.409 19.52V14.8H165.761V25.84H167.409V20.88H169.393V19.52H167.409ZM175.952 23.68H178.912V26.176H175.952V23.68ZM180.544 26.176V23.68H182.672V22.352H174.016V20.352H182.352V15.792H172.368V17.12H180.72V19.04H172.4V23.68H174.32V26.176H170.816V27.536H183.904V26.176H180.544Z" fill="white"/>
</svg>
