<svg width="119" height="40" viewBox="0 0 119 40" fill="none" xmlns="http://www.w3.org/2000/svg">
<rect x="0.75" y="0.25" width="117.5" height="39.5" rx="3.75" stroke="#BDBDBD" stroke-width="0.5"/>
<path d="M38.556 20.272V21.1H39.252C40.992 21.1 42.024 21.052 43.272 20.812L43.176 19.996C41.964 20.236 40.956 20.272 39.252 20.272H38.556ZM38.556 15.88V20.716H39.516V16.696H42.756V15.88H38.556ZM39.216 18.04V18.82H42.624V18.04H39.216ZM46.284 15.088V21.664H47.232V15.088H46.284ZM44.532 17.92V18.736H46.584V17.92H44.532ZM43.896 15.292V21.604H44.832V15.292H43.896ZM39.96 22.24V23.056H46.248V25.936H47.232V22.24H39.96ZM49.5231 16.108V23.224H53.6631V16.108H52.7391V18.76H50.4711V16.108H49.5231ZM50.4711 19.564H52.7391V22.408H50.4711V19.564ZM57.3951 15.088V25.936H58.3551V15.088H57.3951ZM55.6551 19.384V20.2H57.7431V19.384H55.6551ZM54.9951 15.316V25.396H55.9431V15.316H54.9951ZM68.0981 15.088V25.936H69.0941V15.088H68.0981ZM65.5661 19.432V20.26H68.5421V19.432H65.5661ZM64.6181 16.252V16.42C64.6181 19.252 63.3221 21.556 60.1661 23.104L60.7181 23.884C64.3181 22.084 65.6021 19.348 65.6021 16.252H64.6181ZM60.6341 16.252V17.068H65.1461V16.252H60.6341ZM71.5652 22.516V23.344H72.2852C73.6292 23.344 74.8532 23.308 76.3532 23.044L76.2692 22.216C74.8052 22.468 73.6052 22.516 72.2852 22.516H71.5652ZM71.5412 16.264V17.08H74.6372V19.264H71.5652V22.828H72.5372V20.08H75.6092V16.264H71.5412ZM79.4612 15.088V25.936H80.4212V15.088H79.4612ZM77.6252 19.372V20.188H79.7132V19.372H77.6252ZM77.0012 15.328V25.384H77.9372V15.328H77.0012Z" fill="#BDBDBD"/>
</svg>
