<svg width="28" height="46" viewBox="0 0 28 46" fill="none" xmlns="http://www.w3.org/2000/svg">
<path d="M11.6608 34.69V43.83H12.6708V34.69H11.6608ZM7.85078 38.32V39.16H10.0008V38.32H7.85078ZM9.75078 34.91V43.39H10.7308V34.91H9.75078ZM7.78078 35.81V36.01C7.78078 38.19 6.92078 39.88 4.80078 41.15L5.40078 41.89C7.91078 40.42 8.79078 38.3 8.79078 35.81H7.78078ZM5.25078 35.81V36.66H8.14078V35.81H5.25078ZM20.34 34.7V39.89H21.39V34.7H20.34ZM15.41 40.35V43.72H21.39V40.35H15.41ZM20.36 41.18V42.88H16.44V41.18H20.36ZM16.46 35.15C15.06 35.15 14.03 36.03 14.03 37.31C14.03 38.57 15.06 39.47 16.46 39.47C17.86 39.47 18.88 38.57 18.88 37.31C18.88 36.03 17.86 35.15 16.46 35.15ZM16.46 36.02C17.27 36.02 17.86 36.53 17.86 37.31C17.86 38.09 17.27 38.59 16.46 38.59C15.65 38.59 15.05 38.09 15.05 37.31C15.05 36.53 15.65 36.02 16.46 36.02Z" fill="#424242"/>
<path d="M14.7738 6.48484V6.58484H14.8738H21.2838C24.9248 6.58484 27.9 9.78785 27.9 13.742C27.9 17.6961 24.9248 20.9 21.2838 20.9C19.5943 20.9 18.0093 20.222 16.78 18.979L16.7506 18.9493H16.7089H11.2915H11.2498L11.2204 18.979C9.99071 20.222 8.4057 20.9 6.71624 20.9C3.0752 20.9 0.1 17.6961 0.1 13.742C0.1 9.78782 3.07518 6.58484 6.71624 6.58484H13.1266H13.2266V6.48484V1.94403C13.2266 1.47008 13.5801 1.1 14.0002 1.1C14.4203 1.1 14.7738 1.47008 14.7738 1.94403V6.48484ZM17.6232 17.5188L17.6232 17.5189C18.5894 18.6095 19.8895 19.212 21.2838 19.212C24.086 19.212 26.3528 16.7499 26.3528 13.742C26.3528 10.734 24.0859 8.27288 21.2837 8.27288H6.71621C3.91403 8.27288 1.64717 10.7331 1.64717 13.742C1.64717 16.7508 3.91398 19.212 6.71621 19.212C8.1105 19.212 9.41054 18.6094 10.3772 17.5189L10.3772 17.5188C10.5238 17.353 10.7251 17.2612 10.9332 17.2612H17.0672C17.2757 17.2612 17.4766 17.353 17.6232 17.5188Z" fill="#191919" stroke="white" stroke-width="0.2" stroke-miterlimit="10"/>
<path d="M7.44677 12.4533V12.5533H7.54677H8.95327C9.47613 12.5533 9.9 12.9767 9.9 13.5C9.9 14.0233 9.47613 14.4467 8.95327 14.4467H7.54677H7.44677V14.5467V15.9533C7.44677 16.4766 7.02287 16.9 6.5 16.9C5.97714 16.9 5.55327 16.4766 5.55327 15.9533V14.5467V14.4467H5.45327H4.04673C3.52387 14.4467 3.1 14.0233 3.1 13.5C3.1 12.9767 3.52387 12.5533 4.04673 12.5533H5.45327H5.55327V12.4533V11.0467C5.55327 10.5234 5.97714 10.1 6.5 10.1C7.02287 10.1 7.44677 10.5234 7.44677 11.0467V12.4533Z" fill="#191919" stroke="white" stroke-width="0.2" stroke-miterlimit="10"/>
<path d="M21.6572 14.5H21.3428C20.8774 14.5 20.5 14.9472 20.5 15.5C20.5 16.0528 20.8774 16.5 21.3428 16.5H21.6572C22.1226 16.5 22.5 16.0527 22.5 15.5C22.5 14.9473 22.1226 14.5 21.6572 14.5Z" fill="#191919" stroke="#191919" stroke-width="0.1" stroke-miterlimit="10"/>
<path d="M19.6572 12.5H19.3428C18.8774 12.5 18.5 12.9472 18.5 13.5C18.5 14.0528 18.8774 14.5 19.3428 14.5H19.6572C20.1226 14.5 20.5 14.0527 20.5 13.5C20.5 12.9473 20.1226 12.5 19.6572 12.5Z" fill="#191919" stroke="#191919" stroke-width="0.1" stroke-miterlimit="10"/>
<path opacity="0.6" d="M21.6572 10.5H21.3428C20.8774 10.5 20.5 10.9472 20.5 11.5C20.5 12.0528 20.8774 12.5 21.3428 12.5H21.6572C22.1226 12.5 22.5 12.0527 22.5 11.5C22.5 10.9473 22.1226 10.5 21.6572 10.5Z" fill="#0F42F4" stroke="#0F42F4" stroke-width="0.1" stroke-miterlimit="10"/>
<path opacity="0.6" d="M23.6572 12.5H23.3428C22.8774 12.5 22.5 12.9472 22.5 13.5C22.5 14.0528 22.8774 14.5 23.3428 14.5H23.6572C24.1226 14.5 24.5 14.0527 24.5 13.5C24.5 12.9473 24.1226 12.5 23.6572 12.5Z" fill="#0F42F4" stroke="#0F42F4" stroke-width="0.1" stroke-miterlimit="10"/>
<path d="M15 7V2.0327C15 1.46192 14.5523 1 14 1C13.4477 1 13 1.46192 13 2.0327V7" stroke="#191919" stroke-width="0.65" stroke-miterlimit="10"/>
</svg>
