<svg width="310" height="42" viewBox="0 0 310 42" fill="none" xmlns="http://www.w3.org/2000/svg">
<rect width="310" height="42" rx="4" fill="#F5F5F5"/>
<path d="M89.4005 14.688V29.344H91.0805V14.688H89.4005ZM83.2885 15.776C81.1125 15.776 79.5285 17.776 79.5285 20.928C79.5285 24.08 81.1125 26.096 83.2885 26.096C85.4805 26.096 87.0645 24.08 87.0645 20.928C87.0645 17.776 85.4805 15.776 83.2885 15.776ZM83.2885 17.296C84.5685 17.296 85.4485 18.656 85.4485 20.928C85.4485 23.216 84.5685 24.592 83.2885 24.592C82.0085 24.592 81.1285 23.216 81.1285 20.928C81.1285 18.656 82.0085 17.296 83.2885 17.296ZM101.543 18.624V19.984H105.111V18.624H101.543ZM104.199 14.72V25.408H105.879V14.72H104.199ZM96.4073 27.68V29.04H106.247V27.68H96.4073ZM96.4073 24.48V28.432H98.0713V24.48H96.4073ZM97.3353 16.576V17.632C97.3353 19.616 96.0233 21.536 93.7513 22.32L94.5993 23.664C97.2073 22.736 98.6953 20.336 98.6953 17.632V16.576H97.3353ZM97.6713 16.576V17.632C97.6713 20.16 99.0953 22.464 101.623 23.344L102.455 22.032C100.263 21.264 99.0153 19.44 99.0153 17.632V16.576H97.6713ZM94.2313 15.808V17.152H102.071V15.808H94.2313ZM115.68 23.392V25.76H117.36V23.392H115.68ZM121.824 14.704V29.328H123.504V14.704H121.824ZM122.944 20.8V22.192H125.584V20.8H122.944ZM112.128 26.704C114.64 26.704 118.016 26.688 121.136 26.112L121.008 24.88C118.016 25.312 114.48 25.328 111.904 25.328L112.128 26.704ZM112.16 16.4V17.728H120.848V16.4H112.16ZM116.512 18.464C114.448 18.464 113.024 19.552 113.024 21.184C113.024 22.832 114.448 23.904 116.512 23.904C118.576 23.904 120.016 22.832 120.016 21.184C120.016 19.552 118.576 18.464 116.512 18.464ZM116.512 19.744C117.664 19.744 118.432 20.304 118.432 21.184C118.432 22.08 117.664 22.624 116.512 22.624C115.36 22.624 114.608 22.08 114.608 21.184C114.608 20.304 115.36 19.744 116.512 19.744ZM115.68 14.752V17.344H117.36V14.752H115.68ZM133.823 17.152V18.512H137.727V17.152H133.823ZM133.823 20.288V21.648H137.775V20.288H133.823ZM127.423 15.936V22.912H134.207V15.936H127.423ZM132.559 17.264V21.584H129.071V17.264H132.559ZM137.231 14.72V25.376H138.911V14.72H137.231ZM129.391 27.68V29.04H139.247V27.68H129.391ZM129.391 24.4V28.352H131.071V24.4H129.391ZM148.109 15.552C145.069 15.552 142.733 17.184 142.733 19.664C142.733 22.16 145.069 23.792 148.109 23.792C151.165 23.792 153.485 22.16 153.485 19.664C153.485 17.184 151.165 15.552 148.109 15.552ZM148.109 16.912C150.285 16.912 151.869 17.984 151.869 19.664C151.869 21.328 150.285 22.416 148.109 22.416C145.949 22.416 144.365 21.328 144.365 19.664C144.365 17.984 145.949 16.912 148.109 16.912ZM141.517 26.08V27.472H154.765V26.08H141.517ZM156.236 26.24V27.616H169.484V26.24H156.236ZM161.996 23.264V26.8H163.66V23.264H161.996ZM157.788 15.728V17.072H166.236V19.024H157.82V23.072H159.484V20.352H167.9V15.728H157.788ZM157.82 22.384V23.744H168.236V22.384H157.82ZM180.309 18.992V21.696H181.973V18.992H180.309ZM176.245 18.352V19.68H186.197V18.352H176.245ZM176.245 15.232V19.072H177.909V16.576H186.053V15.232H176.245ZM174.533 20.864V22.192H187.749V20.864H174.533ZM176.101 23.216V24.48H184.453V25.536H176.117V28.272H177.781V26.72H186.101V23.216H176.101ZM176.117 27.904V29.184H186.517V27.904H176.117ZM193.155 15.776C190.979 15.776 189.411 17.776 189.411 20.928C189.411 24.08 190.979 26.096 193.155 26.096C195.331 26.096 196.899 24.08 196.899 20.928C196.899 17.776 195.331 15.776 193.155 15.776ZM193.155 17.296C194.419 17.296 195.299 18.656 195.299 20.928C195.299 23.216 194.419 24.592 193.155 24.592C191.891 24.592 191.011 23.216 191.011 20.928C191.011 18.656 191.891 17.296 193.155 17.296ZM198.915 14.704V29.328H200.595V14.704H198.915ZM200.211 20.4V21.792H202.867V20.4H200.211ZM213.634 14.688V29.312H215.314V14.688H213.634ZM214.866 20.48V21.856H217.506V20.48H214.866ZM209.842 16.24V16.528C209.842 20.432 207.906 23.36 203.954 25.376L204.898 26.656C209.682 24.256 211.49 20.496 211.49 16.24H209.842ZM204.69 16.24V17.6H210.706V16.24H204.69ZM229.089 14.704V29.328H230.769V14.704H229.089ZM224.801 16.256V16.544C224.801 20.448 223.025 23.344 218.817 25.376L219.697 26.72C224.721 24.272 226.449 20.592 226.449 16.256H224.801ZM219.537 16.256V17.6H225.553V16.256H219.537Z" fill="#9E9E9E"/>
</svg>
