<svg width="108" height="42" viewBox="0 0 108 42" fill="none" xmlns="http://www.w3.org/2000/svg">
<rect width="108" height="42" rx="4" fill="#F5F5F5"/>
<path d="M41.08 22C42.792 21.616 43.992 20.752 44.616 19.6C45.256 20.64 46.424 21.44 48.072 21.792L48.728 20.512C46.648 20.08 45.432 18.944 45.416 17.632H48.44V16.336H45.416V14.816H43.752V16.336H40.744V17.632H43.768C43.752 19.024 42.52 20.272 40.408 20.736L41.08 22ZM49.192 22.384C46.088 22.816 42.504 22.848 39.816 22.848L40.024 24.208C41.16 24.208 42.424 24.192 43.768 24.144V28.816H45.416V24.048C46.696 23.984 48.024 23.824 49.288 23.6L49.192 22.384ZM50.12 14.784V29.248H51.768V14.784H50.12ZM67.0628 21.616C64.2148 21.136 61.8948 18.992 61.8948 16.752V15.664H60.1508V16.752C60.1508 18.976 57.8307 21.136 54.9668 21.616L55.6708 22.992C58.0228 22.528 60.0708 21.088 61.0308 19.168C61.9588 21.088 64.0068 22.528 66.3748 22.992L67.0628 21.616ZM61.8308 26.08V22.704H60.1828V26.08H54.5348V27.44H67.6228V26.08H61.8308Z" fill="#9E9E9E"/>
</svg>
