<svg width="108" height="108" viewBox="0 0 108 108" fill="none" xmlns="http://www.w3.org/2000/svg">
<g filter="url(#filter0_d_843_4119)">
<circle cx="46" cy="46" r="24" fill="#0F42F4"/>
</g>
<path fill-rule="evenodd" clip-rule="evenodd" d="M47 37C47 36.4477 46.5523 36 46 36C45.4477 36 45 36.4477 45 37V45L37 45C36.4477 45 36 45.4477 36 46C36 46.5523 36.4477 47 37 47L45 47V55C45 55.5523 45.4477 56 46 56C46.5523 56 47 55.5523 47 55V47L55 47C55.5523 47 56 46.5523 56 46C56 45.4477 55.5523 45 55 45L47 45V37Z" fill="white"/>
<defs>
<filter id="filter0_d_843_4119" x="0" y="0" width="108" height="108" filterUnits="userSpaceOnUse" color-interpolation-filters="sRGB">
<feFlood flood-opacity="0" result="BackgroundImageFix"/>
<feColorMatrix in="SourceAlpha" type="matrix" values="0 0 0 0 0 0 0 0 0 0 0 0 0 0 0 0 0 0 127 0" result="hardAlpha"/>
<feMorphology radius="4" operator="dilate" in="SourceAlpha" result="effect1_dropShadow_843_4119"/>
<feOffset dx="8" dy="8"/>
<feGaussianBlur stdDeviation="13"/>
<feComposite in2="hardAlpha" operator="out"/>
<feColorMatrix type="matrix" values="0 0 0 0 0.666927 0 0 0 0 0.701203 0 0 0 0 0.820833 0 0 0 0.4 0"/>
<feBlend mode="normal" in2="BackgroundImageFix" result="effect1_dropShadow_843_4119"/>
<feBlend mode="normal" in="SourceGraphic" in2="effect1_dropShadow_843_4119" result="shape"/>
</filter>
</defs>
</svg>
