<svg width="29" height="48" viewBox="0 0 29 48" fill="none" xmlns="http://www.w3.org/2000/svg">
<path d="M7.5 10.5V9C6.67157 9 6 9.67157 6 10.5H7.5ZM7.503 10.5L9.00259 10.535C9.01202 10.1312 8.85822 9.74072 8.57598 9.4518C8.29373 9.16288 7.9069 9 7.503 9V10.5ZM7.50293 10.503L7.51367 12.003C8.32426 11.9972 8.98359 11.3484 9.00252 10.538L7.50293 10.503ZM7.5 10.503H6C6 10.9027 6.15951 11.2859 6.44314 11.5675C6.72678 11.8491 7.11107 12.0058 7.51074 12.003L7.5 10.503ZM7.5 12H7.503V9H7.5V12ZM6.00341 10.465L6.00334 10.468L9.00252 10.538L9.00259 10.535L6.00341 10.465ZM7.49219 9.00304L7.48926 9.00306L7.51074 12.003L7.51367 12.003L7.49219 9.00304ZM9 10.503V10.5H6V10.503H9Z" fill="#191919"/>
<path d="M7.5 10.5V9.8C7.1134 9.8 6.8 10.1134 6.8 10.5H7.5ZM7.503 10.5L8.20281 10.5163C8.20721 10.3279 8.13544 10.1457 8.00372 10.0108C7.87201 9.87601 7.69149 9.8 7.503 9.8V10.5ZM7.50293 10.503L7.50794 11.203C7.88622 11.2003 8.1939 10.8975 8.20274 10.5193L7.50293 10.503ZM7.5 10.503H6.8C6.8 10.6895 6.87444 10.8683 7.0068 10.9998C7.13916 11.1312 7.3185 11.2043 7.50501 11.203L7.5 10.503ZM7.5 11.2H7.503V9.8H7.5V11.2ZM6.80319 10.4837L6.80312 10.4867L8.20274 10.5193L8.20281 10.5163L6.80319 10.4837ZM7.49792 9.80302L7.49499 9.80304L7.50501 11.203L7.50794 11.203L7.49792 9.80302ZM8.2 10.503V10.5H6.8V10.503H8.2Z" fill="#6F8EF8"/>
<path d="M9.5 4.5V3C8.67157 3 8 3.67157 8 4.5H9.5ZM9.503 4.5L11.0026 4.53503C11.012 4.13125 10.8582 3.74072 10.576 3.4518C10.2937 3.16288 9.9069 3 9.503 3V4.5ZM9.50293 4.503L9.51367 6.00296C10.3243 5.99716 10.9836 5.34842 11.0025 4.53804L9.50293 4.503ZM9.5 4.50302H8C8 4.90271 8.15951 5.28587 8.44314 5.56747C8.72678 5.84908 9.11107 6.00585 9.51074 6.00298L9.5 4.50302ZM9.5 6H9.503V3H9.5V6ZM8.00341 4.46497L8.00334 4.46797L11.0025 4.53804L11.0026 4.53503L8.00341 4.46497ZM9.49219 3.00304L9.48926 3.00306L9.51074 6.00298L9.51367 6.00296L9.49219 3.00304ZM11 4.50302V4.5H8V4.50302H11Z" fill="#191919"/>
<path d="M9.5 4.5V3.8C9.1134 3.8 8.8 4.1134 8.8 4.5H9.5ZM9.503 4.5L10.2028 4.51635C10.2072 4.32791 10.1354 4.14567 10.0037 4.01084C9.87201 3.87601 9.69149 3.8 9.503 3.8V4.5ZM9.50293 4.503L9.50794 5.20298C9.88622 5.20027 10.1939 4.89753 10.2027 4.51935L9.50293 4.503ZM9.5 4.50302H8.8C8.8 4.68954 8.87444 4.86835 9.0068 4.99977C9.13916 5.13118 9.3185 5.20434 9.50501 5.203L9.5 4.50302ZM9.5 5.2H9.503V3.8H9.5V5.2ZM8.80319 4.48365L8.80312 4.48665L10.2027 4.51935L10.2028 4.51635L8.80319 4.48365ZM9.49792 3.80302L9.49499 3.80304L9.50501 5.203L9.50794 5.20298L9.49792 3.80302ZM10.2 4.50302V4.5H8.8V4.50302H10.2Z" fill="#6F8EF8"/>
<path d="M4.7 6.25002C4.7 6.69185 5.05817 7.05002 5.5 7.05002C5.94183 7.05002 6.3 6.69185 6.3 6.25002H4.7ZM12.25 19.7C11.8082 19.7 11.45 20.0582 11.45 20.5C11.45 20.9418 11.8082 21.3 12.25 21.3V19.7ZM27.6733 18.862L26.9605 18.4988L27.6733 18.862ZM26.3617 20.173L25.9985 19.4602L26.3617 20.173ZM26.3617 1.32698L26.7249 0.614175L26.3617 1.32698ZM27.6733 2.63806L26.9605 3.00125L27.6733 2.63806ZM5.82698 2.63806L6.53979 3.00125L5.82698 2.63806ZM7.1377 1.32698L7.50089 2.03979L7.1377 1.32698ZM1.32698 8.63806L2.03979 9.00125L1.32698 8.63806ZM2.6377 7.32698L3.00089 8.03979L2.6377 7.32698ZM2.6377 24.673L3.00089 23.9602L2.6377 24.673ZM1.32698 23.362L0.614175 23.7251L1.32698 23.362ZM11.1733 23.362L10.4605 22.9988L11.1733 23.362ZM9.86168 24.673L9.49849 23.9602L9.86168 24.673ZM11.1733 8.63806L10.4605 9.00125L11.1733 8.63806ZM9.86168 7.32698L10.2249 6.61418L9.86168 7.32698ZM6.3 6.25002V5.80002H4.7V6.25002H6.3ZM10.3003 1.8H23.2003V0.2H10.3003V1.8ZM27.2 5.80002V15.7H28.8V5.80002H27.2ZM23.2 19.7H12.25V21.3H23.2V19.7ZM27.2 15.7C27.2 16.5534 27.1995 17.1452 27.1619 17.6054C27.1252 18.0562 27.0569 18.3096 26.9605 18.4988L28.3861 19.2251C28.6167 18.7726 28.7118 18.2851 28.7566 17.7354C28.8007 17.1951 28.8 16.5268 28.8 15.7H27.2ZM23.2 21.3C24.0269 21.3 24.6951 21.3006 25.2354 21.2564C25.7851 21.2115 26.2725 21.1163 26.7249 20.8858L25.9985 19.4602C25.8092 19.5566 25.5557 19.6249 25.1051 19.6618C24.645 19.6994 24.0533 19.7 23.2 19.7V21.3ZM26.9605 18.4988C26.7498 18.9124 26.4128 19.2491 25.9985 19.4602L26.7249 20.8858C27.4395 20.5216 28.0216 19.9405 28.3861 19.2251L26.9605 18.4988ZM23.2003 1.8C24.0536 1.8 24.6453 1.80062 25.1052 1.83821C25.5558 1.87504 25.8091 1.94331 25.9985 2.03979L26.7249 0.614175C26.2725 0.383667 25.7852 0.288452 25.2356 0.243531C24.6953 0.199377 24.0272 0.2 23.2003 0.2V1.8ZM28.8 5.80002C28.8 4.97322 28.8007 4.30495 28.7566 3.76461C28.7118 3.21493 28.6167 2.7274 28.3861 2.27487L26.9605 3.00125C27.0569 3.19046 27.1252 3.44383 27.1619 3.89465C27.1995 4.35482 27.2 4.94666 27.2 5.80002H28.8ZM25.9985 2.03979C26.4128 2.25087 26.7498 2.58762 26.9605 3.00125L28.3861 2.27487C28.0217 1.55953 27.4396 0.978327 26.7249 0.614175L25.9985 2.03979ZM6.3 5.80002C6.3 4.94674 6.30062 4.3549 6.33822 3.89478C6.37505 3.444 6.44334 3.19055 6.53979 3.00125L5.11418 2.27487C4.88365 2.72731 4.78844 3.21476 4.74353 3.76449C4.69938 4.30487 4.7 4.97314 4.7 5.80002H6.3ZM10.3003 0.2C9.47341 0.2 8.80499 0.199378 8.26446 0.243528C7.71464 0.288436 7.22699 0.383621 6.7745 0.614175L7.50089 2.03979C7.69013 1.94336 7.94371 1.87505 8.39471 1.83822C8.855 1.80062 9.44702 1.8 10.3003 1.8V0.2ZM6.53979 3.00125C6.75081 2.58709 7.08714 2.2506 7.50089 2.03979L6.7745 0.614175C6.05928 0.978599 5.47839 1.56006 5.11418 2.27487L6.53979 3.00125ZM10.7 11.8V20.2H12.3V11.8H10.7ZM6.70029 24.2H5.80029V25.8H6.70029V24.2ZM1.8 20.2V11.8H0.2V20.2H1.8ZM5.80029 7.8H6.70029V6.2H5.80029V7.8ZM1.8 11.8C1.8 10.9467 1.80062 10.3549 1.83822 9.89478C1.87505 9.444 1.94334 9.19055 2.03979 9.00125L0.614175 8.27487C0.383645 8.72731 0.288444 9.21476 0.243529 9.76449C0.199378 10.3049 0.2 10.9731 0.2 11.8H1.8ZM5.80029 6.2C4.97341 6.2 4.30499 6.19938 3.76446 6.24353C3.21464 6.28844 2.72699 6.38362 2.2745 6.61418L3.00089 8.03979C3.19013 7.94336 3.44371 7.87505 3.89471 7.83822C4.355 7.80062 4.94702 7.8 5.80029 7.8V6.2ZM2.03979 9.00125C2.25081 8.58709 2.58714 8.2506 3.00089 8.03979L2.2745 6.61418C1.55928 6.9786 0.978389 7.56006 0.614175 8.27487L2.03979 9.00125ZM5.80029 24.2C4.94703 24.2 4.35501 24.1994 3.89473 24.1618C3.44373 24.1249 3.19015 24.0566 3.00089 23.9602L2.2745 25.3858C2.72698 25.6163 3.21462 25.7115 3.76444 25.7564C4.30498 25.8006 4.9734 25.8 5.80029 25.8V24.2ZM0.2 20.2C0.2 21.0269 0.199378 21.6952 0.243529 22.2355C0.288445 22.7853 0.383646 23.2727 0.614175 23.7251L2.03979 22.9988C1.94333 22.8095 1.87505 22.556 1.83822 22.1052C1.80062 21.6451 1.8 21.0533 1.8 20.2H0.2ZM3.00089 23.9602C2.5871 23.7493 2.2508 23.4129 2.03979 22.9988L0.614175 23.7251C0.978406 24.44 1.55931 25.0214 2.2745 25.3858L3.00089 23.9602ZM10.7 20.2C10.7 21.0534 10.6995 21.6452 10.6619 22.1054C10.6252 22.5562 10.5569 22.8096 10.4605 22.9988L11.8861 23.7251C12.1167 23.2726 12.2118 22.7851 12.2566 22.2354C12.3007 21.6951 12.3 21.0268 12.3 20.2H10.7ZM6.70029 25.8C7.52717 25.8 8.19531 25.8006 8.73558 25.7564C9.28523 25.7115 9.77249 25.6163 10.2249 25.3858L9.49849 23.9602C9.30914 24.0566 9.05578 24.1249 8.60521 24.1618C8.14525 24.1994 7.55357 24.2 6.70029 24.2V25.8ZM10.4605 22.9988C10.2498 23.4124 9.9128 23.7491 9.49849 23.9602L10.2249 25.3858C10.9395 25.0216 11.5216 24.4405 11.8861 23.7251L10.4605 22.9988ZM12.3 11.8C12.3 10.9732 12.3007 10.3049 12.2566 9.76461C12.2118 9.21493 12.1167 8.7274 11.8861 8.27487L10.4605 9.00125C10.5569 9.19046 10.6252 9.44383 10.6619 9.89465C10.6995 10.3548 10.7 10.9467 10.7 11.8H12.3ZM6.70029 7.8C7.55358 7.8 8.14527 7.80062 8.60523 7.83821C9.05581 7.87504 9.30915 7.94331 9.49849 8.03979L10.2249 6.61418C9.77247 6.38367 9.2852 6.28845 8.73556 6.24353C8.1953 6.19938 7.52716 6.2 6.70029 6.2V7.8ZM11.8861 8.27487C11.5217 7.55953 10.9396 6.97833 10.2249 6.61418L9.49849 8.03979C9.91277 8.25087 10.2498 8.58762 10.4605 9.00125L11.8861 8.27487Z" fill="#191919"/>
<path d="M8.35117 36.69V45.83H9.40117V36.69H8.35117ZM5.67117 37.66V37.84C5.67117 40.28 4.56117 42.09 1.93117 43.36L2.48117 44.2C5.62117 42.67 6.70117 40.37 6.70117 37.66H5.67117ZM2.38117 37.66V38.5H6.14117V37.66H2.38117ZM11.2304 42.83V43.69H11.9704C13.6204 43.69 14.8304 43.65 16.2304 43.41L16.1304 42.57C14.7604 42.8 13.5904 42.83 11.9704 42.83H11.2304ZM11.2304 37.49V43.12H12.2804V38.35H15.5004V37.49H11.2304ZM12.0204 40.04V40.87H15.3304V40.04H12.0204ZM16.8904 36.69V45.83H17.9404V36.69H16.8904ZM17.7004 40.27V41.14H19.3604V40.27H17.7004ZM20.5996 37.07V37.91H27.3496V37.07H20.5996ZM20.6496 39.75V40.58H27.2996V39.75H20.6496ZM21.8796 37.43V40.15H22.9296V37.43H21.8796ZM25.0196 37.43V40.15H26.0696V37.43H25.0196ZM19.8496 41.56V42.4H28.1096V41.56H19.8496ZM23.4596 40.31V42.07H24.4996V40.31H23.4596ZM20.8896 44.8V45.65H27.1896V44.8H20.8896ZM20.8896 43.1V45.09H21.9396V43.1H20.8896Z" fill="#424242"/>
</svg>
