<svg width="29" height="47" viewBox="0 0 29 47" fill="none" xmlns="http://www.w3.org/2000/svg">
<path d="M10.8272 5.5H18.1744C18.3937 5.5 18.5037 5.49998 18.5869 5.49066C19.4683 5.39198 20.0722 4.5543 19.8871 3.68695C19.8696 3.60508 19.835 3.50106 19.7656 3.29303C19.6886 3.06205 19.65 2.94652 19.6074 2.8446C19.172 1.8012 18.1869 1.09124 17.0593 1.00812C16.9492 1 16.8273 1 16.5839 1H12.418C12.1745 1 12.0528 1 11.9426 1.00812C10.8151 1.09124 9.8305 1.8012 9.39508 2.8446C9.35256 2.94651 9.31406 3.06199 9.23708 3.29293L9.23706 3.29299L9.2354 3.29797C9.16716 3.50269 9.13281 3.60574 9.11548 3.68695C8.93038 4.5543 9.53415 5.39198 10.4155 5.49066C10.4987 5.49998 10.6079 5.5 10.8272 5.5Z" fill="#0F42F4" fill-opacity="0.6"/>
<path d="M9.23706 3.29299L8.57318 3.07103L8.57298 3.07164L9.23706 3.29299ZM9.23708 3.29293L9.90096 3.51489L9.90116 3.51429L9.23708 3.29293ZM9.39508 2.8446L8.74907 2.57502L8.74907 2.57502L9.39508 2.8446ZM11.9426 1.00812L11.9941 1.70622L11.9426 1.00812ZM10.4155 5.49066L10.4934 4.79501H10.4934L10.4155 5.49066ZM9.2354 3.29797L9.89948 3.51933L9.89948 3.51932L9.2354 3.29797ZM9.11548 3.68695L9.80007 3.83304L9.11548 3.68695ZM19.7656 3.29303L19.1015 3.51439V3.51439L19.7656 3.29303ZM19.8871 3.68695L20.5717 3.54085V3.54085L19.8871 3.68695ZM18.5869 5.49066L18.509 4.79501H18.509L18.5869 5.49066ZM19.6074 2.8446L18.9614 3.11419V3.11419L19.6074 2.8446ZM17.0593 1.00812L17.0079 1.70622L17.0593 1.00812ZM18.1744 4.8H10.8272V6.2H18.1744V4.8ZM12.418 1.7H16.5839V0.3H12.418V1.7ZM9.90094 3.51495L9.90096 3.51489L8.5732 3.07097L8.57319 3.07103L9.90094 3.51495ZM9.90116 3.51429C9.98172 3.27261 10.0109 3.18655 10.0411 3.11419L8.74907 2.57502C8.69422 2.70646 8.64641 2.85136 8.573 3.07157L9.90116 3.51429ZM12.418 0.3C12.1858 0.3 12.0332 0.299541 11.8912 0.310013L11.9941 1.70622C12.0723 1.70046 12.1632 1.7 12.418 1.7V0.3ZM10.0411 3.11419C10.375 2.31412 11.1298 1.76994 11.9941 1.70622L11.8912 0.310013C10.5004 0.412542 9.28605 1.28827 8.74907 2.57502L10.0411 3.11419ZM10.8272 4.8C10.5866 4.8 10.5275 4.79883 10.4934 4.79501L10.3376 6.18631C10.4699 6.20112 10.6291 6.2 10.8272 6.2V4.8ZM8.57298 3.07164L8.57132 3.07662L9.89948 3.51932L9.90114 3.51434L8.57298 3.07164ZM8.57132 3.07661C8.50982 3.26111 8.45854 3.41134 8.4309 3.54085L9.80007 3.83304C9.80709 3.80014 9.8245 3.74427 9.89948 3.51933L8.57132 3.07661ZM10.4934 4.79501C10.0233 4.74238 9.70135 4.29563 9.80007 3.83304L8.4309 3.54085C8.15942 4.81298 9.04496 6.04158 10.3376 6.18632L10.4934 4.79501ZM19.1015 3.51439C19.1777 3.74274 19.1954 3.7995 19.2025 3.83305L20.5717 3.54085C20.5439 3.41066 20.4923 3.25939 20.4297 3.07167L19.1015 3.51439ZM18.1744 6.2C18.3724 6.2 18.5325 6.20113 18.6648 6.18631L18.509 4.79501C18.4749 4.79883 18.415 4.8 18.1744 4.8V6.2ZM19.2025 3.83304C19.3012 4.29553 18.9792 4.74237 18.509 4.79501L18.6648 6.18632C19.9574 6.04159 20.8432 4.81307 20.5717 3.54085L19.2025 3.83304ZM20.4297 3.07167C20.356 2.85066 20.3082 2.7063 20.2534 2.57502L18.9614 3.11419C18.9917 3.18673 19.0212 3.27344 19.1015 3.51439L20.4297 3.07167ZM16.5839 1.7C16.8387 1.7 16.9297 1.70046 17.0079 1.70622L17.1108 0.310013C16.9687 0.299541 16.816 0.3 16.5839 0.3V1.7ZM20.2534 2.57502C19.7164 1.28812 18.5014 0.41253 17.1108 0.310013L17.0079 1.70622C17.8724 1.76996 18.6276 2.31427 18.9614 3.11419L20.2534 2.57502Z" fill="#191919"/>
<path d="M1.32698 7.13806L1.95069 7.45585L1.32698 7.13806ZM2.6377 5.82698L2.95549 6.45069L2.6377 5.82698ZM2.6377 23.173L2.95549 22.5493L2.6377 23.173ZM1.32698 21.862L0.703276 22.1797L1.32698 21.862ZM27.6733 21.862L27.0496 21.5442L27.6733 21.862ZM26.3617 23.173L26.0439 22.5493L26.3617 23.173ZM27.6733 7.13806L27.0496 7.45585L27.6733 7.13806ZM26.3617 5.82698L26.6795 5.20328L26.3617 5.82698ZM9.23608 3.29299L8.57201 3.07163L9.23608 3.29299ZM9.3941 2.8446L8.7481 2.57502L9.3941 2.8446ZM11.9417 1.00812L11.8902 0.310013L11.9417 1.00812ZM10.4146 5.49066L10.4924 4.79501L10.4146 5.49066ZM9.1145 3.68695L9.79909 3.83304L9.1145 3.68695ZM19.7646 3.29303L20.4287 3.07167L19.7646 3.29303ZM19.8861 3.68695L19.2015 3.83304L19.8861 3.68695ZM18.5859 5.49066L18.5081 4.79501L18.5859 5.49066ZM19.6064 2.8446L18.9604 3.11419L19.6064 2.8446ZM17.0584 1.00812L17.1098 0.310013L17.0584 1.00812ZM9.23442 3.29797L9.8985 3.51933L9.89861 3.51902L9.23442 3.29797ZM14.5 18.3C12.4013 18.3 10.7 16.5987 10.7 14.5H9.3C9.3 17.3719 11.6281 19.7 14.5 19.7V18.3ZM10.7 14.5C10.7 12.4013 12.4013 10.7 14.5 10.7V9.3C11.6281 9.3 9.3 11.6281 9.3 14.5H10.7ZM14.5 10.7C16.5987 10.7 18.3 12.4013 18.3 14.5H19.7C19.7 11.6281 17.3719 9.3 14.5 9.3V10.7ZM18.3 14.5C18.3 16.5987 16.5987 18.3 14.5 18.3V19.7C17.3719 19.7 19.7 17.3719 19.7 14.5H18.3ZM27.3 10.3V18.7H28.7V10.3H27.3ZM23.2003 22.8H5.80029V24.2H23.2003V22.8ZM1.7 18.7V10.3H0.3V18.7H1.7ZM5.80029 6.2H23.2003V4.8H5.80029V6.2ZM1.7 10.3C1.7 9.44839 1.70054 8.85177 1.73855 8.38663C1.77588 7.92967 1.84585 7.6616 1.95069 7.45585L0.703276 6.82027C0.481126 7.25626 0.387607 7.72909 0.343197 8.27263C0.299456 8.808 0.3 9.47149 0.3 10.3H1.7ZM5.80029 4.8C4.97176 4.8 4.30812 4.79946 3.7726 4.8432C3.22896 4.8876 2.75594 4.9811 2.3199 5.20328L2.95549 6.45069C3.16119 6.34588 3.42939 6.27589 3.88657 6.23855C4.35188 6.20054 4.94867 6.2 5.80029 6.2V4.8ZM1.95069 7.45585C2.17129 7.0229 2.5229 6.6711 2.95549 6.45069L2.3199 5.20328C1.62352 5.5581 1.05792 6.12425 0.703276 6.82027L1.95069 7.45585ZM5.80029 22.8C4.94868 22.8 4.35189 22.7994 3.88659 22.7614C3.42941 22.7241 3.1612 22.6541 2.95549 22.5493L2.3199 23.7967C2.75593 24.0188 3.22894 24.1124 3.77259 24.1568C4.30811 24.2005 4.97175 24.2 5.80029 24.2V22.8ZM0.3 18.7C0.3 19.5285 0.299456 20.192 0.343197 20.7274C0.387607 21.2709 0.481127 21.7438 0.703276 22.1797L1.95069 21.5442C1.84585 21.3384 1.77588 21.0703 1.73855 20.6134C1.70054 20.1483 1.7 19.5516 1.7 18.7H0.3ZM2.95549 22.5493C2.52287 22.3288 2.17127 21.9771 1.95069 21.5442L0.703276 22.1797C1.05793 22.8758 1.62355 23.4419 2.3199 23.7967L2.95549 22.5493ZM27.3 18.7C27.3 19.5517 27.2995 20.1483 27.2616 20.6135C27.2243 21.0705 27.1544 21.3385 27.0496 21.5442L28.297 22.1797C28.5192 21.7437 28.6127 21.2708 28.657 20.7273C28.7006 20.192 28.7 19.5285 28.7 18.7H27.3ZM23.2003 24.2C24.0288 24.2 24.6922 24.2005 25.2274 24.1568C25.7709 24.1123 26.2435 24.0188 26.6795 23.7967L26.0439 22.5493C25.8381 22.6541 25.5701 22.7241 25.1134 22.7614C24.6484 22.7994 24.0519 22.8 23.2003 22.8V24.2ZM27.0496 21.5442C26.8293 21.9766 26.477 22.3286 26.0439 22.5493L26.6795 23.7967C27.3754 23.4421 27.9422 22.8763 28.297 22.1797L27.0496 21.5442ZM28.7 10.3C28.7 9.47156 28.7006 8.80806 28.657 8.27274C28.6127 7.72924 28.5192 7.25634 28.297 6.82027L27.0496 7.45585C27.1544 7.66152 27.2243 7.92952 27.2616 8.38652C27.2995 8.8517 27.3 9.44832 27.3 10.3H28.7ZM23.2003 6.2C24.0519 6.2 24.6484 6.20054 25.1134 6.23855C25.5701 6.27588 25.8381 6.34584 26.0439 6.45069L26.6795 5.20328C26.2435 4.98115 25.7709 4.88761 25.2274 4.8432C24.6922 4.79946 24.0288 4.8 23.2003 4.8V6.2ZM28.297 6.82027C27.9422 6.12378 27.3754 5.55786 26.6795 5.20328L26.0439 6.45069C26.4769 6.67134 26.8293 7.02337 27.0496 7.45585L28.297 6.82027ZM18.1735 4.8H10.8262V6.2H18.1735V4.8ZM12.417 1.7H16.5829V0.3H12.417V1.7ZM9.90016 3.51435C9.98073 3.27263 10.0099 3.18656 10.0401 3.11419L8.7481 2.57502C8.69324 2.70647 8.64542 2.85139 8.57201 3.07163L9.90016 3.51435ZM12.417 0.3C12.1848 0.3 12.0322 0.299541 11.8902 0.310013L11.9931 1.70622C12.0713 1.70046 12.1622 1.7 12.417 1.7V0.3ZM10.0401 3.11419C10.374 2.31412 11.1288 1.76994 11.9931 1.70622L11.8902 0.310013C10.4994 0.412542 9.28507 1.28827 8.7481 2.57502L10.0401 3.11419ZM10.8262 4.8C10.5857 4.8 10.5266 4.79883 10.4924 4.79501L10.3367 6.18632C10.4689 6.20112 10.6281 6.2 10.8262 6.2V4.8ZM8.57201 3.07163C8.50958 3.2589 8.45772 3.41058 8.42992 3.54085L9.79909 3.83304C9.80623 3.79959 9.8239 3.74314 9.90016 3.51435L8.57201 3.07163ZM10.4924 4.79501C10.0224 4.74238 9.70037 4.29563 9.79909 3.83304L8.42992 3.54085C8.15844 4.81298 9.04398 6.04158 10.3367 6.18632L10.4924 4.79501ZM19.1006 3.51439C19.1767 3.74274 19.1944 3.7995 19.2015 3.83304L20.5707 3.54085C20.5429 3.41066 20.4913 3.25939 20.4287 3.07167L19.1006 3.51439ZM18.1735 6.2C18.3714 6.2 18.5316 6.20113 18.6638 6.18632L18.5081 4.79501C18.474 4.79883 18.4141 4.8 18.1735 4.8V6.2ZM19.2015 3.83304C19.3002 4.29553 18.9782 4.74237 18.5081 4.79501L18.6638 6.18632C19.9564 6.04159 20.8422 4.81307 20.5707 3.54085L19.2015 3.83304ZM20.4287 3.07167C20.3551 2.85066 20.3072 2.7063 20.2525 2.57502L18.9604 3.11419C18.9907 3.18673 19.0203 3.27344 19.1006 3.51439L20.4287 3.07167ZM16.5829 1.7C16.8377 1.7 16.9287 1.70046 17.0069 1.70622L17.1098 0.310013C16.9678 0.299541 16.815 0.3 16.5829 0.3V1.7ZM20.2525 2.57502C19.7154 1.28812 18.5004 0.41253 17.1098 0.310013L17.0069 1.70622C17.8714 1.76996 18.6266 2.31427 18.9604 3.11419L20.2525 2.57502ZM8.5719 3.07194L8.57024 3.07693L9.89861 3.51902L9.90027 3.51403L8.5719 3.07194ZM8.57035 3.07661C8.50885 3.26109 8.45756 3.41133 8.42992 3.54085L9.79909 3.83304C9.80611 3.80014 9.82352 3.74429 9.8985 3.51933L8.57035 3.07661Z" fill="#191919"/>
<path d="M4.55117 36.61V36.73C4.55117 39.25 3.75117 41.16 0.881172 42.59L1.45117 43.39C4.78117 41.72 5.57117 39.33 5.57117 36.61H4.55117ZM1.41117 36.61V37.45H5.17117V36.61H1.41117ZM4.49117 38.86L0.941172 39.09L1.09117 40L4.49117 39.67V38.86ZM6.89117 35.68V44.82H7.94117V35.68H6.89117ZM7.66117 39.3V40.16H9.31117V39.3H7.66117ZM10.1504 36.69V42.45H13.6904V36.69H10.1504ZM12.7104 37.52V41.63H11.1304V37.52H12.7104ZM16.6604 35.69V44.83H17.6604V35.69H16.6604ZM13.1604 39.08V39.93H15.2404V39.08H13.1604ZM14.8204 35.86V44.39H15.8104V35.86H14.8204ZM24.8996 35.68V44.84H25.9396V35.68H24.8996ZM25.6996 39.24V40.11H27.3596V39.24H25.6996ZM19.2296 41.81V42.68H19.9696C21.6496 42.68 22.8796 42.61 24.2796 42.36L24.1796 41.51C22.8096 41.76 21.6096 41.81 19.9696 41.81H19.2296ZM19.2096 36.5V37.35H22.3296V39.05H19.2296V42.15H20.2596V39.9H23.3696V36.5H19.2096Z" fill="#424242"/>
</svg>
