<svg width="24" height="44" viewBox="0 0 24 44" fill="none" xmlns="http://www.w3.org/2000/svg">
<path d="M15.5704 33.51H12.4004V32.65H11.5804V33.51H8.35039V34.15H15.5704V33.51ZM9.73039 39.69H14.2504V41H9.73039V39.69ZM8.93039 41.62H15.0504V39.07H8.93039V41.62ZM9.95039 35.77C9.95039 35.33 10.6804 35.08 11.9904 35.08C13.2804 35.08 14.0104 35.33 14.0104 35.77C14.0104 36.22 13.2804 36.47 11.9904 36.47C10.6804 36.47 9.95039 36.22 9.95039 35.77ZM12.4004 37.72V37.04C13.9804 36.98 14.8804 36.54 14.8804 35.77C14.8804 34.94 13.8304 34.5 11.9904 34.5C10.1304 34.5 9.09039 34.94 9.09039 35.77C9.09039 36.54 9.98039 36.98 11.5804 37.04V37.72H7.93039V38.37H16.0304V37.72H12.4004Z" fill="#9E9E9E"/>
<path d="M12.8378 1.81842L12.3292 2.43593V2.43593L12.8378 1.81842ZM22.4081 9.70105L21.8995 10.3186L22.4081 9.70105ZM1.46689 9.70104L1.9755 10.3186H1.9755L1.46689 9.70104ZM11.0372 1.81842L10.5286 1.20092V1.20092L11.0372 1.81842ZM12.3292 2.43593L21.8995 10.3186L22.9167 9.08354L13.3464 1.20092L12.3292 2.43593ZM22.075 10.6696V22.088H23.675V10.6696H22.075ZM1.8 22.088V10.6696H0.2V22.088H1.8ZM1.9755 10.3186L11.5458 2.43593L10.5286 1.20092L0.958277 9.08354L1.9755 10.3186ZM7.83594 22.575H2.36719V24.175H7.83594V22.575ZM21.5078 22.575H16.0391V24.175H21.5078V22.575ZM8.40312 16.9402V22.088H10.0031V16.9402H8.40312ZM15.4719 22.088V16.9402H13.8719V22.088H15.4719ZM13.3047 14.8532H10.5703V16.4532H13.3047V14.8532ZM15.4719 16.9402C15.4719 15.7427 14.4553 14.8532 13.3047 14.8532V16.4532C13.6642 16.4532 13.8719 16.7162 13.8719 16.9402H15.4719ZM10.0031 16.9402C10.0031 16.7162 10.2108 16.4532 10.5703 16.4532V14.8532C9.41967 14.8532 8.40312 15.7427 8.40312 16.9402H10.0031ZM16.0391 22.575C15.6795 22.575 15.4719 22.3121 15.4719 22.088H13.8719C13.8719 23.2855 14.8884 24.175 16.0391 24.175V22.575ZM7.83594 24.175C8.98658 24.175 10.0031 23.2855 10.0031 22.088H8.40312C8.40312 22.3121 8.19545 22.575 7.83594 22.575V24.175ZM1.8 10.6696C1.8 10.5472 1.85569 10.4172 1.9755 10.3186L0.958277 9.08354C0.484687 9.47361 0.2 10.0497 0.2 10.6696H1.8ZM0.2 22.088C0.2 23.2855 1.21655 24.175 2.36719 24.175V22.575C2.00767 22.575 1.8 22.3121 1.8 22.088H0.2ZM22.075 22.088C22.075 22.3121 21.8673 22.575 21.5078 22.575V24.175C22.6584 24.175 23.675 23.2855 23.675 22.088H22.075ZM21.8995 10.3186C22.0193 10.4172 22.075 10.5472 22.075 10.6696H23.675C23.675 10.0497 23.3903 9.47361 22.9167 9.08354L21.8995 10.3186ZM13.3464 1.20092C12.5355 0.533028 11.3395 0.533027 10.5286 1.20092L11.5458 2.43593C11.7659 2.25469 12.1091 2.25469 12.3292 2.43593L13.3464 1.20092Z" fill="#191919"/>
</svg>
