<svg width="310" height="42" viewBox="0 0 310 42" fill="none" xmlns="http://www.w3.org/2000/svg">
<rect width="310" height="42" rx="4" fill="#F44336"/>
<path d="M120.151 14.704V22.56H121.831V14.704H120.151ZM112.279 23.248V29.152H121.831V23.248H120.167V24.832H113.927V23.248H112.279ZM113.927 26.144H120.167V27.808H113.927V26.144ZM113.943 15.36C111.703 15.36 110.055 16.752 110.055 18.768C110.055 20.768 111.703 22.176 113.943 22.176C116.183 22.176 117.815 20.768 117.815 18.768C117.815 16.752 116.183 15.36 113.943 15.36ZM113.943 16.752C115.255 16.752 116.183 17.552 116.183 18.768C116.183 19.984 115.255 20.784 113.943 20.784C112.631 20.784 111.687 19.984 111.687 18.768C111.687 17.552 112.631 16.752 113.943 16.752ZM127.974 16.928V17.504C127.974 19.088 126.662 20.528 124.406 21.072L125.142 22.368C127.782 21.696 129.334 19.808 129.334 17.504V16.928H127.974ZM128.294 16.928V17.504C128.294 19.664 129.814 21.472 132.438 22.096L133.158 20.816C130.934 20.304 129.654 18.96 129.654 17.504V16.928H128.294ZM124.902 16.096V17.44H132.726V16.096H124.902ZM127.974 14.656V16.8H129.654V14.656H127.974ZM134.23 14.704V22.352H135.91V14.704H134.23ZM135.206 17.808V19.184H137.958V17.808H135.206ZM126.47 23.024V24.32H134.262V25.456H126.486V28.624H128.15V26.656H135.91V23.024H126.47ZM126.486 27.904V29.2H136.39V27.904H126.486ZM146.798 17.36V17.552C146.798 18.976 145.566 20.256 143.39 20.704L144.078 22.016C146.702 21.424 148.158 19.696 148.158 17.552V17.36H146.798ZM147.118 17.36V17.552C147.118 19.6 148.574 21.248 151.15 21.808L151.822 20.512C149.694 20.064 148.478 18.896 148.478 17.552V17.36H147.118ZM143.742 16.272V17.568H151.518V16.272H143.742ZM146.782 14.736V17.184H148.478V14.736H146.782ZM146.798 23.04V28.896H148.478V23.04H146.798ZM153.23 14.704V29.328H154.894V14.704H153.23ZM143.022 24.24C145.694 24.24 149.166 24.192 152.398 23.632L152.286 22.416C149.15 22.832 145.534 22.848 142.814 22.848L143.022 24.24ZM157.533 26.128V27.504H170.781V26.128H157.533ZM163.245 22.72V26.544H164.909V22.72H163.245ZM163.197 15.6V16.704C163.197 18.944 160.861 21.136 157.949 21.632L158.653 23.024C161.981 22.368 164.653 19.824 164.653 16.704V15.6H163.197ZM163.501 15.6V16.704C163.501 19.84 166.173 22.368 169.517 23.024L170.221 21.632C167.309 21.136 164.973 18.976 164.973 16.704V15.6H163.501ZM181.916 14.704V29.328H183.58V14.704H181.916ZM183.196 20.576V21.968H185.852V20.576H183.196ZM172.172 16.96V18.304H180.748V16.96H172.172ZM176.508 19.36C174.412 19.36 172.876 20.768 172.876 22.768C172.876 24.784 174.412 26.192 176.508 26.192C178.588 26.192 180.124 24.784 180.124 22.768C180.124 20.768 178.588 19.36 176.508 19.36ZM176.508 20.736C177.676 20.736 178.524 21.536 178.524 22.768C178.524 24 177.676 24.816 176.508 24.816C175.324 24.816 174.476 24 174.476 22.768C174.476 21.536 175.324 20.736 176.508 20.736ZM175.644 14.912V17.52H177.324V14.912H175.644ZM197.354 14.704V29.328H199.034V14.704H197.354ZM193.066 16.256V16.544C193.066 20.448 191.29 23.344 187.082 25.376L187.962 26.72C192.986 24.272 194.714 20.592 194.714 16.256H193.066ZM187.802 16.256V17.6H193.818V16.256H187.802Z" fill="white"/>
</svg>
