<svg width="258" height="154" viewBox="0 0 258 154" fill="none" xmlns="http://www.w3.org/2000/svg">
<path d="M27 0.479998V37.64H32.36V0.479998H27ZM3.44 3.44V29H21.64V3.44H16.36V12.44H8.72V3.44H3.44ZM8.72 16.56H16.36V24.72H8.72V16.56ZM63.0369 0.52V22.6H68.3969V0.52H63.0369ZM39.6769 16.16V20.44H42.9169C51.2769 20.44 55.7969 20.24 60.7169 19.28L60.1969 15C55.3969 16 51.0369 16.16 42.9169 16.16H39.6769ZM39.6769 3.28V18.6H44.9569V7.52H57.2369V3.28H39.6769ZM55.8369 23C48.0369 23 43.1969 25.72 43.1969 30.32C43.1969 34.92 48.0369 37.6 55.8369 37.6C63.6369 37.6 68.5569 34.92 68.5569 30.32C68.5569 25.72 63.6369 23 55.8369 23ZM55.8369 27.16C60.6769 27.16 63.2369 28.16 63.2369 30.32C63.2369 32.44 60.6769 33.52 55.8369 33.52C51.0369 33.52 48.5169 32.44 48.5169 30.32C48.5169 28.16 51.0369 27.16 55.8369 27.16ZM90.3538 2.36C82.5538 2.36 76.5138 6.64 76.5138 13.08C76.5138 19.56 82.5538 23.8 90.3538 23.8C98.1538 23.8 104.194 19.56 104.194 13.08C104.194 6.64 98.1538 2.36 90.3538 2.36ZM90.3538 6.68C95.3938 6.68 98.9938 9.08 98.9938 13.08C98.9938 17.04 95.3938 19.44 90.3538 19.44C85.3138 19.44 81.7138 17.04 81.7138 13.08C81.7138 9.08 85.3138 6.68 90.3538 6.68ZM73.6338 28.76V33.12H107.154V28.76H73.6338ZM109.631 29.16V33.48H143.151V29.16H109.631ZM123.671 22.16V30.92H128.991V22.16H123.671ZM113.391 2.92V7.12H134.111V11.08H113.471V21.48H118.751V15.24H139.391V2.92H113.391ZM113.471 19.36V23.64H140.231V19.36H113.471ZM8.44 61.72V67.96C8.44 74.24 6.44 80.88 0.92 84.2L4.2 88.12C10.16 84.52 12.52 76.36 12.52 67.96V61.72H8.44ZM9.48 61.72V67.56C9.48 76.04 11.36 83.68 17.36 87.04L20.44 82.84C15.28 80 13.6 73.96 13.6 67.56V61.72H9.48ZM28.36 58.52V95.56H33.44V58.52H28.36ZM23.92 72.92V77.2H30.04V72.92H23.92ZM20.36 59.08V93.88H25.36V59.08H20.36ZM37.6369 87.16V91.48H71.1569V87.16H37.6369ZM51.6769 80.16V88.92H56.9969V80.16H51.6769ZM41.3969 60.92V65.12H62.1169V69.08H41.4769V79.48H46.7569V73.24H67.3969V60.92H41.3969ZM41.4769 77.36V81.64H68.2369V77.36H41.4769ZM73.5938 76.52V80.72H107.154V76.52H73.5938ZM87.9538 79.28V87.08H93.3538V79.28H87.9538ZM77.5138 90.64V94.92H103.474V90.64H77.5138ZM77.5138 83.84V91.72H82.8738V83.84H77.5138ZM90.3538 59.2C82.3538 59.2 77.0338 62.2 77.0338 66.88C77.0338 71.6 82.3538 74.56 90.3538 74.56C98.3138 74.56 103.674 71.6 103.674 66.88C103.674 62.2 98.3138 59.2 90.3538 59.2ZM90.3538 63.4C95.0338 63.4 97.9538 64.6 97.9538 66.88C97.9538 69.16 95.0338 70.32 90.3538 70.32C85.6738 70.32 82.7538 69.16 82.7538 66.88C82.7538 64.6 85.6738 63.4 90.3538 63.4ZM90.3538 117.04C81.8738 117.04 76.9538 119.28 76.9538 123.36C76.9538 127.44 81.8738 129.68 90.3538 129.68C98.7938 129.68 103.754 127.44 103.754 123.36C103.754 119.28 98.7938 117.04 90.3538 117.04ZM90.3538 120.92C95.7138 120.92 98.2338 121.72 98.2338 123.36C98.2338 125.08 95.7138 125.8 90.3538 125.8C84.9938 125.8 82.4738 125.08 82.4738 123.36C82.4738 121.72 84.9938 120.92 90.3538 120.92ZM73.5938 131.4V135.6H107.074V131.4H73.5938ZM77.4338 137.68V141.64H97.7938V143.52H77.4738V150.48H82.7138V147.2H103.034V137.68H77.4338ZM77.4738 149.32V153.32H103.994V149.32H77.4738ZM135.053 120.24V124.36H144.533V120.24H135.053ZM135.053 127.76V131.88H144.533V127.76H135.053ZM128.093 117.52C122.493 117.52 118.293 121.08 118.293 126.12C118.293 131.08 122.493 134.64 128.093 134.64C133.693 134.64 137.853 131.08 137.853 126.12C137.853 121.08 133.693 117.52 128.093 117.52ZM128.093 121.84C130.853 121.84 132.813 123.4 132.813 126.12C132.813 128.8 130.853 130.36 128.093 130.36C125.333 130.36 123.373 128.8 123.373 126.12C123.373 123.4 125.333 121.84 128.093 121.84ZM143.533 116.52V135.04H148.853V116.52H143.533ZM124.373 136.6V140.68H143.573V142.84H124.413V151.2H129.693V146.68H148.853V136.6H124.373ZM124.413 149.04V153.16H149.893V149.04H124.413ZM177.53 116.48V153.64H182.89V116.48H177.53ZM181.69 130.2V134.56H188.25V130.2H181.69ZM155.29 140.32V144.72H158.41C164.85 144.72 169.93 144.56 175.53 143.56L175.01 139.16C169.57 140.12 164.65 140.32 158.41 140.32H155.29ZM155.29 119.92V142.44H160.57V124.2H172.57V119.92H155.29Z" fill="white"/>
<path d="M131.933 77.12V83.64H137.253V77.12H131.933ZM117.853 75.36V79.56H151.333V75.36H117.853ZM134.533 82.2C126.493 82.2 121.653 84.6 121.653 88.88C121.653 93.16 126.493 95.56 134.533 95.56C142.533 95.56 147.373 93.16 147.373 88.88C147.373 84.6 142.533 82.2 134.533 82.2ZM134.533 86.2C139.493 86.2 142.013 87.04 142.013 88.88C142.013 90.68 139.493 91.56 134.533 91.56C129.573 91.56 127.053 90.68 127.053 88.88C127.053 87.04 129.573 86.2 134.533 86.2ZM130.933 62V62.92C130.933 65.8 127.373 69.08 119.253 69.76L121.093 73.92C130.653 73.04 135.653 68.48 135.653 62.92V62H130.933ZM133.533 62V62.92C133.533 68.52 138.573 73.04 148.093 73.92L149.933 69.76C141.773 69.08 138.253 65.84 138.253 62.92V62H133.533ZM120.893 60.04V64.24H148.333V60.04H120.893ZM157.29 61.64V65.92H180.77V61.64H157.29ZM153.89 86.8V91.12H187.37V86.8H153.89ZM165.73 74.08V88.92H171.05V74.08H165.73ZM178.85 61.64V65.2C178.85 69.64 178.85 75 177.37 82.36L182.69 82.96C184.17 75.04 184.17 69.84 184.17 65.2V61.64H178.85ZM215.527 58.52V95.56H220.847V58.52H215.527ZM208.367 72.72V77.04H218.087V72.72H208.367ZM203.367 62.36V63.32C203.367 73.12 199.887 79.84 189.407 85.04L192.207 89.2C205.047 82.76 208.607 73.6 208.607 62.36H203.367ZM191.167 62.36V66.56H206.167V62.36H191.167ZM226.844 83V87.4H229.444C233.964 87.4 237.964 87.28 242.684 86.48L242.284 82.2C237.724 82.92 233.844 83 229.444 83H226.844ZM226.804 62.12V66.36H235.684V72.24H226.844V84.6H232.004V76.44H240.844V62.12H226.804ZM252.604 58.52V95.56H257.644V58.52H252.604ZM247.644 72.52V76.76H253.804V72.52H247.644ZM244.324 59.16V93.8H249.244V59.16H244.324ZM10.64 119.36V124.76C10.64 131.96 7.6 139.08 1.16 141.88L4.32 146.28C11.68 142.88 14.96 134.28 14.96 124.76V119.36H10.64ZM11.68 119.36V124.76C11.68 133.88 14.96 142.12 22.12 145.4L25.24 141.12C18.92 138.4 16 131.6 16 124.76V119.36H11.68ZM27 116.48V153.64H32.36V116.48H27ZM45.8369 120.64V122.96C45.8369 127.68 43.2369 132.52 37.0769 134.56L39.7169 138.76C46.8769 136.4 50.1969 130.04 50.1969 122.96V120.64H45.8369ZM46.9169 120.64V122.96C46.9169 129.56 50.1169 135.36 57.1569 137.48L59.6769 133.32C53.7169 131.52 51.2369 127.28 51.2369 122.96V120.64H46.9169ZM38.4769 119V123.24H58.4769V119H38.4769ZM61.4369 116.52V138.48H66.7569V116.52H61.4369ZM65.2769 125.04V129.4H71.6769V125.04H65.2769ZM54.6769 139.16C46.9569 139.16 42.1169 141.84 42.1169 146.36C42.1169 150.88 46.9569 153.56 54.6769 153.56C62.3569 153.56 67.1969 150.88 67.1969 146.36C67.1969 141.84 62.3569 139.16 54.6769 139.16ZM54.6769 143.32C59.3969 143.32 61.9169 144.28 61.9169 146.36C61.9169 148.44 59.3969 149.48 54.6769 149.48C49.9569 149.48 47.3969 148.44 47.3969 146.36C47.3969 144.28 49.9569 143.32 54.6769 143.32Z" fill="#0F42F4"/>
</svg>
