<svg width="28" height="46" viewBox="0 0 28 46" fill="none" xmlns="http://www.w3.org/2000/svg">
<path d="M8.05594 43H9.09594V39.36C9.09594 38.7 9.00594 37.75 8.95594 37.08H8.99594L9.57594 38.78L10.8659 42.29H11.5859L12.8659 38.78L13.4559 37.08H13.4959C13.4359 37.75 13.3459 38.7 13.3459 39.36V43H14.4259V35.63H13.0859L11.7559 39.36C11.5859 39.85 11.4459 40.35 11.2759 40.84H11.2259C11.0559 40.35 10.9059 39.85 10.7359 39.36L9.38594 35.63H8.05594V43ZM17.5667 43H18.7267V40.21L20.9467 35.63H19.7367L18.8767 37.59C18.6567 38.14 18.4167 38.65 18.1767 39.21H18.1367C17.8867 38.65 17.6767 38.14 17.4467 37.59L16.5967 35.63H15.3567L17.5667 40.21V43Z" fill="#191919"/>
<path d="M4.66699 24.5001C4.66699 21.2784 8.84567 18.6667 14.0003 18.6667C19.155 18.6667 23.3337 21.2784 23.3337 24.5001" stroke="#191919" stroke-width="1.6" stroke-linecap="round" stroke-linejoin="round"/>
<path d="M14.0003 15.1667C17.222 15.1667 19.8337 12.555 19.8337 9.33333C19.8337 6.11167 17.222 3.5 14.0003 3.5C10.7787 3.5 8.16699 6.11167 8.16699 9.33333C8.16699 12.555 10.7787 15.1667 14.0003 15.1667Z" fill="#191919" stroke="#191919" stroke-width="1.6" stroke-linecap="round" stroke-linejoin="round"/>
</svg>
