<svg width="67" height="18" viewBox="0 0 67 18" fill="none" xmlns="http://www.w3.org/2000/svg">
<rect width="67" height="18" rx="4" fill="#424242"/>
<path d="M9.54 9.896V12.224H10.8V9.896H9.54ZM9.528 6.02V6.26C9.528 7.604 8.568 8.804 6.888 9.272L7.452 10.244C9.408 9.68 10.536 8.144 10.536 6.26V6.02H9.528ZM9.792 6.02V6.26C9.792 8.084 10.944 9.596 12.9 10.136L13.464 9.164C11.784 8.708 10.8 7.556 10.8 6.26V6.02H9.792ZM7.176 5.396V6.404H13.188V5.396H7.176ZM9.54 4.112V5.84H10.8V4.112H9.54ZM14.316 4.016V15.008H15.576V4.016H14.316ZM6.756 12.848C8.688 12.836 11.328 12.824 13.752 12.368L13.656 11.444C11.292 11.792 8.556 11.816 6.6 11.816L6.756 12.848ZM21.6591 7.94V9.944H22.9071V7.94H21.6591ZM17.3391 9.392V10.4H27.2511V9.392H17.3391ZM22.2831 11.168C19.9191 11.168 18.5031 11.852 18.5031 13.076C18.5031 14.3 19.9191 14.984 22.2831 14.984C24.6471 14.984 26.0631 14.3 26.0631 13.076C26.0631 11.852 24.6471 11.168 22.2831 11.168ZM22.2831 12.128C23.9031 12.128 24.7911 12.452 24.7911 13.076C24.7911 13.712 23.9031 14.036 22.2831 14.036C20.6631 14.036 19.7751 13.712 19.7751 13.076C19.7751 12.452 20.6631 12.128 22.2831 12.128ZM21.4551 4.988V5.288C21.4551 6.356 19.9911 7.328 17.8311 7.532L18.2751 8.528C20.7951 8.252 22.5711 7.004 22.5711 5.288V4.988H21.4551ZM22.0311 4.988V5.288C22.0311 7.004 23.8071 8.252 26.3271 8.528L26.7711 7.532C24.5991 7.328 23.1351 6.356 23.1351 5.288V4.988H22.0311ZM18.2511 4.508V5.516H26.3631V4.508H18.2511ZM35.4461 4.028V10.34H36.7061V4.028H35.4461ZM36.3581 6.656V7.7H38.2541V6.656H36.3581ZM29.5541 10.892V11.912H35.4461V14.996H36.7061V10.892H29.5541ZM28.6301 4.652V9.128H29.8901V4.652H28.6301ZM28.6301 8.612V9.656H29.5181C31.1141 9.656 32.7821 9.548 34.5941 9.188L34.4501 8.168C32.6861 8.516 31.0541 8.612 29.5181 8.612H28.6301ZM41.5532 5.696V6.128C41.5532 7.316 40.5692 8.396 38.8772 8.804L39.4292 9.776C41.4092 9.272 42.5732 7.856 42.5732 6.128V5.696H41.5532ZM41.7932 5.696V6.128C41.7932 7.748 42.9332 9.104 44.9012 9.572L45.4412 8.612C43.7732 8.228 42.8132 7.22 42.8132 6.128V5.696H41.7932ZM39.2492 5.072V6.08H45.1172V5.072H39.2492ZM41.5532 3.992V5.6H42.8132V3.992H41.5532ZM46.2452 4.028V9.764H47.5052V4.028H46.2452ZM46.9772 6.356V7.388H49.0412V6.356H46.9772ZM40.4252 10.268V11.24H46.2692V12.092H40.4372V14.468H41.6852V12.992H47.5052V10.268H40.4252ZM40.4372 13.928V14.9H47.8652V13.928H40.4372ZM52.3403 5.672V7.208C52.3403 9.044 51.2123 11.108 49.5323 11.912L50.2523 12.908C52.1003 11.996 53.3363 9.572 53.3363 7.208V5.672H52.3403ZM52.5923 5.672V7.208C52.5923 9.452 53.7803 11.744 55.6283 12.632L56.3363 11.636C54.6563 10.856 53.5883 8.912 53.5883 7.208V5.672H52.5923ZM49.9403 5.12V6.164H55.9043V5.12H49.9403ZM56.9843 4.028V14.996H58.2443V4.028H56.9843ZM57.9563 8.348V9.392H59.9483V8.348H57.9563Z" fill="white"/>
</svg>
