<svg width="118" height="34" viewBox="0 0 118 34" fill="none" xmlns="http://www.w3.org/2000/svg">
<rect x="0.25" y="0.25" width="117.5" height="33.5" rx="3.75" stroke="#BDBDBD" stroke-width="0.5"/>
<path d="M42.676 16.996C41.548 17.224 40.588 17.284 39.052 17.284V15.82H42.136V15.064H39.052V13.708H42.256V12.916H38.104V18.088H38.788C40.516 18.088 41.536 18.04 42.772 17.788L42.676 16.996ZM39.484 20.008H45.736V22.888H46.72V19.216H39.484V20.008ZM45.772 12.136V14.932H44.332V12.328H43.396V18.58H44.332V15.736H45.772V18.652H46.72V12.136H45.772ZM52.2511 19.396H49.9951V16.552H52.2511V19.396ZM52.2511 15.772H49.9951V13.144H49.0591V20.188H53.1751V13.144H52.2511V15.772ZM56.8831 12.124V16.384H55.4311V12.364H54.5071V22.36H55.4311V17.188H56.8831V22.888H57.8191V12.124H56.8831ZM60.1821 13.288V14.08H64.1061C63.9261 16.6 62.5941 18.652 59.7021 20.068L60.2421 20.836C63.8181 19.072 65.0901 16.348 65.0901 13.288H60.1821ZM67.5861 12.136V16.444H65.0661V17.248H67.5861V22.888H68.5701V12.136H67.5861ZM72.0612 17.08H75.1212V13.3H71.0772V14.104H74.1612V16.276H71.1132V20.308H71.8212C73.1532 20.308 74.3652 20.26 75.8532 20.008L75.7812 19.192C74.4132 19.432 73.2852 19.48 72.0612 19.492V17.08ZM78.9492 12.124V16.372H77.4252V12.364H76.5012V22.336H77.4252V17.176H78.9492V22.876H79.8972V12.124H78.9492Z" fill="#BDBDBD"/>
</svg>
