<svg width="51" height="47" viewBox="0 0 51 47" fill="none" xmlns="http://www.w3.org/2000/svg">
<path d="M1.12086 41.83V42.69H1.88086C3.57086 42.69 4.82086 42.65 6.25086 42.41L6.15086 41.57C4.75086 41.79 3.54086 41.83 1.88086 41.83H1.12086ZM1.12086 36.49V42.12H2.16086V37.35H5.64086V36.49H1.12086ZM1.92086 39.04V39.87H5.28086V39.04H1.92086ZM7.08086 35.69V44.83H8.13086V35.69H7.08086ZM16.0601 35.68V44.84H17.1101V35.68H16.0601ZM10.0701 36.44V42.67H14.4601V36.44H13.4201V38.77H11.1101V36.44H10.0701ZM11.1101 39.59H13.4201V41.82H11.1101V39.59ZM20.9693 41.15C21.3893 41.15 21.7393 40.8 21.7393 40.34C21.7393 39.86 21.3893 39.52 20.9693 39.52C20.5293 39.52 20.1993 39.86 20.1993 40.34C20.1993 40.8 20.5293 41.15 20.9693 41.15ZM24.1315 42.85V43.71H32.4115V42.85H24.1315ZM27.7315 40.64V43.07H28.7715V40.64H27.7315ZM25.0515 36.41V40.8H31.4415V36.41H25.0515ZM30.4215 37.25V39.96H26.0815V37.25H30.4215ZM39.6307 35.69V44.83H40.6707V35.69H39.6307ZM33.6607 36.57V42.24H34.7007V36.57H33.6607ZM33.6607 41.62V42.52H34.4407C35.8607 42.52 37.3307 42.42 38.9107 42.09L38.7907 41.21C37.2607 41.52 35.8007 41.62 34.4407 41.62H33.6607ZM48.6699 35.68V44.84H49.7099V35.68H48.6699ZM46.9199 39.03V39.89H48.8099V39.03H46.9199ZM42.5399 41.85V42.7H43.2499C44.9099 42.7 46.0499 42.66 47.3699 42.44L47.2699 41.6C45.9799 41.82 44.8799 41.85 43.2499 41.85H42.5399ZM42.5399 36.49V42.13H43.5799V37.35H46.7699V36.49H42.5399ZM43.3299 39.05V39.88H46.4099V39.05H43.3299Z" fill="#424242"/>
<path d="M30.5 24.2C30.8866 24.2 31.2 23.8866 31.2 23.5C31.2 23.1134 30.8866 22.8 30.5 22.8V24.2ZM21.5 22.8C21.1134 22.8 20.8 23.1134 20.8 23.5C20.8 23.8866 21.1134 24.2 21.5 24.2V22.8ZM14.327 2.63806L14.9507 2.95585L14.327 2.63806ZM15.6377 1.32698L15.3199 0.703276L15.6377 1.32698ZM15.6377 18.673L15.9555 18.0493L15.6377 18.673ZM14.327 17.362L13.7033 17.6797H13.7033L14.327 17.362ZM37.6733 17.362L37.0496 17.0442L37.6733 17.362ZM36.3617 18.673L36.0439 18.0493L36.3617 18.673ZM37.6733 2.63806L37.0496 2.95585V2.95585L37.6733 2.63806ZM36.3617 1.32698L36.6795 0.703276V0.703276L36.3617 1.32698ZM29.75 10L30.1383 10.5824C30.333 10.4526 30.45 10.234 30.45 10C30.45 9.76595 30.333 9.54739 30.1383 9.41756L29.75 10ZM23 5.5L23.3883 4.91756C23.1735 4.77437 22.8973 4.76101 22.6697 4.88283C22.4421 5.00464 22.3 5.24184 22.3 5.5H23ZM23 14.5H22.3C22.3 14.7582 22.4421 14.9954 22.6697 15.1172C22.8973 15.239 23.1735 15.2256 23.3883 15.0824L23 14.5ZM29.75 10L30.1383 10.5824C30.333 10.4526 30.45 10.234 30.45 10C30.45 9.76595 30.333 9.54739 30.1383 9.41756L29.75 10ZM23 5.5L23.3883 4.91756C23.1735 4.77437 22.8973 4.76101 22.6697 4.88283C22.4421 5.00464 22.3 5.24184 22.3 5.5H23ZM23 14.5H22.3C22.3 14.7582 22.4421 14.9954 22.6697 15.1172C22.8973 15.239 23.1735 15.2256 23.3883 15.0824L23 14.5ZM30.5 22.8H21.5V24.2H30.5V22.8ZM37.3 5.80002V14.2H38.7V5.80002H37.3ZM33.2003 18.3H18.8003V19.7H33.2003V18.3ZM14.7 14.2V5.80002H13.3V14.2H14.7ZM18.8003 1.7H33.2003V0.3H18.8003V1.7ZM14.7 5.80002C14.7 4.94839 14.7005 4.35177 14.7385 3.88663C14.7759 3.42967 14.8459 3.1616 14.9507 2.95585L13.7033 2.32027C13.4811 2.75626 13.3876 3.22909 13.3432 3.77263C13.2995 4.308 13.3 4.97149 13.3 5.80002H14.7ZM18.8003 0.3C17.9718 0.3 17.3081 0.299456 16.7726 0.343196C16.229 0.3876 15.7559 0.481104 15.3199 0.703276L15.9555 1.95069C16.1612 1.84588 16.4294 1.77589 16.8866 1.73855C17.3519 1.70054 17.9487 1.7 18.8003 1.7V0.3ZM14.9507 2.95585C15.1713 2.5229 15.5229 2.1711 15.9555 1.95069L15.3199 0.703276C14.6235 1.0581 14.0579 1.62425 13.7033 2.32027L14.9507 2.95585ZM18.8003 18.3C17.9487 18.3 17.3519 18.2994 16.8866 18.2614C16.4294 18.2241 16.1612 18.1541 15.9555 18.0493L15.3199 19.2967C15.7559 19.5188 16.2289 19.6124 16.7726 19.6568C17.3081 19.7005 17.9717 19.7 18.8003 19.7V18.3ZM13.3 14.2C13.3 15.0285 13.2995 15.692 13.3432 16.2274C13.3876 16.7709 13.4811 17.2438 13.7033 17.6797L14.9507 17.0442C14.8459 16.8384 14.7759 16.5703 14.7385 16.1134C14.7005 15.6483 14.7 15.0516 14.7 14.2H13.3ZM15.9555 18.0493C15.5229 17.8288 15.1713 17.4771 14.9507 17.0442L13.7033 17.6797C14.0579 18.3758 14.6236 18.9419 15.3199 19.2967L15.9555 18.0493ZM37.3 14.2C37.3 15.0517 37.2995 15.6483 37.2616 16.1135C37.2243 16.5705 37.1544 16.8385 37.0496 17.0442L38.297 17.6797C38.5192 17.2437 38.6126 16.7708 38.657 16.2273C38.7006 15.692 38.7 15.0285 38.7 14.2H37.3ZM33.2003 19.7C34.0288 19.7 34.6922 19.7005 35.2274 19.6568C35.7709 19.6123 36.2435 19.5188 36.6795 19.2967L36.0439 18.0493C35.8381 18.1541 35.5701 18.2241 35.1134 18.2614C34.6484 18.2994 34.0519 18.3 33.2003 18.3V19.7ZM37.0496 17.0442C36.8293 17.4766 36.477 17.8286 36.0439 18.0493L36.6795 19.2967C37.3754 18.9421 37.9422 18.3763 38.297 17.6797L37.0496 17.0442ZM38.7 5.80002C38.7 4.97156 38.7006 4.30806 38.657 3.77274C38.6126 3.22923 38.5192 2.75634 38.297 2.32027L37.0496 2.95585C37.1544 3.16152 37.2243 3.42952 37.2616 3.88652C37.2995 4.3517 37.3 4.94832 37.3 5.80002H38.7ZM33.2003 1.7C34.0519 1.7 34.6484 1.70054 35.1134 1.73855C35.5701 1.77588 35.8381 1.84584 36.0439 1.95069L36.6795 0.703276C36.2435 0.481145 35.7709 0.387613 35.2274 0.343199C34.6922 0.299455 34.0288 0.3 33.2003 0.3V1.7ZM38.297 2.32027C37.9422 1.62378 37.3754 1.05786 36.6795 0.703276L36.0439 1.95069C36.4769 2.17134 36.8293 2.52337 37.0496 2.95585L38.297 2.32027ZM30.1383 9.41756L23.3883 4.91756L22.6117 6.08244L29.3617 10.5824L30.1383 9.41756ZM22.3 5.5V14.5H23.7V5.5H22.3ZM23.3883 15.0824L30.1383 10.5824L29.3617 9.41756L22.6117 13.9176L23.3883 15.0824ZM30.1383 9.41756L23.3883 4.91756L22.6117 6.08244L29.3617 10.5824L30.1383 9.41756ZM22.3 5.5V14.5H23.7V5.5H22.3ZM23.3883 15.0824L30.1383 10.5824L29.3617 9.41756L22.6117 13.9176L23.3883 15.0824Z" fill="#191919"/>
<path d="M23 5.5L29.75 10L23 14.5V5.5Z" fill="#0F42F4" fill-opacity="0.6"/>
<path d="M29.75 10L30.1383 10.5824C30.333 10.4526 30.45 10.234 30.45 10C30.45 9.76595 30.333 9.54739 30.1383 9.41756L29.75 10ZM23 5.5L23.3883 4.91756C23.1735 4.77437 22.8973 4.76101 22.6697 4.88283C22.4421 5.00464 22.3 5.24184 22.3 5.5H23ZM23 14.5H22.3C22.3 14.7582 22.4421 14.9954 22.6697 15.1172C22.8973 15.239 23.1735 15.2256 23.3883 15.0824L23 14.5ZM30.1383 9.41756L23.3883 4.91756L22.6117 6.08244L29.3617 10.5824L30.1383 9.41756ZM22.3 5.5V14.5H23.7V5.5H22.3ZM23.3883 15.0824L30.1383 10.5824L29.3617 9.41756L22.6117 13.9176L23.3883 15.0824Z" fill="#191919"/>
</svg>
