<svg width="45" height="18" viewBox="0 0 45 18" fill="none" xmlns="http://www.w3.org/2000/svg">
<rect width="45" height="18" rx="4" fill="#0F42F4"/>
<path d="M10.908 6.572V7.604H12.912V6.572H10.908ZM10.908 9.932V10.964H12.912V9.932H10.908ZM14.712 4.028V14.996H15.912V4.028H14.712ZM12.54 4.232V14.468H13.716V4.232H12.54ZM9.012 4.88C7.584 4.88 6.66 6.368 6.66 8.768C6.66 11.18 7.584 12.668 9.012 12.668C10.452 12.668 11.376 11.18 11.376 8.768C11.376 6.368 10.452 4.88 9.012 4.88ZM9.012 6.056C9.768 6.056 10.236 7.04 10.236 8.768C10.236 10.496 9.768 11.48 9.012 11.48C8.256 11.48 7.8 10.496 7.8 8.768C7.8 7.04 8.256 6.056 9.012 6.056ZM25.5231 5.588V6.632H27.4191V5.588H25.5231ZM25.5231 7.952V8.984H27.4191V7.952H25.5231ZM24.6471 4.028V10.52H25.9071V4.028H24.6471ZM18.6951 11.012V12.02H24.6471V14.996H25.9071V11.012H18.6951ZM20.3991 4.652C18.7311 4.652 17.4951 5.744 17.4951 7.292C17.4951 8.84 18.7311 9.92 20.3991 9.92C22.0671 9.92 23.3151 8.84 23.3151 7.292C23.3151 5.744 22.0671 4.652 20.3991 4.652ZM20.3991 5.72C21.3711 5.72 22.0911 6.332 22.0911 7.292C22.0911 8.252 21.3711 8.864 20.3991 8.864C19.4271 8.864 18.7191 8.252 18.7191 7.292C18.7191 6.332 19.4271 5.72 20.3991 5.72ZM32.4701 9.524V11.444H33.7181V9.524H32.4701ZM28.1381 9.092V10.1H38.0501V9.092H28.1381ZM33.0821 11.084C30.7181 11.084 29.3021 11.78 29.3021 13.04C29.3021 14.276 30.7181 14.984 33.0821 14.984C35.4341 14.984 36.8621 14.276 36.8621 13.04C36.8621 11.78 35.4341 11.084 33.0821 11.084ZM33.0821 12.044C34.6901 12.044 35.5901 12.38 35.5901 13.04C35.5901 13.676 34.6901 14.024 33.0821 14.024C31.4741 14.024 30.5741 13.676 30.5741 13.04C30.5741 12.38 31.4741 12.044 33.0821 12.044ZM32.2541 4.988V5.288C32.2541 6.356 30.7901 7.34 28.6421 7.544L29.0741 8.54C31.5941 8.264 33.3701 7.004 33.3701 5.288V4.988H32.2541ZM32.8301 4.988V5.288C32.8301 7.004 34.6061 8.264 37.1141 8.54L37.5581 7.544C35.3981 7.34 33.9341 6.368 33.9341 5.288V4.988H32.8301ZM29.0501 4.508V5.516H37.1621V4.508H29.0501Z" fill="white"/>
</svg>
