<svg width="24" height="24" viewBox="0 0 24 24" fill="none" xmlns="http://www.w3.org/2000/svg">
<rect width="24" height="24" rx="4" fill="black"/>
<path d="M18.7275 16.4689C18.4941 17.0279 18.2179 17.5424 17.8978 18.0155C17.4615 18.6604 17.1042 19.1068 16.8289 19.3547C16.4021 19.7616 15.9448 19.97 15.4552 19.9818C15.1036 19.9818 14.6797 19.8781 14.1862 19.6678C13.6911 19.4584 13.2361 19.3547 12.8201 19.3547C12.3838 19.3547 11.9158 19.4584 11.4153 19.6678C10.914 19.8781 10.5102 19.9878 10.2014 19.9986C9.73186 20.0194 9.26381 19.8051 8.79663 19.3547C8.49845 19.0851 8.12548 18.6229 7.67868 17.9681C7.1993 17.2688 6.80519 16.458 6.49643 15.5336C6.16576 14.5351 6 13.5682 6 12.6321C6 11.5599 6.22349 10.6351 6.67115 9.86007C7.02297 9.23757 7.49101 8.74652 8.0768 8.38604C8.66259 8.02556 9.29554 7.84186 9.97717 7.83011C10.3501 7.83011 10.8392 7.94971 11.447 8.18476C12.0531 8.42061 12.4423 8.54021 12.6129 8.54021C12.7405 8.54021 13.1728 8.40036 13.9057 8.12156C14.5987 7.863 15.1836 7.75594 15.6628 7.79811C16.9613 7.90675 17.9368 8.4374 18.5856 9.39342C17.4243 10.1229 16.8498 11.1446 16.8613 12.4553C16.8718 13.4762 17.229 14.3257 17.9311 15.0003C18.2493 15.3133 18.6046 15.5553 19 15.7272C18.9143 15.9849 18.8238 16.2318 18.7275 16.4689ZM15.7495 4.32009C15.7495 5.12027 15.4675 5.8674 14.9055 6.55894C14.2272 7.38104 13.4067 7.85608 12.5171 7.78112C12.5057 7.68512 12.4991 7.58409 12.4991 7.47792C12.4991 6.70975 12.8217 5.88765 13.3945 5.21547C13.6805 4.87514 14.0443 4.59215 14.4853 4.36641C14.9255 4.14404 15.3418 4.02106 15.7333 4C15.7448 4.10697 15.7495 4.21396 15.7495 4.32009Z" fill="white"/>
</svg>
