<svg width="166" height="42" viewBox="0 0 166 42" fill="none" xmlns="http://www.w3.org/2000/svg">
<rect width="166" height="42" rx="4" fill="#F5F5F5"/>
<path d="M41.032 20.864C43.576 20.592 45.544 19.52 46.328 18.016C47.096 19.52 49.08 20.592 51.624 20.864L52.216 19.584C49.512 19.296 47.608 18.096 47.448 16.736H51.688V15.408H41V16.736H45.208C45.048 18.08 43.16 19.296 40.456 19.584L41.032 20.864ZM41.256 25.584H49.624V29.248H51.272V24.272H41.256V25.584ZM39.784 21.664V22.992H52.904V21.664H39.784ZM59.8628 15.984H58.2148V18.352C58.2148 21.136 56.7108 23.904 54.4068 24.944L55.3828 26.32C57.1268 25.472 58.4068 23.76 59.0628 21.664C59.7188 23.616 60.9828 25.216 62.6468 26L63.6068 24.688C61.3348 23.664 59.8628 21.008 59.8628 18.352V15.984ZM64.7588 14.768V29.264H66.4228V14.768H64.7588ZM82.3255 21.84H80.3095C80.6775 19.792 80.6775 18.288 80.6775 16.928V15.664H70.8215V16.992H79.0615C79.0615 18.32 79.0615 19.824 78.6455 21.84H69.2535V23.2H74.9015V29.232H76.5655V23.2H82.3255V21.84ZM85.9883 17.68H88.4843V24.16H85.9883V17.68ZM84.4523 25.472H90.0203V16.368H84.4523V25.472ZM94.7403 14.784V20.416H93.0923V15.056H91.5403V28.544H93.0923V21.76H94.7403V29.216H96.3083V14.784H94.7403ZM102.899 24.768C101.731 24.768 100.883 23.968 100.883 22.752C100.883 21.536 101.731 20.736 102.899 20.736C104.067 20.736 104.915 21.536 104.915 22.752C104.915 23.968 104.067 24.768 102.899 24.768ZM102.899 19.376C100.819 19.376 99.315 20.784 99.315 22.752C99.315 24.736 100.819 26.128 102.899 26.128C104.963 26.128 106.483 24.736 106.483 22.752C106.483 20.784 104.963 19.376 102.899 19.376ZM103.699 15.008H102.051V17.008H98.611V18.352H107.075V17.008H103.699V15.008ZM112.131 20.592H109.907V14.784H108.243V29.248H109.907V21.968H112.131V20.592ZM114.226 16.304V17.648H119.378C119.09 20.976 117.298 23.52 113.506 25.344L114.386 26.656C119.346 24.256 121.074 20.608 121.074 16.304H114.226ZM123.682 14.784V29.232H125.33V14.784H123.682Z" fill="#9E9E9E"/>
</svg>
