<svg width="119" height="40" viewBox="0 0 119 40" fill="none" xmlns="http://www.w3.org/2000/svg">
<rect opacity="0.2" x="0.5" width="118" height="40" rx="4" fill="#0F42F4"/>
<path d="M46.2894 16.156V16.948C46.2894 18.424 45.3174 19.852 43.5894 20.44L44.2374 21.412C46.1934 20.752 47.3334 18.988 47.3334 16.948V16.156H46.2894ZM46.5414 16.156V16.948C46.5414 18.892 47.6814 20.584 49.6134 21.22L50.2494 20.236C48.5574 19.684 47.5734 18.352 47.5734 16.948V16.156H46.5414ZM51.2694 15.028V21.652H52.5294V15.028H51.2694ZM45.1374 22.192V23.2H51.2694V25.996H52.5294V22.192H45.1374ZM43.9254 15.736V16.744H49.9134V15.736H43.9254ZM62.3565 15.028V25.996H63.6045V15.028H62.3565ZM59.9925 19.336V20.368H62.9445V19.336H59.9925ZM58.8045 16.192V16.408C58.8045 19.288 57.6165 21.46 54.4725 23.02L55.1445 24.004C58.8525 22.144 60.0405 19.408 60.0405 16.192H58.8045ZM54.9645 16.192V17.2H59.4645V16.192H54.9645ZM65.8955 22.42V23.464H66.6395C67.9955 23.464 69.2075 23.428 70.6715 23.176L70.5755 22.144C69.1475 22.384 67.9595 22.42 66.6395 22.42H65.8955ZM65.8715 16.168V17.176H68.7875V19.18H65.8955V22.804H67.1195V20.188H69.9995V16.168H65.8715ZM73.7195 15.028V25.996H74.9195V15.028H73.7195ZM72.0395 19.276V20.296H74.0195V19.276H72.0395ZM71.2475 15.244V25.456H72.4115V15.244H71.2475Z" fill="#0F42F4"/>
</svg>
