<svg width="340" height="42" viewBox="0 0 340 42" fill="none" xmlns="http://www.w3.org/2000/svg">
<rect width="340" height="42" rx="4" fill="#0F42F4"/>
<path d="M93.6131 26.176V23.712H98.1251V22.384H89.4691V20.368H97.8051V15.792H87.8211V17.12H96.1731V19.056H87.8531V23.712H91.9651V26.176H86.2691V27.536H99.3571V26.176H93.6131ZM110.732 17.776C110.732 19.648 110.732 21.776 110.172 24.624L111.836 24.8C112.38 21.744 112.38 19.712 112.38 17.776V16.224H102.38V17.552H110.732V17.776ZM100.988 25.856V27.216H114.06V25.856H100.988ZM127.611 14.784H125.963V25.28H127.611V14.784ZM117.595 19.36C117.595 18.032 118.539 17.168 119.819 17.168C121.083 17.168 122.043 18.032 122.043 19.36C122.043 20.672 121.083 21.552 119.819 21.552C118.539 21.552 117.595 20.672 117.595 19.36ZM123.643 19.36C123.643 17.248 121.995 15.744 119.819 15.744C117.643 15.744 115.979 17.248 115.979 19.36C115.979 21.456 117.643 22.976 119.819 22.976C121.995 22.976 123.643 21.456 123.643 19.36ZM119.835 27.616V24.224H118.171V28.96H128.027V27.616H119.835ZM142.691 16.448H139.235V14.832H137.587V16.448H134.099V17.776H142.691V16.448ZM136.499 21.2C136.499 20.304 137.283 19.76 138.419 19.76C139.555 19.76 140.323 20.304 140.323 21.2C140.323 22.08 139.555 22.624 138.419 22.624C137.283 22.624 136.499 22.08 136.499 21.2ZM139.235 23.824C140.835 23.568 141.875 22.576 141.875 21.2C141.875 19.568 140.467 18.496 138.419 18.496C136.355 18.496 134.947 19.568 134.947 21.2C134.947 22.576 135.987 23.552 137.587 23.824V25.232C136.243 25.28 134.947 25.28 133.843 25.28L134.067 26.64C136.547 26.64 139.891 26.608 142.979 26.064L142.851 24.848C141.699 25.024 140.467 25.104 139.235 25.168V23.824ZM147.363 20.816H145.315V14.768H143.667V29.232H145.315V22.176H147.363V20.816ZM154.45 21.584H150.978V17.296H154.45V21.584ZM159.058 18.544V20.304H156.05V18.544H159.058ZM156.05 21.632H159.058V25.328H160.706V14.784H159.058V17.2H156.05V15.984H149.362V22.896H156.05V21.632ZM152.962 27.616V24.368H151.298V28.96H161.042V27.616H152.962ZM169.985 15.6C166.961 15.6 164.673 17.232 164.673 19.68C164.673 22.144 166.961 23.76 169.985 23.76C172.993 23.76 175.297 22.144 175.297 19.68C175.297 17.232 172.993 15.6 169.985 15.6ZM169.985 16.96C172.113 16.96 173.697 18.016 173.697 19.68C173.697 21.344 172.113 22.4 169.985 22.4C167.841 22.4 166.273 21.344 166.273 19.68C166.273 18.016 167.841 16.96 169.985 16.96ZM163.457 26.048V27.408H176.545V26.048H163.457ZM185.519 26.176V23.712H190.031V22.384H181.375V20.368H189.711V15.792H179.727V17.12H188.079V19.056H179.759V23.712H183.871V26.176H178.175V27.536H191.263V26.176H185.519ZM199.688 26.656H207.912V23.2H198.024V24.432H206.296V25.488H198.056V29.088H208.328V27.824H199.688V26.656ZM203.848 20.88V19.696H208.024V18.384H199.8V16.624H207.88V15.296H198.168V19.696H202.184V20.88H196.456V22.192H209.56V20.88H203.848ZM215.047 24.56C213.783 24.56 212.919 23.2 212.919 20.944C212.919 18.688 213.783 17.328 215.047 17.328C216.295 17.328 217.175 18.688 217.175 20.944C217.175 23.2 216.295 24.56 215.047 24.56ZM215.047 15.84C212.887 15.84 211.335 17.824 211.335 20.944C211.335 24.064 212.887 26.032 215.047 26.032C217.207 26.032 218.759 24.064 218.759 20.944C218.759 17.824 217.207 15.84 215.047 15.84ZM224.647 20.432H222.391V14.784H220.743V29.248H222.391V21.792H224.647V20.432ZM226.629 16.304V17.648H231.685C231.349 20.976 229.445 23.52 225.909 25.328L226.821 26.592C231.541 24.208 233.333 20.496 233.333 16.304H226.629ZM239.301 20.48H237.109V14.768H235.461V29.216H237.109V21.856H239.301V20.48ZM241.46 16.304V17.648H246.612C246.324 20.976 244.532 23.52 240.74 25.344L241.62 26.656C246.58 24.256 248.308 20.608 248.308 16.304H241.46ZM250.916 14.784V29.232H252.564V14.784H250.916Z" fill="white"/>
</svg>
