<svg width="28" height="50" viewBox="0 0 28 50" fill="none" xmlns="http://www.w3.org/2000/svg">
<path d="M23.211 15.588C23.1792 12.2256 26.1348 10.5905 26.2712 10.5142C24.5962 8.215 22.0009 7.90006 21.0887 7.87604C18.9088 7.66132 16.7948 9.10375 15.6846 9.10375C14.551 9.10375 12.842 7.89802 11.0007 7.93415C8.62904 7.96828 6.40854 9.26028 5.19182 11.2666C2.68155 15.3593 4.55464 21.374 6.96059 24.6822C8.16252 26.3033 9.56885 28.113 11.4099 28.0487C13.2105 27.9784 13.8839 26.9673 16.0575 26.9673C18.2097 26.9673 18.8405 28.0487 20.718 28.0066C22.6506 27.9784 23.8674 26.3795 25.0287 24.7444C26.4202 22.8887 26.9786 21.059 27 20.9647C26.9553 20.9506 23.2472 19.6185 23.211 15.588V15.588Z" stroke="#191919" stroke-width="1.6" stroke-linecap="round" stroke-linejoin="round"/>
<path d="M19.1637 4.88662C20.0453 3.84822 20.6492 2.43505 20.4822 1C19.2044 1.05316 17.6064 1.8319 16.688 2.84822C15.8743 3.74416 15.1462 5.21196 15.3347 6.59217C16.7695 6.69271 18.2415 5.91042 19.1637 4.88662Z" fill="#0F42F4" fill-opacity="0.6" stroke="#191919" stroke-width="1.6" stroke-linecap="round" stroke-linejoin="round"/>
<path d="M3.29117 39.36C1.93117 39.36 0.951172 40.61 0.951172 42.58C0.951172 44.55 1.93117 45.81 3.29117 45.81C4.65117 45.81 5.63117 44.55 5.63117 42.58C5.63117 40.61 4.65117 39.36 3.29117 39.36ZM3.29117 40.31C4.08117 40.31 4.63117 41.16 4.63117 42.58C4.63117 44.01 4.08117 44.87 3.29117 44.87C2.50117 44.87 1.95117 44.01 1.95117 42.58C1.95117 41.16 2.50117 40.31 3.29117 40.31ZM6.89117 38.69V47.83H7.94117V38.69H6.89117ZM7.70117 42.25V43.12H9.36117V42.25H7.70117ZM16.3304 38.68V47.84H17.3804V38.68H16.3304ZM12.5104 39.36C11.1504 39.36 10.1604 40.61 10.1604 42.58C10.1604 44.55 11.1504 45.81 12.5104 45.81C13.8804 45.81 14.8704 44.55 14.8704 42.58C14.8704 40.61 13.8804 39.36 12.5104 39.36ZM12.5104 40.31C13.3104 40.31 13.8604 41.16 13.8604 42.58C13.8604 44.01 13.3104 44.87 12.5104 44.87C11.7104 44.87 11.1604 44.01 11.1604 42.58C11.1604 41.16 11.7104 40.31 12.5104 40.31ZM19.5996 39.07V39.91H26.3496V39.07H19.5996ZM19.6496 41.75V42.58H26.2996V41.75H19.6496ZM20.8796 39.43V42.15H21.9296V39.43H20.8796ZM24.0196 39.43V42.15H25.0696V39.43H24.0196ZM18.8496 43.56V44.4H27.1096V43.56H18.8496ZM22.4596 42.31V44.07H23.4996V42.31H22.4596ZM19.8896 46.8V47.65H26.1896V46.8H19.8896ZM19.8896 45.1V47.09H20.9396V45.1H19.8896Z" fill="#424242"/>
</svg>
