<svg width="310" height="42" viewBox="0 0 310 42" fill="none" xmlns="http://www.w3.org/2000/svg">
<rect width="310" height="42" rx="4" fill="#F5F5F5"/>
<path d="M144.72 17.36V17.552C144.72 18.976 143.488 20.256 141.312 20.704L142 22.016C144.624 21.424 146.08 19.696 146.08 17.552V17.36H144.72ZM145.04 17.36V17.552C145.04 19.6 146.496 21.248 149.072 21.808L149.744 20.512C147.616 20.064 146.4 18.896 146.4 17.552V17.36H145.04ZM141.664 16.272V17.568H149.44V16.272H141.664ZM144.704 14.736V17.184H146.4V14.736H144.704ZM144.72 23.04V28.896H146.4V23.04H144.72ZM151.152 14.704V29.328H152.816V14.704H151.152ZM140.944 24.24C143.616 24.24 147.088 24.192 150.32 23.632L150.208 22.416C147.072 22.832 143.456 22.848 140.736 22.848L140.944 24.24ZM155.455 26.128V27.504H168.703V26.128H155.455ZM161.167 22.72V26.544H162.831V22.72H161.167ZM161.119 15.6V16.704C161.119 18.944 158.783 21.136 155.871 21.632L156.575 23.024C159.903 22.368 162.575 19.824 162.575 16.704V15.6H161.119ZM161.423 15.6V16.704C161.423 19.84 164.095 22.368 167.439 23.024L168.143 21.632C165.231 21.136 162.895 18.976 162.895 16.704V15.6H161.423Z" fill="#9E9E9E"/>
</svg>
