<svg width="119" height="40" viewBox="0 0 119 40" fill="none" xmlns="http://www.w3.org/2000/svg">
<rect opacity="0.2" x="0.5" width="118" height="40" rx="4" fill="#0F42F4"/>
<path d="M38.472 20.164V21.196H39.192C40.896 21.196 41.952 21.148 43.212 20.92L43.092 19.9C41.88 20.128 40.86 20.164 39.192 20.164H38.472ZM38.472 15.796V20.728H39.684V16.816H42.744V15.796H38.472ZM39.312 17.968V18.928H42.624V17.968H39.312ZM46.14 15.028V21.7H47.328V15.028H46.14ZM44.568 17.812V18.832H46.488V17.812H44.568ZM43.752 15.232V21.628H44.928V15.232H43.752ZM39.9 22.228V23.248H46.08V25.996H47.328V22.228H39.9ZM49.4391 16.036V23.32H53.6871V16.036H52.5231V18.616H50.6271V16.036H49.4391ZM50.6271 19.612H52.5231V22.3H50.6271V19.612ZM57.2511 15.028V25.996H58.4511V15.028H57.2511ZM55.6671 19.3V20.32H57.6471V19.3H55.6671ZM54.8271 15.232V25.468H56.0151V15.232H54.8271ZM67.9541 15.028V25.996H69.2021V15.028H67.9541ZM65.5901 19.336V20.368H68.5421V19.336H65.5901ZM64.4021 16.192V16.408C64.4021 19.288 63.2141 21.46 60.0701 23.02L60.7421 24.004C64.4501 22.144 65.6381 19.408 65.6381 16.192H64.4021ZM60.5621 16.192V17.2H65.0621V16.192H60.5621ZM71.4932 22.42V23.464H72.2372C73.5932 23.464 74.8052 23.428 76.2692 23.176L76.1732 22.144C74.7452 22.384 73.5572 22.42 72.2372 22.42H71.4932ZM71.4692 16.168V17.176H74.3852V19.18H71.4932V22.804H72.7172V20.188H75.5972V16.168H71.4692ZM79.3172 15.028V25.996H80.5172V15.028H79.3172ZM77.6372 19.276V20.296H79.6172V19.276H77.6372ZM76.8452 15.244V25.456H78.0092V15.244H76.8452Z" fill="#0F42F4"/>
</svg>
