<svg width="224" height="32" viewBox="0 0 224 32" fill="none" xmlns="http://www.w3.org/2000/svg">
<rect width="224" height="32" rx="4" fill="#F5F5F5"/>
<path d="M89.744 16.644H87.248V13.104H89.744V16.644ZM86.012 16.644H84.452V17.652H92.54V16.644H90.968V13.104H92.564V12.108H84.416V13.104H86.012V16.644ZM83.6 19.572V20.592H93.44V19.572H83.6ZM100.159 19.632V17.784H103.543V16.788H97.0511V15.276H103.303V11.844H95.8151V12.84H102.079V14.292H95.8391V17.784H98.9231V19.632H94.6511V20.652H104.467V19.632H100.159ZM114.642 11.076H113.394V16.68H114.642V11.076ZM108.33 12.756H109.818V15.3C109.326 15.324 108.81 15.336 108.33 15.348V12.756ZM112.458 15.084C111.99 15.144 111.51 15.192 111.018 15.228V12.756H111.978V11.772H106.158V12.756H107.142V15.372C106.698 15.384 106.266 15.384 105.87 15.384L106.002 16.392C107.886 16.38 110.37 16.32 112.518 15.972L112.458 15.084ZM108.714 20.856V19.908H114.642V17.172H107.466V18.132H113.418V19.008H107.478V21.828H115.002V20.856H108.714ZM128.797 15.084C126.613 14.772 124.98 13.416 124.98 12.012V11.436H123.673V12.012C123.673 13.44 122.065 14.772 119.857 15.084L120.337 16.08C122.137 15.792 123.637 14.892 124.333 13.632C125.041 14.88 126.517 15.792 128.317 16.08L128.797 15.084ZM129.217 17.1H119.425V18.108H123.673V21.936H124.909V18.108H129.217V17.1ZM136.284 13.812V14.82H138.204V17.544H139.44V11.088H138.204V13.812H136.284ZM136.908 16.224C135.288 15.66 134.364 14.316 134.364 12.96V12.816H136.62V11.82H130.824V12.816H133.116V12.972C133.116 14.46 132.144 15.9 130.464 16.5L131.1 17.484C132.384 17.028 133.296 16.068 133.776 14.88C134.232 15.924 135.096 16.776 136.296 17.196L136.908 16.224ZM135.84 20.976C134.292 20.976 133.416 20.592 133.416 19.884C133.416 19.176 134.292 18.792 135.84 18.792C137.364 18.792 138.252 19.176 138.252 19.884C138.252 20.592 137.364 20.976 135.84 20.976ZM135.84 17.832C133.572 17.832 132.18 18.6 132.18 19.884C132.18 21.18 133.572 21.936 135.84 21.936C138.096 21.936 139.488 21.18 139.488 19.884C139.488 18.6 138.096 17.832 135.84 17.832Z" fill="#9E9E9E"/>
</svg>
