<svg width="200" height="18" viewBox="0 0 200 18" fill="none" xmlns="http://www.w3.org/2000/svg">
<circle cx="9" cy="9" r="8" fill="#F5F5F5"/>
<path d="M9.04427 12.0666H9.64427C9.64427 11.7353 9.37564 11.4666 9.04427 11.4666V12.0666ZM9.04427 12.1555L9.04412 12.7555C9.20328 12.7556 9.35593 12.6924 9.46848 12.5798C9.58104 12.4673 9.64427 12.3147 9.64427 12.1555H9.04427ZM8.95573 12.1555H8.35573C8.35573 12.4868 8.62427 12.7554 8.95558 12.7555L8.95573 12.1555ZM8.95573 12.0666V11.4666C8.62436 11.4666 8.35573 11.7353 8.35573 12.0666H8.95573ZM9.6 5.8444C9.6 5.51303 9.33137 5.2444 9 5.2444C8.66863 5.2444 8.4 5.51303 8.4 5.8444H9.6ZM8.4 9.39996C8.4 9.73133 8.66863 9.99996 9 9.99996C9.33137 9.99996 9.6 9.73133 9.6 9.39996H8.4ZM9 16.4C4.91309 16.4 1.6 13.0869 1.6 9H0.4C0.4 13.7496 4.25035 17.6 9 17.6V16.4ZM1.6 9C1.6 4.91309 4.91309 1.6 9 1.6V0.4C4.25035 0.4 0.4 4.25035 0.4 9H1.6ZM9 1.6C13.0869 1.6 16.4 4.91309 16.4 9H17.6C17.6 4.25035 13.7496 0.4 9 0.4V1.6ZM16.4 9C16.4 13.0869 13.0869 16.4 9 16.4V17.6C13.7496 17.6 17.6 13.7496 17.6 9H16.4ZM8.44427 12.0666V12.1555H9.64427V12.0666H8.44427ZM9.04442 11.5555L8.95588 11.5555L8.95558 12.7555L9.04412 12.7555L9.04442 11.5555ZM9.55573 12.1555V12.0666H8.35573V12.1555H9.55573ZM8.95573 12.6666H9.04427V11.4666H8.95573V12.6666ZM8.4 5.8444V9.39996H9.6V5.8444H8.4Z" fill="#9E9E9E" fill-opacity="0.5"/>
<path d="M25.77 5.58V6.26H30.6V5.58H25.77ZM25.62 10.06C27.16 10.06 29.28 10.01 31.08 9.73L31.02 9.11C29.25 9.33 27.1 9.35 25.52 9.36L25.62 10.06ZM26.66 6.09V9.5H27.46V6.09H26.66ZM28.9 6.09V9.5H29.7V6.09H28.9ZM31.68 4.75V11.41H32.51V4.75H31.68ZM32.25 7.49V8.19H33.85V7.49H32.25ZM26.88 12.9V13.58H32.92V12.9H26.88ZM26.88 10.77V13.08H27.71V10.77H26.88ZM41.5792 4.74V13.78H42.3792V4.74H41.5792ZM40.1492 8.32V9H41.8792V8.32H40.1492ZM39.5792 4.93V13.33H40.3692V4.93H39.5792ZM35.0192 5.78V11.36H38.4692V5.78H35.0192ZM37.6892 6.44V10.7H35.7992V6.44H37.6892ZM48.3248 5.21V6.13C48.3248 7.51 47.4448 8.73 46.0848 9.23L46.5248 9.9C48.0348 9.31 49.0148 7.87 49.0148 6.13V5.21H48.3248ZM48.4748 5.21V6.19C48.4748 7.76 49.4648 9.1 50.9148 9.64L51.3548 8.99C50.0548 8.54 49.1548 7.41 49.1548 6.19V5.21H48.4748ZM52.3148 4.74V10.22H53.1448V4.74H52.3148ZM52.9148 7.07V7.77H54.4848V7.07H52.9148ZM50.2648 10.47C48.4148 10.47 47.2948 11.08 47.2948 12.12C47.2948 13.16 48.4148 13.76 50.2648 13.76C52.1148 13.76 53.2348 13.16 53.2348 12.12C53.2348 11.08 52.1148 10.47 50.2648 10.47ZM50.2648 11.13C51.6048 11.13 52.4248 11.49 52.4248 12.12C52.4248 12.75 51.6048 13.11 50.2648 13.11C48.9248 13.11 48.1048 12.75 48.1048 12.12C48.1048 11.49 48.9248 11.13 50.2648 11.13ZM55.684 10.85V11.55H56.274C57.724 11.55 58.604 11.52 59.654 11.31L59.564 10.62C58.554 10.82 57.704 10.85 56.274 10.85H55.684ZM55.684 5.77V11.11H56.474V6.45H59.244V5.77H55.684ZM56.234 8.16V8.83H59.104V8.16H56.234ZM62.214 4.74V13.78H63.014V4.74H62.214ZM60.784 8.36V9.05H62.514V8.36H60.784ZM60.224 4.93V13.33H61.014V4.93H60.224ZM65.6332 7.45V8.13H71.7732V7.45H65.6332ZM64.5232 9.34V10.02H72.7232V9.34H64.5232ZM65.6332 5.07V7.79H66.4532V5.07H65.6332ZM65.5732 12.88V13.56H71.8232V12.88H65.5732ZM65.5732 10.92V13.06H66.3932V10.92H65.5732ZM82.5388 4.74V9.42H83.3688V4.74H82.5388ZM77.5288 9.88V10.53H82.5588V11.43H77.5488V13.29H78.3588V12.05H83.3788V9.88H77.5288ZM77.5488 13.02V13.68H83.6788V13.02H77.5488ZM78.3188 5V5.69C78.3188 7 77.3888 8.2 76.0288 8.68L76.4388 9.34C77.9688 8.78 79.0088 7.36 79.0088 5.69V5H78.3188ZM78.4688 5V5.69C78.4688 7.31 79.5088 8.64 81.0288 9.16L81.4388 8.51C80.0988 8.07 79.1488 6.94 79.1488 5.69V5H78.4688ZM92.038 4.74V13.78H92.838V4.74H92.038ZM88.748 7.98V8.67H90.478V7.98H88.748ZM90.228 4.95V13.32H91.008V4.95H90.228ZM87.008 6.14V7.29C87.008 8.95 86.308 10.6 85.048 11.36L85.558 11.98C86.888 11.14 87.648 9.27 87.648 7.29V6.14H87.008ZM87.178 6.14V7.29C87.178 9.18 87.908 10.96 89.228 11.76L89.738 11.15C88.498 10.43 87.818 8.86 87.818 7.29V6.14H87.178ZM85.298 5.79V6.48H89.428V5.79H85.298ZM103.204 4.74V13.78H104.034V4.74H103.204ZM101.094 8.36V9.05H103.574V8.36H101.094ZM100.304 5.71V5.85C100.304 8.21 99.2235 10.13 96.5935 11.42L97.0535 12.07C100.054 10.57 101.124 8.29 101.124 5.71H100.304ZM96.9835 5.71V6.39H100.744V5.71H96.9835ZM106.093 10.93V11.62H106.693C107.813 11.62 108.833 11.59 110.083 11.37L110.013 10.68C108.793 10.89 107.793 10.93 106.693 10.93H106.093ZM106.073 5.72V6.4H108.653V8.22H106.093V11.19H106.903V8.9H109.463V5.72H106.073ZM112.673 4.74V13.78H113.473V4.74H112.673ZM111.143 8.31V8.99H112.883V8.31H111.143ZM110.623 4.94V13.32H111.403V4.94H110.623ZM123.798 4.73V13.79H124.628V4.73H123.798ZM119.858 5.43C118.528 5.43 117.568 6.66 117.568 8.58C117.568 10.51 118.528 11.74 119.858 11.74C121.198 11.74 122.158 10.51 122.158 8.58C122.158 6.66 121.198 5.43 119.858 5.43ZM119.858 6.18C120.748 6.18 121.358 7.12 121.358 8.58C121.358 10.05 120.748 11.01 119.858 11.01C118.978 11.01 118.358 10.05 118.358 8.58C118.358 7.12 118.978 6.18 119.858 6.18ZM126.858 5.77V6.44H134.128V5.77H126.858ZM126.438 10.6V11.28H134.628V10.6H126.438ZM130.098 11.15V13.79H130.928V11.15H130.098ZM130.518 6.96C128.668 6.96 127.578 7.5 127.578 8.47C127.578 9.43 128.668 9.98 130.518 9.98C132.358 9.98 133.448 9.43 133.448 8.47C133.448 7.5 132.358 6.96 130.518 6.96ZM130.518 7.6C131.838 7.6 132.598 7.91 132.598 8.47C132.598 9.03 131.838 9.34 130.518 9.34C129.198 9.34 128.438 9.03 128.438 8.47C128.438 7.91 129.198 7.6 130.518 7.6ZM130.098 4.69V6.22H130.928V4.69H130.098ZM143.983 4.74V13.78H144.823V4.74H143.983ZM144.623 8.29V9H146.303V8.29H144.623ZM138.223 5.5V11.61H142.443V5.5H141.623V7.89H139.043V5.5H138.223ZM139.043 8.55H141.623V10.93H139.043V8.55ZM147.062 7.95V8.63H155.262V7.95H147.062ZM150.732 8.39V10.15H151.552V8.39H150.732ZM148.042 9.74V10.4H153.382V11.36H148.062V13.32H148.882V12H154.212V9.74H148.042ZM148.062 13.02V13.68H154.492V13.02H148.062ZM147.852 5.06V5.74H150.242V5.06H147.852ZM149.942 5.06V5.38C149.942 5.91 149.942 6.79 149.542 8.13L150.342 8.29C150.752 6.94 150.752 5.89 150.752 5.38V5.06H149.942ZM151.422 5.06V5.74H153.862V5.06H151.422ZM153.482 5.06V5.39C153.482 5.92 153.482 6.82 153.122 8.16L153.932 8.27C154.282 6.92 154.282 5.93 154.282 5.39V5.06H153.482ZM162.158 5.06V5.56C162.158 6.85 160.568 7.93 158.918 8.18L159.248 8.85C161.128 8.53 162.888 7.29 162.888 5.56V5.06H162.158ZM162.308 5.06V5.56C162.308 7.27 164.078 8.53 165.938 8.85L166.268 8.18C164.638 7.93 163.028 6.82 163.028 5.56V5.06H162.308ZM162.158 10.34V13.78H162.978V10.34H162.158ZM158.508 9.83V10.52H166.678V9.83H158.508ZM172.193 10.3V10.79C172.193 11.66 171.513 12.63 170.373 13.04L170.793 13.66C172.093 13.16 172.833 11.97 172.833 10.79V10.3H172.193ZM172.373 10.3V10.79C172.373 11.99 172.963 13.23 174.263 13.74L174.613 13.11C173.533 12.67 172.993 11.7 172.993 10.79V10.3H172.373ZM175.533 10.3V10.79C175.533 11.57 174.983 12.62 173.913 13.11L174.263 13.74C175.553 13.19 176.153 11.85 176.153 10.79V10.3H175.533ZM175.703 10.3V10.79C175.703 12.04 176.423 13.18 177.743 13.66L178.163 13.04C177.013 12.65 176.343 11.72 176.343 10.79V10.3H175.703ZM176.513 4.75V9.91H177.353V4.75H176.513ZM172.503 5.27C171.133 5.27 170.143 6.13 170.143 7.38C170.143 8.63 171.133 9.48 172.503 9.48C173.873 9.48 174.853 8.63 174.853 7.38C174.853 6.13 173.873 5.27 172.503 5.27ZM172.503 5.96C173.403 5.96 174.053 6.54 174.053 7.38C174.053 8.22 173.403 8.79 172.503 8.79C171.603 8.79 170.953 8.22 170.953 7.38C170.953 6.54 171.603 5.96 172.503 5.96ZM181.553 5.43C180.233 5.43 179.303 6.66 179.303 8.58C179.303 10.51 180.233 11.74 181.553 11.74C182.863 11.74 183.803 10.51 183.803 8.58C183.803 6.66 182.863 5.43 181.553 5.43ZM181.553 6.18C182.423 6.18 183.013 7.12 183.013 8.58C183.013 10.05 182.423 11.01 181.553 11.01C180.683 11.01 180.093 10.05 180.093 8.58C180.093 7.12 180.683 6.18 181.553 6.18ZM185.763 4.73V13.79H186.583V4.73H185.763ZM183.533 8.18V8.86H186.123V8.18H183.533ZM190.342 9.39V12.1H191.162V9.39H190.342ZM193.682 9.39V12.1H194.512V9.39H193.682ZM188.342 11.94V12.63H196.532V11.94H188.342ZM192.422 5.31C190.502 5.31 189.132 6.22 189.132 7.64C189.132 9.05 190.502 9.96 192.422 9.96C194.332 9.96 195.702 9.05 195.702 7.64C195.702 6.22 194.332 5.31 192.422 5.31ZM192.422 5.97C193.872 5.97 194.902 6.63 194.902 7.64C194.902 8.64 193.872 9.3 192.422 9.3C190.972 9.3 189.932 8.64 189.932 7.64C189.932 6.63 190.972 5.97 192.422 5.97ZM198.421 13.14C198.791 13.14 199.091 12.85 199.091 12.44C199.091 12.02 198.791 11.74 198.421 11.74C198.061 11.74 197.771 12.02 197.771 12.44C197.771 12.85 198.061 13.14 198.421 13.14Z" fill="#9E9E9E"/>
</svg>
