<svg width="149" height="46" viewBox="0 0 149 46" fill="none" xmlns="http://www.w3.org/2000/svg">
<path fill-rule="evenodd" clip-rule="evenodd" d="M18.304 37.75H9.92V26.125H18.304C19.6267 26.125 20.736 26.375 21.632 26.875C22.5707 27.375 23.296 28.0625 23.808 28.9375C24.32 29.8125 24.576 30.8125 24.576 31.9375C24.576 33.5625 24.0213 34.9375 22.912 36.0625C21.8027 37.1875 20.2667 37.75 18.304 37.75ZM9.92 18.6875H17.472C19.136 18.6875 20.48 18.2917 21.504 17.5C22.528 16.6667 23.04 15.4167 23.04 13.75C23.04 12.125 22.528 10.9167 21.504 10.1251C20.48 9.29175 19.136 8.87505 17.472 8.87505H9.92V18.6875ZM9.92 1.25006H19.392C22.2933 1.25006 24.7467 1.77089 26.752 2.81256C28.8 3.85422 30.3573 5.25006 31.424 7.00006C32.4907 8.75005 33.024 10.6876 33.024 12.8125C33.024 15.5208 32.128 17.8125 30.336 19.6875C29.564 20.4953 28.6336 21.1948 27.5448 21.7861C29.0718 22.5165 30.3649 23.442 31.424 24.5625C33.5147 26.7292 34.56 29.3958 34.56 32.5625C34.56 34.9792 33.9413 37.1667 32.704 39.125C31.5093 41.0417 29.76 43.1875 27.456 44.3125C25.1947 45.4375 22.464 46 19.264 46H9.92H7.68H0V1.25006H7.68H9.92ZM49.896 15.0001H51V46H40V15.0001H40.104V15H49.896V15.0001ZM62.1675 43.9375C64.4715 45.3125 67.0955 46 70.0395 46C72.1728 46 74.1142 45.5833 75.8635 44.75C76.7841 44.2895 77.6161 43.754 78.3595 43.1435V46H87.9595V6.45085e-05H78.1675V16.9721C77.457 16.4253 76.6676 15.9554 75.7995 15.5625C74.0928 14.7708 72.1728 14.375 70.0395 14.375C67.0955 14.375 64.4715 15.0625 62.1675 16.4375C59.9062 17.8125 58.1142 19.6875 56.7915 22.0625C55.5115 24.4375 54.8715 27.1458 54.8715 30.1875C54.8715 33.2292 55.5115 35.9375 56.7915 38.3125C58.1142 40.6875 59.9062 42.5625 62.1675 43.9375ZM75.4155 36.5C74.3915 37.0833 73.1755 37.375 71.7675 37.375C70.4448 37.375 69.2502 37.0625 68.1835 36.4375C67.1168 35.8125 66.2848 34.9583 65.6875 33.875C65.0902 32.7917 64.7915 31.5625 64.7915 30.1875C64.7915 28.8125 65.0902 27.5833 65.6875 26.5C66.3275 25.4167 67.1595 24.5625 68.1835 23.9375C69.2502 23.3125 70.4662 23 71.8315 23C73.1968 23 74.3915 23.3125 75.4155 23.9375C76.4822 24.5625 77.2928 25.4167 77.8475 26.5C78.4448 27.5417 78.7435 28.7708 78.7435 30.1875C78.7435 31.6042 78.4448 32.8542 77.8475 33.9375C77.2502 35.0208 76.4395 35.875 75.4155 36.5ZM94.854 15V15.0002H94V46.0002H105V15.0002H104.646V15H94.854ZM115.958 24.414V46H125.75V24.414H149V14.6484H125.75V0H115.958V14.6484H109V15V23.125V24.414H115.958ZM113 5.50012C113 8.53769 110.538 11.0001 107.5 11.0001C104.462 11.0001 102 8.53769 102 5.50012C102 2.46256 104.462 0.00012207 107.5 0.00012207C110.538 0.00012207 113 2.46256 113 5.50012ZM45.5 11.0001C48.5376 11.0001 51 8.53769 51 5.50012C51 2.46256 48.5376 0.00012207 45.5 0.00012207C42.4624 0.00012207 40 2.46256 40 5.50012C40 8.53769 42.4624 11.0001 45.5 11.0001Z" fill="#0F42F4"/>
</svg>
