<svg width="37" height="47" viewBox="0 0 37 47" fill="none" xmlns="http://www.w3.org/2000/svg">
<path d="M32.9429 15.4148L31.9621 15.6099L32.9429 15.4148ZM30.5853 13.0576L30.7804 12.0769L30.5853 13.0576ZM30.5853 23.4423L30.3902 22.4615L30.5853 23.4423ZM32.9429 21.0853L31.9621 20.8902L32.9429 21.0853ZM25.5576 21.0853L24.5769 21.2804L25.5576 21.0853ZM27.9141 23.4423L28.1092 22.4615H28.1092L27.9141 23.4423ZM25.5576 15.4148L26.5384 15.6099L25.5576 15.4148ZM27.9141 13.0576L28.1092 14.0384L27.9141 13.0576ZM6.05764 15.4148L7.03843 15.6099L6.05764 15.4148ZM8.41406 13.0576L8.60915 14.0384L8.41406 13.0576ZM8.41406 23.4423L8.60915 22.4615L8.41406 23.4423ZM6.05764 21.0853L5.07686 21.2804L6.05764 21.0853ZM13.4429 21.0853L12.4621 20.8902L13.4429 21.0853ZM11.0853 23.4423L10.8902 22.4615L11.0853 23.4423ZM13.4429 15.4148L12.4621 15.6099L13.4429 15.4148ZM11.0853 13.0576L11.2804 12.0769L11.0853 13.0576ZM29 11.5C29 12.0523 29.4477 12.5 30 12.5C30.5523 12.5 31 12.0523 31 11.5H29ZM8 11.5C8 12.0523 8.44772 12.5 9 12.5C9.55228 12.5 10 12.0523 10 11.5H8ZM24.5 16.75V19.75H26.5V16.75H24.5ZM34 19.75V16.75H32V19.75H34ZM34 16.75C34 16.1023 34.0054 15.6307 33.9237 15.2197L31.9621 15.6099C31.9956 15.7785 32 16.0037 32 16.75H34ZM29.25 14C29.9949 14 30.2213 14.0048 30.3902 14.0384L30.7804 12.0769C30.3696 11.9952 29.8991 12 29.25 12V14ZM33.9237 15.2197C33.608 13.6327 32.3669 12.3924 30.7804 12.0769L30.3902 14.0384C31.1838 14.1963 31.8043 14.8167 31.9621 15.6099L33.9237 15.2197ZM29.25 24.5C29.899 24.5 30.3696 24.5048 30.7804 24.4231L30.3902 22.4615C30.2213 22.4951 29.9949 22.5 29.25 22.5V24.5ZM32 19.75C32 20.4963 31.9956 20.7216 31.9621 20.8902L33.9237 21.2804C34.0054 20.8693 34 20.3977 34 19.75H32ZM30.7804 24.4231C32.3669 24.1075 33.608 22.8674 33.9237 21.2804L31.9621 20.8902C31.8043 21.6833 31.1838 22.3037 30.3902 22.4615L30.7804 24.4231ZM24.5 19.75C24.5 20.3991 24.4952 20.8696 24.5769 21.2804L26.5384 20.8902C26.5048 20.7213 26.5 20.4949 26.5 19.75H24.5ZM29.25 22.5C28.505 22.5 28.278 22.4951 28.1092 22.4615L27.719 24.4231C28.1297 24.5048 28.601 24.5 29.25 24.5V22.5ZM24.5769 21.2804C24.8924 22.8668 26.1319 24.1074 27.719 24.4231L28.1092 22.4615C27.3161 22.3038 26.6963 21.6839 26.5384 20.8902L24.5769 21.2804ZM26.5 16.75C26.5 16.0051 26.5048 15.7787 26.5384 15.6099L24.5769 15.2197C24.4952 15.6304 24.5 16.1009 24.5 16.75H26.5ZM29.25 12C28.601 12 28.1297 11.9952 27.719 12.0769L28.1092 14.0384C28.278 14.0048 28.505 14 29.25 14V12ZM26.5384 15.6099C26.6963 14.8162 27.3161 14.1962 28.1092 14.0384L27.719 12.0769C26.1319 12.3926 24.8924 13.6333 24.5769 15.2197L26.5384 15.6099ZM12.5 16.75V19.75H14.5V16.75H12.5ZM7 19.75V16.75H5V19.75H7ZM7 16.75C7 16.0051 7.00484 15.7787 7.03843 15.6099L5.07686 15.2197C4.99516 15.6304 5 16.1009 5 16.75H7ZM9.74933 12C9.10028 12 8.62972 11.9952 8.21897 12.0769L8.60915 14.0384C8.778 14.0048 9.00442 14 9.74933 14V12ZM7.03843 15.6099C7.19631 14.8162 7.81612 14.1962 8.60915 14.0384L8.21897 12.0769C6.63186 12.3926 5.39242 13.6333 5.07686 15.2197L7.03843 15.6099ZM9.74933 22.5C9.00443 22.5 8.778 22.4951 8.60915 22.4615L8.21897 24.4231C8.62972 24.5048 9.10029 24.5 9.74933 24.5V22.5ZM5 19.75C5 20.3991 4.99516 20.8696 5.07686 21.2804L7.03843 20.8902C7.00484 20.7213 7 20.4949 7 19.75H5ZM8.60915 22.4615C7.81607 22.3038 7.1963 21.6839 7.03843 20.8902L5.07686 21.2804C5.39243 22.8668 6.63191 24.1074 8.21897 24.4231L8.60915 22.4615ZM12.5 19.75C12.5 20.4963 12.4956 20.7216 12.4621 20.8902L14.4237 21.2804C14.5054 20.8693 14.5 20.3977 14.5 19.75H12.5ZM9.74933 24.5C10.3983 24.5 10.8696 24.5048 11.2804 24.4231L10.8902 22.4615C10.7213 22.4951 10.4943 22.5 9.74933 22.5V24.5ZM12.4621 20.8902C12.3043 21.6833 11.6838 22.3037 10.8902 22.4615L11.2804 24.4231C12.8669 24.1075 14.108 22.8674 14.4237 21.2804L12.4621 20.8902ZM14.5 16.75C14.5 16.1023 14.5054 15.6307 14.4237 15.2197L12.4621 15.6099C12.4956 15.7785 12.5 16.0037 12.5 16.75H14.5ZM9.74933 14C10.4943 14 10.7213 14.0048 10.8902 14.0384L11.2804 12.0769C10.8696 11.9952 10.3983 12 9.74933 12V14ZM14.4237 15.2197C14.108 13.6327 12.8669 12.3924 11.2804 12.0769L10.8902 14.0384C11.6838 14.1963 12.3043 14.8167 12.4621 15.6099L14.4237 15.2197ZM31 11.5C31 5.14873 25.8513 0 19.5 0V2C24.7467 2 29 6.25329 29 11.5H31ZM19.5 0C13.1487 0 8 5.14873 8 11.5H10C10 6.25329 14.2533 2 19.5 2V0Z" fill="#191919"/>
<path d="M25.5 19.75V16.75C25.5 16.053 25.5 15.7046 25.5576 15.4148C25.7944 14.2247 26.724 13.2944 27.9141 13.0576C28.2039 13 28.553 13 29.25 13C29.947 13 30.2955 13 30.5853 13.0576C31.7753 13.2944 32.7062 14.2247 32.9429 15.4148C33 15.702 33 16.0469 33 16.7316V16.75V19.75V19.7684C33 20.4531 33 20.798 32.9429 21.0853C32.7062 22.2753 31.7753 23.2056 30.5853 23.4423C30.2955 23.5 29.947 23.5 29.25 23.5C28.553 23.5 28.2039 23.5 27.9141 23.4423C26.724 23.2056 25.7944 22.2753 25.5576 21.0853C25.5 20.7955 25.5 20.447 25.5 19.75Z" fill="#0F42F4" fill-opacity="0.6"/>
<path d="M13.5 19.75V16.75V16.7316C13.5 16.0469 13.5 15.702 13.4429 15.4148C13.2062 14.2247 12.2753 13.2944 11.0853 13.0576C10.7955 13 10.4463 13 9.74933 13C9.05235 13 8.70386 13 8.41406 13.0576C7.22399 13.2944 6.29436 14.2247 6.05764 15.4148C6 15.7046 6 16.053 6 16.75V19.75C6 20.447 6 20.7955 6.05764 21.0853C6.29436 22.2753 7.22399 23.2056 8.41406 23.4423C8.70386 23.5 9.05236 23.5 9.74933 23.5C10.4463 23.5 10.7955 23.5 11.0853 23.4423C12.2753 23.2056 13.2062 22.2753 13.4429 21.0853C13.5 20.798 13.5 20.4531 13.5 19.7684V19.75Z" fill="#0F42F4" fill-opacity="0.6"/>
<path d="M33 16.7316L32 16.7316V16.7316H33ZM32.9429 15.4148L31.9621 15.6099V15.6099L32.9429 15.4148ZM30.5853 13.0576L30.7804 12.0769L30.7804 12.0769L30.5853 13.0576ZM30.5853 23.4423L30.3902 22.4615L30.5853 23.4423ZM33 19.7684H32V19.7684L33 19.7684ZM32.9429 21.0853L31.9621 20.8902V20.8902L32.9429 21.0853ZM25.5576 21.0853L24.5769 21.2804L25.5576 21.0853ZM27.9141 23.4423L28.1092 22.4615L27.9141 23.4423ZM25.5576 15.4148L24.5769 15.2197V15.2197L25.5576 15.4148ZM27.9141 13.0576L27.719 12.0769L27.719 12.0769L27.9141 13.0576ZM6.05764 15.4148L5.07686 15.2197L6.05764 15.4148ZM8.41406 13.0576L8.21897 12.0769L8.21897 12.0769L8.41406 13.0576ZM8.41406 23.4423L8.21897 24.4231L8.41406 23.4423ZM6.05764 21.0853L5.07686 21.2804L6.05764 21.0853ZM13.5 19.7684H12.5V19.7684L13.5 19.7684ZM13.4429 21.0853L14.4237 21.2804L13.4429 21.0853ZM11.0853 23.4423L11.2804 24.4231L11.0853 23.4423ZM13.5 16.7316L12.5 16.7316V16.7316H13.5ZM13.4429 15.4148L14.4237 15.2197V15.2197L13.4429 15.4148ZM11.0853 13.0576L11.2804 12.0769L11.2804 12.0769L11.0853 13.0576ZM24.5 16.75V19.75H26.5V16.75H24.5ZM34 19.75V16.75H32V19.75H34ZM34 16.75V16.7316H32V16.75H34ZM34 16.7317C34 16.0945 34.0048 15.6278 33.9237 15.2197L31.9621 15.6099C31.9952 15.7762 32 15.9993 32 16.7316L34 16.7317ZM29.25 14C29.9949 14 30.2213 14.0048 30.3902 14.0384L30.7804 12.0769C30.3696 11.9952 29.8991 12 29.25 12V14ZM33.9237 15.2197C33.608 13.6327 32.3669 12.3924 30.7804 12.0769L30.3902 14.0384C31.1838 14.1963 31.8043 14.8167 31.9621 15.6099L33.9237 15.2197ZM29.25 24.5C29.899 24.5 30.3696 24.5048 30.7804 24.4231L30.3902 22.4615C30.2213 22.4951 29.9949 22.5 29.25 22.5V24.5ZM32 19.75V19.7684H34V19.75H32ZM32 19.7684C32 20.5007 31.9952 20.7238 31.9621 20.8902L33.9237 21.2804C34.0048 20.8722 34 20.4055 34 19.7683L32 19.7684ZM30.7804 24.4231C32.3669 24.1075 33.608 22.8674 33.9237 21.2804L31.9621 20.8902C31.8043 21.6833 31.1838 22.3037 30.3902 22.4615L30.7804 24.4231ZM24.5 19.75C24.5 20.3991 24.4952 20.8696 24.5769 21.2804L26.5384 20.8902C26.5048 20.7213 26.5 20.4949 26.5 19.75H24.5ZM29.25 22.5C28.505 22.5 28.278 22.4951 28.1092 22.4615L27.719 24.4231C28.1297 24.5048 28.601 24.5 29.25 24.5V22.5ZM24.5769 21.2804C24.8924 22.8668 26.1319 24.1074 27.719 24.4231L28.1092 22.4615C27.3161 22.3038 26.6963 21.6839 26.5384 20.8902L24.5769 21.2804ZM26.5 16.75C26.5 16.0051 26.5048 15.7787 26.5384 15.6099L24.5769 15.2197C24.4952 15.6304 24.5 16.1009 24.5 16.75H26.5ZM29.25 12C28.601 12 28.1297 11.9952 27.719 12.0769L28.1092 14.0384C28.278 14.0048 28.505 14 29.25 14V12ZM26.5384 15.6099C26.6963 14.8162 27.3161 14.1962 28.1092 14.0384L27.719 12.0769C26.1319 12.3926 24.8924 13.6333 24.5769 15.2197L26.5384 15.6099ZM12.5 16.75V19.75H14.5V16.75H12.5ZM7 19.75V16.75H5V19.75H7ZM7 16.75C7 16.0051 7.00484 15.7787 7.03843 15.6099L5.07686 15.2197C4.99516 15.6304 5 16.1009 5 16.75H7ZM9.74933 12C9.10028 12 8.62972 11.9952 8.21897 12.0769L8.60915 14.0384C8.778 14.0048 9.00442 14 9.74933 14V12ZM7.03843 15.6099C7.19631 14.8162 7.81612 14.1962 8.60915 14.0384L8.21897 12.0769C6.63186 12.3926 5.39242 13.6333 5.07686 15.2197L7.03843 15.6099ZM9.74933 22.5C9.00443 22.5 8.778 22.4951 8.60915 22.4615L8.21897 24.4231C8.62972 24.5048 9.10029 24.5 9.74933 24.5V22.5ZM5 19.75C5 20.3991 4.99516 20.8696 5.07686 21.2804L7.03843 20.8902C7.00484 20.7213 7 20.4949 7 19.75H5ZM8.60915 22.4615C7.81607 22.3038 7.1963 21.6839 7.03843 20.8902L5.07686 21.2804C5.39243 22.8668 6.63191 24.1074 8.21897 24.4231L8.60915 22.4615ZM12.5 19.75V19.7684H14.5V19.75H12.5ZM12.5 19.7684C12.5 20.5007 12.4952 20.7238 12.4621 20.8902L14.4237 21.2804C14.5048 20.8722 14.5 20.4055 14.5 19.7683L12.5 19.7684ZM9.74933 24.5C10.3983 24.5 10.8696 24.5048 11.2804 24.4231L10.8902 22.4615C10.7213 22.4951 10.4943 22.5 9.74933 22.5V24.5ZM12.4621 20.8902C12.3043 21.6833 11.6838 22.3037 10.8902 22.4615L11.2804 24.4231C12.8669 24.1075 14.108 22.8674 14.4237 21.2804L12.4621 20.8902ZM14.5 16.75V16.7316H12.5V16.75H14.5ZM14.5 16.7317C14.5 16.0945 14.5048 15.6278 14.4237 15.2197L12.4621 15.6099C12.4952 15.7762 12.5 15.9993 12.5 16.7316L14.5 16.7317ZM9.74933 14C10.4943 14 10.7213 14.0048 10.8902 14.0384L11.2804 12.0769C10.8696 11.9952 10.3983 12 9.74933 12V14ZM14.4237 15.2197C14.108 13.6327 12.8669 12.3924 11.2804 12.0769L10.8902 14.0384C11.6838 14.1963 12.3043 14.8167 12.4621 15.6099L14.4237 15.2197Z" fill="#191919"/>
<path d="M4.98156 35.88C2.99156 35.88 1.73156 36.54 1.73156 37.63C1.73156 38.73 2.99156 39.38 4.98156 39.38C6.98156 39.38 8.24156 38.73 8.24156 37.63C8.24156 36.54 6.98156 35.88 4.98156 35.88ZM4.98156 36.7C6.34156 36.7 7.16156 37.02 7.16156 37.63C7.16156 38.23 6.34156 38.56 4.98156 38.56C3.62156 38.56 2.81156 38.23 2.81156 37.63C2.81156 37.02 3.62156 36.7 4.98156 36.7ZM1.84156 41.66V44.72H8.11156V41.66H1.84156ZM7.09156 42.5V43.88H2.87156V42.5H7.09156ZM0.851562 40.05V40.88H9.11156V40.05H0.851562ZM16.6708 37.15V38.01H18.2508V37.15H16.6708ZM16.6708 39.12V39.98H18.2508V39.12H16.6708ZM15.9408 35.69V41.54H16.9908V35.69H15.9408ZM14.0808 41.62C12.2108 41.62 11.0608 42.21 11.0608 43.22C11.0608 44.23 12.2108 44.82 14.0808 44.82C15.9408 44.82 17.0908 44.23 17.0908 43.22C17.0908 42.21 15.9408 41.62 14.0808 41.62ZM14.0808 42.42C15.3308 42.42 16.0508 42.7 16.0508 43.22C16.0508 43.74 15.3308 44.03 14.0808 44.03C12.8208 44.03 12.1008 43.74 12.1008 43.22C12.1008 42.7 12.8208 42.42 14.0808 42.42ZM9.87078 36.65V37.47H15.2508V36.65H9.87078ZM12.5608 37.87C11.2408 37.87 10.3408 38.51 10.3408 39.49C10.3408 40.47 11.2408 41.11 12.5608 41.11C13.8708 41.11 14.7708 40.47 14.7708 39.49C14.7708 38.51 13.8708 37.87 12.5608 37.87ZM12.5608 38.64C13.2808 38.64 13.7708 38.96 13.7708 39.49C13.7708 40.02 13.2808 40.33 12.5608 40.33C11.8408 40.33 11.3508 40.02 11.3508 39.49C11.3508 38.96 11.8408 38.64 12.5608 38.64ZM12.0408 35.62V37.1H13.0808V35.62H12.0408ZM25.35 35.69V44.83H26.4V35.69H25.35ZM22.67 36.66V36.84C22.67 39.28 21.56 41.09 18.93 42.36L19.48 43.2C22.62 41.67 23.7 39.37 23.7 36.66H22.67ZM19.38 36.66V37.5H23.14V36.66H19.38ZM34.3492 35.69V44.83H35.3992V35.69H34.3492ZM31.6692 36.66V36.84C31.6692 39.28 30.5592 41.09 27.9292 42.36L28.4792 43.2C31.6192 41.67 32.6992 39.37 32.6992 36.66H31.6692ZM28.3792 36.66V37.5H32.1392V36.66H28.3792Z" fill="#424242"/>
</svg>
