<svg width="29" height="50" viewBox="0 0 29 50" fill="none" xmlns="http://www.w3.org/2000/svg">
<path d="M13.4433 1.21019L13.826 2.13406L13.4433 1.21019ZM15.5567 1.21019L15.174 2.13406L15.5567 1.21019ZM9.99657 6.77041L9.07269 7.15308L9.99657 6.77041ZM9.99657 4.65701L9.07269 4.27433L9.99657 4.65701ZM15.5567 10.2173L15.174 9.2934L15.5567 10.2173ZM13.4433 10.2173L13.826 9.2934L13.4433 10.2173ZM19.0034 6.77041L19.9273 7.15308L19.0034 6.77041ZM19.0034 4.65701L19.9273 4.27433L19.0034 4.65701ZM4.65692 9.99646L5.03961 10.9203L4.65692 9.99646ZM6.77027 9.99646L6.38757 10.9203L6.77027 9.99646ZM1.21018 15.5567L0.286298 15.9394L1.21018 15.5567ZM1.21018 13.4433L0.286298 13.0606L1.21018 13.4433ZM6.77027 19.0035L6.38757 18.0797L6.77027 19.0035ZM4.65692 19.0035L5.03961 18.0797L4.65692 19.0035ZM10.217 15.5567L11.1409 15.9394L10.217 15.5567ZM10.217 13.4433L11.1409 13.0606L10.217 13.4433ZM22.2297 9.99646L22.6124 10.9203L22.2297 9.99646ZM24.343 9.99646L23.9604 10.9203L24.343 9.99646ZM18.783 15.5567L17.8591 15.9394L18.783 15.5567ZM18.783 13.4433L17.8591 13.0606L18.783 13.4433ZM24.343 19.0035L23.9604 18.0797L24.343 19.0035ZM22.2297 19.0035L22.6124 18.0797L22.2297 19.0035ZM27.7898 15.5567L28.7137 15.9394L27.7898 15.5567ZM27.7898 13.4433L28.7137 13.0606L27.7898 13.4433ZM13.4433 18.7827L13.826 19.7066L13.4433 18.7827ZM15.5567 18.7827L15.174 19.7066L15.5567 18.7827ZM9.99657 24.343L9.07269 24.7256L9.99657 24.343ZM9.99657 22.2295L9.07269 21.8469L9.99657 22.2295ZM15.5567 27.7898L15.174 26.8659L15.5567 27.7898ZM13.4433 27.7898L13.826 26.8659L13.4433 27.7898ZM19.0034 24.343L19.9273 24.7256L19.0034 24.343ZM19.0034 22.2295L19.9273 21.8469L19.0034 22.2295ZM12.2784 3.49209C12.7429 3.02754 13.0563 2.71493 13.3155 2.48885C13.5679 2.26868 13.7144 2.18027 13.826 2.13406L13.0606 0.28631C12.6647 0.450289 12.3301 0.694406 12.0008 0.981662C11.6783 1.263 11.3094 1.6327 10.8642 2.07789L12.2784 3.49209ZM18.1358 2.07789C17.6906 1.6327 17.3217 1.263 16.9991 0.981662C16.6698 0.694406 16.3352 0.450289 15.9393 0.28631L15.174 2.13406C15.2855 2.18027 15.4321 2.26868 15.6845 2.48885C15.9436 2.71493 16.257 3.02754 16.7215 3.49209L18.1358 2.07789ZM13.826 2.13406C14.2575 1.95531 14.7424 1.95531 15.174 2.13406L15.9393 0.28631C15.0177 -0.0954368 13.9822 -0.0954368 13.0606 0.28631L13.826 2.13406ZM12.2785 7.93536C11.8139 7.47082 11.5013 7.15744 11.2752 6.89825C11.0551 6.64584 10.9667 6.4993 10.9205 6.38773L9.07269 7.15308C9.23666 7.54896 9.48077 7.88357 9.76802 8.21289C10.0493 8.53543 10.419 8.90436 10.8642 9.34956L12.2785 7.93536ZM10.8642 2.07789C10.419 2.52309 10.0493 2.89201 9.768 3.21454C9.48075 3.54387 9.23666 3.87846 9.07269 4.27433L10.9205 5.03968C10.9667 4.92812 11.0551 4.78158 11.2752 4.52919C11.5013 4.27001 11.8139 3.95664 12.2784 3.49209L10.8642 2.07789ZM10.9205 6.38773C10.7417 5.95618 10.7417 5.47124 10.9205 5.03968L9.07269 4.27433C8.69096 5.19594 8.69096 6.23148 9.07269 7.15308L10.9205 6.38773ZM16.7215 7.93537C16.257 8.39992 15.9436 8.71253 15.6845 8.93861C15.4321 9.15878 15.2855 9.24719 15.174 9.2934L15.9393 11.1411C16.3352 10.9772 16.6698 10.7331 16.9991 10.4458C17.3217 10.1645 17.6906 9.79476 18.1358 9.34957L16.7215 7.93537ZM10.8642 9.34956C11.3094 9.79475 11.6783 10.1644 12.0008 10.4458C12.3301 10.733 12.6647 10.9772 13.0606 11.1411L13.826 9.2934C13.7145 9.24719 13.5679 9.15879 13.3155 8.93862C13.0564 8.71254 12.743 8.39992 12.2785 7.93536L10.8642 9.34956ZM15.174 9.2934C14.7424 9.47215 14.2575 9.47215 13.826 9.2934L13.0606 11.1411C13.9822 11.5229 15.0177 11.5229 15.9393 11.1411L15.174 9.2934ZM18.1358 9.34957C18.581 8.90437 18.9507 8.53544 19.232 8.2129C19.5192 7.88357 19.7633 7.54896 19.9273 7.15308L18.0795 6.38773C18.0333 6.4993 17.9449 6.64584 17.7248 6.89825C17.4987 7.15744 17.1861 7.47082 16.7215 7.93537L18.1358 9.34957ZM16.7215 3.49209C17.1861 3.95665 17.4987 4.27002 17.7248 4.5292C17.9449 4.7816 18.0333 4.92813 18.0795 5.03968L19.9273 4.27433C19.7633 3.87845 19.5192 3.54384 19.232 3.21453C18.9506 2.892 18.581 2.52308 18.1358 2.07789L16.7215 3.49209ZM19.9273 7.15308C20.309 6.23148 20.309 5.19594 19.9273 4.27433L18.0795 5.03968C18.2583 5.47124 18.2583 5.95618 18.0795 6.38773L19.9273 7.15308ZM3.49202 12.2784C3.95656 11.8138 4.26993 11.5012 4.52912 11.2751C4.78152 11.055 4.92806 10.9665 5.03961 10.9203L4.27422 9.07258C3.87835 9.23656 3.54375 9.48068 3.21443 9.76793C2.8919 10.0493 2.52298 10.419 2.07779 10.8642L3.49202 12.2784ZM9.34939 10.8642C8.9042 10.419 8.53528 10.0493 8.21275 9.76793C7.88343 9.48068 7.54883 9.23656 7.15296 9.07258L6.38757 10.9203C6.49913 10.9665 6.64566 11.055 6.89806 11.2751C7.15725 11.5012 7.47062 11.8138 7.93516 12.2784L9.34939 10.8642ZM5.03961 10.9203C5.47114 10.7416 5.95604 10.7416 6.38757 10.9203L7.15296 9.07258C6.23136 8.69083 5.19582 8.69083 4.27422 9.07258L5.03961 10.9203ZM3.49206 16.7216C3.02753 16.2571 2.71492 15.9437 2.48884 15.6845C2.26869 15.4321 2.18027 15.2856 2.13406 15.174L0.286298 15.9394C0.45027 16.3352 0.694378 16.6698 0.981627 16.9992C1.26296 17.3217 1.63264 17.6906 2.07783 18.1358L3.49206 16.7216ZM2.07779 10.8642C1.63261 11.3094 1.26293 11.6783 0.981608 12.0008C0.694363 12.3301 0.450268 12.6647 0.286298 13.0606L2.13406 13.826C2.18028 13.7144 2.26868 13.5678 2.48883 13.3155C2.71489 13.0563 3.02749 12.7429 3.49202 12.2784L2.07779 10.8642ZM2.13406 15.174C1.95531 14.7424 1.95531 14.2575 2.13406 13.826L0.286298 13.0606C-0.0954328 13.9822 -0.0954328 15.0178 0.286298 15.9394L2.13406 15.174ZM7.93516 16.7216C7.47062 17.1862 7.15725 17.4988 6.89806 17.7249C6.64566 17.945 6.49913 18.0335 6.38757 18.0797L7.15296 19.9274C7.54883 19.7634 7.88343 19.5193 8.21275 19.2321C8.53528 18.9507 8.9042 18.581 9.34939 18.1358L7.93516 16.7216ZM2.07783 18.1358C2.52301 18.581 2.89192 18.9507 3.21444 19.2321C3.54374 19.5193 3.87834 19.7634 4.27422 19.9274L5.03961 18.0797C4.92807 18.0335 4.78154 17.9451 4.52915 17.7249C4.26997 17.4988 3.95661 17.1862 3.49206 16.7216L2.07783 18.1358ZM6.38757 18.0797C5.95604 18.2584 5.47114 18.2584 5.03961 18.0797L4.27422 19.9274C5.19582 20.3092 6.23136 20.3092 7.15296 19.9274L6.38757 18.0797ZM9.34939 18.1358C9.79457 17.6906 10.1643 17.3217 10.4456 16.9992C10.7328 16.6698 10.977 16.3352 11.1409 15.9394L9.29316 15.174C9.24695 15.2856 9.15854 15.4321 8.93838 15.6845C8.7123 15.9437 8.39969 16.2571 7.93516 16.7216L9.34939 18.1358ZM7.93516 12.2784C8.3997 12.7429 8.71231 13.0563 8.93839 13.3155C9.15855 13.5679 9.24695 13.7144 9.29316 13.826L11.1409 13.0606C10.9769 12.6647 10.7328 12.3301 10.4456 12.0008C10.1643 11.6783 9.79457 11.3094 9.34939 10.8642L7.93516 12.2784ZM11.1409 15.9394C11.5227 15.0178 11.5227 13.9822 11.1409 13.0606L9.29316 13.826C9.47191 14.2575 9.47191 14.7424 9.29316 15.174L11.1409 15.9394ZM21.0648 12.2784C21.5293 11.8138 21.8427 11.5012 22.1019 11.2751C22.3543 11.055 22.5008 10.9665 22.6124 10.9203L21.847 9.07258C21.4511 9.23656 21.1165 9.48068 20.7872 9.76793C20.4647 10.0493 20.0958 10.419 19.6506 10.8642L21.0648 12.2784ZM26.9222 10.8642C26.477 10.419 26.1081 10.0493 25.7855 9.76793C25.4562 9.48068 25.1216 9.23656 24.7257 9.07258L23.9604 10.9203C24.0719 10.9665 24.2184 11.055 24.4708 11.2751C24.73 11.5012 25.0434 11.8138 25.5079 12.2784L26.9222 10.8642ZM22.6124 10.9203C23.0439 10.7416 23.5288 10.7416 23.9604 10.9203L24.7257 9.07258C23.8041 8.69083 22.7686 8.69083 21.847 9.07258L22.6124 10.9203ZM21.0648 16.7216C20.6003 16.2571 20.2877 15.9437 20.0616 15.6845C19.8415 15.4321 19.7531 15.2856 19.7068 15.174L17.8591 15.9394C18.023 16.3352 18.2672 16.6698 18.5544 16.9992C18.8357 17.3217 19.2054 17.6906 19.6506 18.1358L21.0648 16.7216ZM19.6506 10.8642C19.2054 11.3094 18.8357 11.6783 18.5544 12.0008C18.2671 12.3301 18.023 12.6647 17.8591 13.0606L19.7068 13.826C19.7531 13.7144 19.8415 13.5678 20.0616 13.3155C20.2877 13.0563 20.6003 12.7429 21.0648 12.2784L19.6506 10.8642ZM19.7068 15.174C19.5281 14.7424 19.5281 14.2575 19.7068 13.826L17.8591 13.0606C17.4773 13.9822 17.4773 15.0178 17.8591 15.9394L19.7068 15.174ZM25.5079 16.7216C25.0434 17.1862 24.73 17.4988 24.4708 17.7249C24.2184 17.945 24.0719 18.0335 23.9604 18.0797L24.7257 19.9274C25.1216 19.7634 25.4562 19.5193 25.7855 19.2321C26.1081 18.9507 26.477 18.581 26.9222 18.1358L25.5079 16.7216ZM19.6506 18.1358C20.0958 18.581 20.4647 18.9507 20.7872 19.2321C21.1165 19.5193 21.4511 19.7634 21.847 19.9274L22.6124 18.0797C22.5008 18.0335 22.3543 17.9451 22.1019 17.7249C21.8427 17.4988 21.5294 17.1862 21.0648 16.7216L19.6506 18.1358ZM23.9604 18.0797C23.5288 18.2584 23.0439 18.2584 22.6124 18.0797L21.847 19.9274C22.7686 20.3092 23.8041 20.3092 24.7257 19.9274L23.9604 18.0797ZM26.9222 18.1358C27.3674 17.6906 27.737 17.3217 28.0184 16.9992C28.3056 16.6698 28.5497 16.3352 28.7137 15.9394L26.8659 15.174C26.8197 15.2856 26.7313 15.4321 26.5112 15.6845C26.2851 15.9437 25.9725 16.2571 25.5079 16.7216L26.9222 18.1358ZM25.5079 12.2784C25.9725 12.7429 26.2851 13.0563 26.5112 13.3155C26.7313 13.5679 26.8197 13.7144 26.8659 13.826L28.7137 13.0606C28.5497 12.6647 28.3056 12.3301 28.0184 12.0008C27.737 11.6783 27.3673 11.3094 26.9222 10.8642L25.5079 12.2784ZM28.7137 15.9394C29.0954 15.0178 29.0954 13.9822 28.7137 13.0606L26.8659 13.826C27.0447 14.2575 27.0447 14.7424 26.8659 15.174L28.7137 15.9394ZM12.2784 21.0646C12.7429 20.6001 13.0563 20.2875 13.3155 20.0614C13.5679 19.8412 13.7144 19.7528 13.826 19.7066L13.0606 17.8589C12.6647 18.0228 12.3301 18.2669 12.0008 18.5542C11.6783 18.8355 11.3094 19.2052 10.8642 19.6504L12.2784 21.0646ZM18.1358 19.6504C17.6906 19.2052 17.3217 18.8355 16.9991 18.5542C16.6698 18.2669 16.3352 18.0228 15.9393 17.8589L15.174 19.7066C15.2855 19.7528 15.4321 19.8412 15.6845 20.0614C15.9436 20.2875 16.257 20.6001 16.7215 21.0646L18.1358 19.6504ZM13.826 19.7066C14.2575 19.5279 14.7424 19.5279 15.174 19.7066L15.9393 17.8589C15.0177 17.4771 13.9822 17.4771 13.0606 17.8589L13.826 19.7066ZM12.2785 25.5079C11.8139 25.0434 11.5013 24.73 11.2752 24.4708C11.0551 24.2184 10.9667 24.0718 10.9205 23.9603L9.07269 24.7256C9.23666 25.1215 9.48077 25.4561 9.76802 25.7854C10.0493 26.108 10.419 26.4769 10.8642 26.9221L12.2785 25.5079ZM10.8642 19.6504C10.419 20.0956 10.0493 20.4646 9.768 20.7871C9.48075 21.1164 9.23666 21.451 9.07269 21.8469L10.9205 22.6122C10.9667 22.5007 11.0551 22.3541 11.2752 22.1017C11.5013 21.8426 11.8139 21.5292 12.2784 21.0646L10.8642 19.6504ZM10.9205 23.9603C10.7417 23.5287 10.7417 23.0438 10.9205 22.6122L9.07269 21.8469C8.69096 22.7685 8.69096 23.804 9.07269 24.7256L10.9205 23.9603ZM16.7215 25.5079C16.257 25.9725 15.9436 26.2851 15.6845 26.5112C15.4321 26.7313 15.2855 26.8197 15.174 26.8659L15.9393 28.7137C16.3352 28.5497 16.6698 28.3056 16.9991 28.0183C17.3217 27.737 17.6906 27.3673 18.1358 26.9221L16.7215 25.5079ZM10.8642 26.9221C11.3094 27.3673 11.6783 27.737 12.0008 28.0183C12.3301 28.3056 12.6647 28.5497 13.0606 28.7137L13.826 26.8659C13.7145 26.8197 13.5679 26.7313 13.3155 26.5112C13.0564 26.2851 12.743 25.9725 12.2785 25.5079L10.8642 26.9221ZM15.174 26.8659C14.7424 27.0447 14.2575 27.0447 13.826 26.8659L13.0606 28.7137C13.9822 29.0954 15.0177 29.0954 15.9393 28.7137L15.174 26.8659ZM18.1358 26.9221C18.581 26.4769 18.9507 26.108 19.232 25.7854C19.5192 25.4561 19.7633 25.1215 19.9273 24.7256L18.0795 23.9603C18.0333 24.0718 17.9449 24.2184 17.7248 24.4708C17.4987 24.73 17.1861 25.0434 16.7215 25.5079L18.1358 26.9221ZM16.7215 21.0646C17.1861 21.5292 17.4987 21.8426 17.7248 22.1017C17.9449 22.3541 18.0333 22.5007 18.0795 22.6122L19.9273 21.8469C19.7633 21.451 19.5192 21.1164 19.232 20.7871C18.9506 20.4645 18.581 20.0956 18.1358 19.6504L16.7215 21.0646ZM19.9273 24.7256C20.309 23.804 20.309 22.7685 19.9273 21.8469L18.0795 22.6122C18.2583 23.0438 18.2583 23.5287 18.0795 23.9603L19.9273 24.7256Z" fill="#191919"/>
<path d="M11.5701 2.78499L11.5701 2.78499C10.6603 3.69474 10.2055 4.14957 9.99534 4.65701C9.7151 5.33359 9.7151 6.09383 9.99534 6.77041C10.2055 7.27784 10.6604 7.73272 11.5701 8.64246L11.5705 8.64285C12.48 9.55234 12.9347 10.0071 13.4421 10.2173C14.1186 10.4975 14.8789 10.4975 15.5554 10.2173C16.0628 10.0071 16.5177 9.55221 17.4274 8.64247C18.3372 7.73272 18.792 7.27784 19.0022 6.77041C19.2824 6.09383 19.2824 5.33359 19.0022 4.65701C18.792 4.14964 18.3373 3.69486 17.4278 2.78537L17.4274 2.78499C16.5177 1.87525 16.0628 1.42037 15.5554 1.21019C14.8789 0.929938 14.1186 0.929938 13.4421 1.21019C12.9346 1.42037 12.4798 1.87525 11.5701 2.78499Z" fill="#0F42F4" fill-opacity="0.4"/>
<path d="M11.5701 2.78499L10.863 2.07788L10.8629 2.07789L11.5701 2.78499ZM11.5701 2.78499L12.2772 3.4921L12.2772 3.49209L11.5701 2.78499ZM13.4421 1.21019L13.8248 2.13406H13.8248L13.4421 1.21019ZM17.4274 2.78499L16.7203 3.49209L16.7207 3.49243L17.4274 2.78499ZM15.5554 1.21019L15.1727 2.13406L15.5554 1.21019ZM11.5701 8.64246L12.2775 7.93569L12.2772 7.93536L11.5701 8.64246ZM9.99534 4.65701L10.9192 5.03968L9.99534 4.65701ZM17.4274 8.64247L16.7203 7.93537L17.4274 8.64247ZM15.5554 10.2173L15.9381 11.1411H15.9381L15.5554 10.2173ZM11.5705 8.64285L10.863 9.34962L10.8634 9.34994L11.5705 8.64285ZM13.4421 10.2173L13.0594 11.1411H13.0594L13.4421 10.2173ZM19.0022 6.77041L18.0783 6.38773L18.0783 6.38773L19.0022 6.77041ZM17.4278 2.78537L18.1349 2.07827L18.1346 2.07793L17.4278 2.78537ZM19.0022 4.65701L18.0783 5.03968L18.0783 5.03968L19.0022 4.65701ZM12.2772 3.4921L12.2772 3.4921L10.863 2.07788L10.863 2.07788L12.2772 3.4921ZM12.2772 3.49209C12.7417 3.02754 13.0551 2.71493 13.3143 2.48885C13.5667 2.26868 13.7132 2.18027 13.8248 2.13406L13.0594 0.28631C12.6635 0.450289 12.3289 0.694406 11.9996 0.981662C11.6771 1.263 11.3081 1.63269 10.863 2.07789L12.2772 3.49209ZM18.1345 2.07789C17.6894 1.6327 17.3204 1.263 16.9979 0.981662C16.6686 0.694406 16.334 0.450289 15.9381 0.28631L15.1727 2.13406C15.2843 2.18027 15.4308 2.26868 15.6832 2.48885C15.9424 2.71493 16.2558 3.02754 16.7203 3.49209L18.1345 2.07789ZM13.8248 2.13406C14.2563 1.95531 14.7412 1.95531 15.1727 2.13406L15.9381 0.28631C15.0165 -0.0954368 13.981 -0.0954368 13.0594 0.28631L13.8248 2.13406ZM12.2772 7.93536C11.8127 7.47082 11.5001 7.15744 11.274 6.89825C11.0538 6.64584 10.9654 6.4993 10.9192 6.38773L9.07145 7.15308C9.23543 7.54896 9.47953 7.88357 9.76678 8.21289C10.0481 8.53543 10.4178 8.90436 10.863 9.34956L12.2772 7.93536ZM10.8629 2.07789C10.4178 2.52309 10.0481 2.89201 9.76676 3.21454C9.47952 3.54387 9.23542 3.87846 9.07145 4.27433L10.9192 5.03968C10.9654 4.92812 11.0538 4.78158 11.274 4.52919C11.5 4.27001 11.8126 3.95664 12.2772 3.49209L10.8629 2.07789ZM10.9192 6.38773C10.7405 5.95618 10.7405 5.47124 10.9192 5.03968L9.07145 4.27433C8.68972 5.19594 8.68972 6.23148 9.07145 7.15308L10.9192 6.38773ZM16.7203 7.93537C16.2558 8.39992 15.9424 8.71253 15.6832 8.93861C15.4308 9.15877 15.2843 9.24719 15.1727 9.2934L15.9381 11.1411C16.334 10.9772 16.6686 10.7331 16.9979 10.4458C17.3204 10.1645 17.6894 9.79476 18.1345 9.34957L16.7203 7.93537ZM10.8627 9.34924L10.863 9.34962L12.2779 7.93607L12.2775 7.93569L10.8627 9.34924ZM10.8634 9.34994C11.3084 9.79501 11.6773 10.1646 11.9997 10.4459C12.329 10.7331 12.6636 10.9772 13.0594 11.1411L13.8248 9.2934C13.7132 9.2472 13.5667 9.15881 13.3144 8.93871C13.0553 8.71269 12.742 8.40017 12.2776 7.93575L10.8634 9.34994ZM15.1727 9.2934C14.7412 9.47215 14.2563 9.47215 13.8248 9.2934L13.0594 11.1411C13.981 11.5229 15.0165 11.5229 15.9381 11.1411L15.1727 9.2934ZM18.1345 9.34957C18.5797 8.90437 18.9494 8.53544 19.2308 8.2129C19.518 7.88357 19.7621 7.54896 19.9261 7.15308L18.0783 6.38773C18.0321 6.4993 17.9437 6.64584 17.7235 6.89825C17.4975 7.15744 17.1848 7.47082 16.7203 7.93537L18.1345 9.34957ZM16.7207 3.49243L16.721 3.49281L18.1346 2.07793L18.1342 2.07755L16.7207 3.49243ZM16.7207 3.49247C17.1851 3.95689 17.4976 4.27018 17.7236 4.52931C17.9437 4.78164 18.0321 4.92815 18.0783 5.03968L19.9261 4.27433C19.7621 3.8785 19.5181 3.54393 19.2309 3.21467C18.9496 2.89219 18.58 2.52334 18.1349 2.07827L16.7207 3.49247ZM19.9261 7.15308C20.3078 6.23148 20.3078 5.19594 19.9261 4.27433L18.0783 5.03968C18.2571 5.47124 18.2571 5.95618 18.0783 6.38773L19.9261 7.15308Z" fill="#191919"/>
<path d="M12.3508 38.69V47.83H13.4008V38.69H12.3508ZM9.67078 39.66V39.84C9.67078 42.28 8.56078 44.09 5.93078 45.36L6.48078 46.2C9.62078 44.67 10.7008 42.37 10.7008 39.66H9.67078ZM6.38078 39.66V40.5H10.1408V39.66H6.38078ZM15.23 44.83V45.69H15.97C17.62 45.69 18.83 45.65 20.23 45.41L20.13 44.57C18.76 44.8 17.59 44.83 15.97 44.83H15.23ZM15.23 39.49V45.12H16.28V40.35H19.5V39.49H15.23ZM16.02 42.04V42.87H19.33V42.04H16.02ZM20.89 38.69V47.83H21.94V38.69H20.89ZM21.7 42.27V43.14H23.36V42.27H21.7Z" fill="#424242"/>
</svg>
