<svg width="166" height="42" viewBox="0 0 166 42" fill="none" xmlns="http://www.w3.org/2000/svg">
<rect width="166" height="42" rx="4" fill="#0F42F4"/>
<path d="M65.232 21.428C63.342 20.77 62.264 19.188 62.264 17.62V17.382H64.896V16.22H58.134V17.382H60.808V17.634C60.808 19.342 59.66 21.008 57.7 21.68L58.442 22.814C59.94 22.296 61.004 21.204 61.564 19.846C62.11 21.064 63.118 22.058 64.518 22.548L65.232 21.428ZM59.66 24.774H66.744V28.078H68.186V23.612H59.66V24.774ZM66.744 15.422V18.6H64.532V19.79H66.744V22.982H68.186V15.422H66.744ZM76.2769 26.972C74.4289 26.972 73.3929 26.58 73.3929 25.81C73.3929 25.054 74.4289 24.648 76.2769 24.648C78.1249 24.648 79.1749 25.054 79.1749 25.81C79.1749 26.58 78.1249 26.972 76.2769 26.972ZM76.2769 23.542C73.5609 23.542 71.9229 24.368 71.9229 25.81C71.9229 27.266 73.5609 28.078 76.2769 28.078C79.0069 28.078 80.6309 27.266 80.6309 25.81C80.6309 24.368 79.0069 23.542 76.2769 23.542ZM74.7369 20.294C75.1989 20.364 75.7449 20.406 76.3049 20.406C76.8649 20.406 77.3829 20.364 77.8449 20.294V21.582H74.7369V20.294ZM76.3049 16.766C78.1809 16.766 79.3149 17.214 79.3149 18.026C79.3149 18.838 78.1809 19.3 76.3049 19.3C74.4149 19.3 73.2809 18.838 73.2809 18.026C73.2809 17.214 74.4149 16.766 76.3049 16.766ZM79.2869 21.582V19.916C80.2529 19.496 80.8129 18.852 80.8129 18.026C80.8129 16.542 79.0629 15.646 76.3049 15.646C73.5329 15.646 71.7969 16.542 71.7969 18.026C71.7969 18.852 72.3429 19.496 73.2949 19.902V21.582H70.5789V22.73H82.0169V21.582H79.2869ZM87.1538 24.172C86.1318 24.172 85.3898 23.472 85.3898 22.408C85.3898 21.344 86.1318 20.644 87.1538 20.644C88.1758 20.644 88.9178 21.344 88.9178 22.408C88.9178 23.472 88.1758 24.172 87.1538 24.172ZM87.1538 19.454C85.3338 19.454 84.0178 20.686 84.0178 22.408C84.0178 24.144 85.3338 25.362 87.1538 25.362C88.9598 25.362 90.2898 24.144 90.2898 22.408C90.2898 20.686 88.9598 19.454 87.1538 19.454ZM87.8538 15.632H86.4118V17.382H83.4018V18.558H90.8078V17.382H87.8538V15.632ZM95.2318 20.518H93.2858V15.436H91.8298V28.092H93.2858V21.722H95.2318V20.518ZM97.0647 16.766V17.942H101.573C101.321 20.854 99.7527 23.08 96.4347 24.676L97.2047 25.824C101.545 23.724 103.057 20.532 103.057 16.766H97.0647ZM105.339 15.436V28.078H106.781V15.436H105.339Z" fill="white"/>
</svg>
