<svg width="30" height="43" viewBox="0 0 30 43" fill="none" xmlns="http://www.w3.org/2000/svg">
<path d="M25.5 16.3083V5.10828V5.10446C25.5 3.80022 25.5 3.14769 25.2459 2.64905C25.0222 2.21 24.6648 1.85302 24.2258 1.62932C23.7266 1.375 23.0737 1.375 21.7669 1.375H8.23356C6.92677 1.375 6.27289 1.375 5.77376 1.62932C5.33472 1.85302 4.97802 2.21 4.75432 2.64905C4.5 3.14818 4.5 3.80149 4.5 5.10828V16.3083C4.5 17.6151 4.5 18.2686 4.75432 18.7677C4.97802 19.2067 5.33472 19.5636 5.77376 19.7873C6.27289 20.0416 6.92677 20.0417 8.23356 20.0417H21.7669C23.0737 20.0417 23.7266 20.0416 24.2258 19.7873C24.6648 19.5636 25.0222 19.2067 25.2459 18.7677C25.5 18.2691 25.5 17.6163 25.5 16.3121V16.3083Z" fill="#191919"/>
<path d="M4.75432 2.64905L5.46712 3.01224L4.75432 2.64905ZM5.77376 1.62932L6.13696 2.34212V2.34212L5.77376 1.62932ZM5.77376 19.7873L5.41057 20.5001H5.41057L5.77376 19.7873ZM4.75432 18.7677L4.04151 19.1309H4.04151L4.75432 18.7677ZM25.2459 18.7677L25.9587 19.1309V19.1309L25.2459 18.7677ZM24.2258 19.7873L24.5889 20.5001H24.5889L24.2258 19.7873ZM25.2459 2.64905L25.9587 2.28586V2.28585L25.2459 2.64905ZM24.2258 1.62932L24.5889 0.916513V0.916513L24.2258 1.62932ZM12.3 6.04167C12.3 5.59984 11.9418 5.24167 11.5 5.24167C11.0582 5.24167 10.7 5.59984 10.7 6.04167H12.3ZM19.3 6.04167C19.3 5.59984 18.9418 5.24167 18.5 5.24167C18.0582 5.24167 17.7 5.59984 17.7 6.04167H19.3ZM24.7 5.10828V16.3083H26.3V5.10828H24.7ZM21.7669 19.2417H8.23356V20.8417H21.7669V19.2417ZM5.3 16.3083V5.10828H3.7V16.3083H5.3ZM8.23356 2.175H21.7669V0.575H8.23356V2.175ZM5.3 5.10828C5.3 4.44168 5.30062 3.98987 5.32913 3.64094C5.35688 3.30135 5.407 3.13024 5.46712 3.01224L4.04151 2.28586C3.84732 2.66699 3.77028 3.07209 3.73445 3.51064C3.69938 3.93984 3.7 4.46808 3.7 5.10828H5.3ZM8.23356 0.575C7.59336 0.575 7.06499 0.574378 6.63566 0.609445C6.19705 0.64527 5.79176 0.722289 5.41057 0.916513L6.13696 2.34212C6.2549 2.28203 6.42611 2.23189 6.76591 2.20413C7.115 2.17562 7.56697 2.175 8.23356 2.175V0.575ZM5.46712 3.01224C5.61423 2.72352 5.84865 2.48902 6.13696 2.34212L5.41057 0.916513C4.82079 1.21702 4.34181 1.69649 4.04151 2.28586L5.46712 3.01224ZM8.23356 19.2417C7.56699 19.2417 7.11501 19.241 6.76593 19.2125C6.42614 19.1848 6.25491 19.1346 6.13696 19.0745L5.41057 20.5001C5.79174 20.6943 6.19702 20.7714 6.63565 20.8072C7.06498 20.8423 7.59335 20.8417 8.23356 20.8417V19.2417ZM3.7 16.3083C3.7 16.9485 3.69938 17.4768 3.73445 17.906C3.77028 18.3446 3.84731 18.7497 4.04151 19.1309L5.46712 18.4045C5.40701 18.2865 5.35688 18.1154 5.32913 17.7757C5.30062 17.4267 5.3 16.9749 5.3 16.3083H3.7ZM6.13696 19.0745C5.84856 18.9276 5.61419 18.6931 5.46712 18.4045L4.04151 19.1309C4.34185 19.7203 4.82088 20.1997 5.41057 20.5001L6.13696 19.0745ZM24.7 16.3083V16.3121H26.3V16.3083H24.7ZM24.7 16.3121C24.7 16.9774 24.6994 17.4284 24.6709 17.7768C24.6432 18.1159 24.5931 18.2867 24.5331 18.4045L25.9587 19.1309C26.1528 18.75 26.2298 18.3452 26.2656 17.9072C26.3006 17.4785 26.3 16.951 26.3 16.3121H24.7ZM21.7669 20.8417C22.4071 20.8417 22.9353 20.8423 23.3644 20.8072C23.8029 20.7714 24.2079 20.6943 24.5889 20.5001L23.8626 19.0745C23.7445 19.1347 23.5734 19.1848 23.234 19.2125C22.8852 19.241 22.4335 19.2417 21.7669 19.2417V20.8417ZM24.5331 18.4045C24.3863 18.6926 24.1515 18.9273 23.8626 19.0745L24.5889 20.5001C25.1781 20.1999 25.6581 19.7209 25.9587 19.1309L24.5331 18.4045ZM26.3 5.10828V5.10446H24.7V5.10828H26.3ZM26.3 5.10446C26.3 4.46554 26.3006 3.93812 26.2656 3.50947C26.2298 3.07147 26.1528 2.66671 25.9587 2.28586L24.5331 3.01224C24.5931 3.13003 24.6432 3.30085 24.6709 3.63983C24.6994 3.98817 24.7 4.43914 24.7 5.10446H26.3ZM21.7669 2.175C22.4335 2.175 22.8852 2.17562 23.234 2.20413C23.5735 2.23187 23.7445 2.28198 23.8626 2.34212L24.5889 0.916513C24.2078 0.722336 23.8029 0.645286 23.3644 0.609448C22.9352 0.574377 22.4071 0.575 21.7669 0.575V2.175ZM25.9587 2.28585C25.6582 1.69596 25.1782 1.21675 24.5889 0.916513L23.8626 2.34212C24.1514 2.48929 24.3863 2.72405 24.5331 3.01224L25.9587 2.28585ZM10.7 6.04167C10.7 8.41649 12.6252 10.3417 15 10.3417V8.74167C13.5088 8.74167 12.3 7.53284 12.3 6.04167H10.7ZM15 10.3417C17.3748 10.3417 19.3 8.41649 19.3 6.04167H17.7C17.7 7.53284 16.4912 8.74167 15 8.74167V10.3417Z" fill="#191919"/>
<path d="M11.5 6.04175C11.5 7.97474 13.067 9.54175 15 9.54175C16.933 9.54175 18.5 7.97474 18.5 6.04175" stroke="white" stroke-width="1.6" stroke-linecap="round" stroke-linejoin="round"/>
<path d="M2.01813 32.78H0.988125V38.49H1.58813C2.52813 38.49 3.56813 38.44 4.77813 38.22L4.66813 37.34C3.68813 37.52 2.81813 37.59 2.01813 37.61V32.78ZM7.28813 31.74V35.33H6.21813V31.92H5.24813V40.32H6.21813V36.18H7.28813V40.77H8.26813V31.74H7.28813ZM12.3834 32.69V33.53H15.5234C15.3534 35.58 14.3334 37.17 11.9834 38.33L12.5334 39.13C15.5934 37.61 16.5734 35.34 16.5734 32.69H12.3834ZM18.4734 31.74V35.29H16.5334V36.14H18.4734V40.78H19.5134V31.74H18.4734ZM22.5027 35.99H24.8827V32.67H21.4927V33.51H23.8927V35.16H21.5127V38.68H22.1227C23.2327 38.68 24.2327 38.65 25.4427 38.44L25.3527 37.6C24.3227 37.77 23.4427 37.82 22.5027 37.83V35.99ZM27.9527 31.74V35.23H26.8827V31.92H25.9127V40.32H26.8827V36.07H27.9527V40.76H28.9327V31.74H27.9527Z" fill="#191919"/>
</svg>
