<svg width="310" height="42" viewBox="0 0 310 42" fill="none" xmlns="http://www.w3.org/2000/svg">
<rect width="310" height="42" rx="4" fill="#0F42F4"/>
<path d="M91.208 16.048V16.464C91.208 17.92 89.256 19.248 86.392 19.552L86.984 20.864C90.328 20.48 92.696 18.768 92.696 16.464V16.048H91.208ZM91.976 16.048V16.464C91.976 18.784 94.344 20.48 97.688 20.864L98.28 19.552C95.4 19.248 93.448 17.92 93.448 16.464V16.048H91.976ZM86.936 15.344V16.672H97.752V15.344H86.936ZM85.72 21.664V23.008H98.968V21.664H85.72ZM87.192 24.304V25.648H95.656V29.328H97.32V24.304H87.192ZM104.167 15.904V18.304C104.167 21.104 102.663 23.92 100.327 24.976L101.335 26.368C103.959 25.088 105.543 21.84 105.543 18.304V15.904H104.167ZM104.487 15.904V18.304C104.487 21.712 106.071 24.832 108.647 26.048L109.639 24.704C107.335 23.68 105.847 20.992 105.847 18.304V15.904H104.487ZM110.807 14.688V29.344H112.487V14.688H110.807ZM116.758 15.616V16.944H125.91V15.616H116.758ZM115.174 21.856V23.232H128.39V21.856H115.174ZM120.886 22.8V29.344H122.566V22.8H120.886ZM125.078 15.616V16.896C125.078 18.384 125.078 20.096 124.518 22.496L126.166 22.704C126.726 20.176 126.726 18.448 126.726 16.896V15.616H125.078ZM140.772 14.704V29.328H142.372V14.704H140.772ZM138.692 20.4V21.76H141.332V20.4H138.692ZM137.54 14.976V28.624H139.124V14.976H137.54ZM130.356 16.304V25.52H136.02V16.304H130.356ZM134.452 17.632V24.208H131.924V17.632H134.452ZM150.989 18.576V19.168C150.989 21.488 150.029 23.952 147.997 25.136L148.973 26.4C151.197 25.104 152.269 22.128 152.269 19.168V18.576H150.989ZM151.309 18.576V19.168C151.309 22.064 152.413 24.864 154.653 26.08L155.581 24.832C153.581 23.744 152.589 21.424 152.589 19.168V18.576H151.309ZM148.429 17.312V18.672H155.149V17.312H148.429ZM150.989 15.216V18.368H152.589V15.216H150.989ZM159.149 14.704V29.328H160.749V14.704H159.149ZM157.085 20.464V21.856H159.725V20.464H157.085ZM155.981 14.976V28.624H157.549V14.976H155.981ZM163.74 21.472V22.816H164.956C168.092 22.816 169.9 22.768 171.996 22.416L171.82 21.088C169.788 21.424 168.044 21.472 164.956 21.472H163.74ZM163.74 15.744V22.08H165.404V17.088H170.732V15.744H163.74ZM164.876 18.592V19.904H170.316V18.592H164.876ZM173.292 14.72V23.664H174.972V14.72H173.292ZM170.092 23.888C167.02 23.888 165.148 24.88 165.148 26.592C165.148 28.32 167.02 29.312 170.092 29.312C173.148 29.312 175.036 28.32 175.036 26.592C175.036 24.88 173.148 23.888 170.092 23.888ZM170.092 25.184C172.172 25.184 173.372 25.68 173.372 26.592C173.372 27.52 172.172 28.016 170.092 28.016C167.996 28.016 166.812 27.52 166.812 26.592C166.812 25.68 167.996 25.184 170.092 25.184ZM181.236 26.16V27.536H194.484V26.16H181.236ZM186.996 22.832V26.528H188.66V22.832H186.996ZM182.708 15.696V23.232H192.948V15.696H191.284V18.144H184.388V15.696H182.708ZM184.388 19.472H191.284V21.872H184.388V19.472ZM206.787 14.704V29.328H208.387V14.704H206.787ZM204.579 20.512V21.872H207.219V20.512H204.579ZM203.491 14.992V28.608H205.059V14.992H203.491ZM196.595 16.4V24.848H198.275V16.4H196.595ZM196.595 24.192V25.632H197.555C199.091 25.632 200.771 25.568 202.723 25.2L202.547 23.744C200.675 24.112 199.027 24.192 197.555 24.192H196.595ZM221.058 14.704V29.328H222.738V14.704H221.058ZM216.77 16.256V16.544C216.77 20.448 214.994 23.344 210.786 25.376L211.666 26.72C216.69 24.272 218.418 20.592 218.418 16.256H216.77ZM211.506 16.256V17.6H217.522V16.256H211.506Z" fill="white"/>
</svg>
