<svg width="24" height="24" viewBox="0 0 24 24" fill="none" xmlns="http://www.w3.org/2000/svg">
<rect width="24" height="24" rx="4" fill="#FEE500"/>
<path d="M12.3543 5.64844C8.65173 5.64844 5.64844 8.08109 5.64844 11.0831C5.64844 13.0112 6.89317 14.7039 8.76026 15.6708L8.12828 18.0893C8.1182 18.1196 8.11531 18.1518 8.11985 18.1834C8.12439 18.215 8.13623 18.245 8.15439 18.2709C8.17254 18.2969 8.19648 18.318 8.2242 18.3325C8.25193 18.347 8.28263 18.3545 8.31376 18.3543C8.35639 18.3525 8.39732 18.3367 8.43053 18.3092L11.1467 16.4262C11.5466 16.4856 11.9502 16.5158 12.3543 16.5164C16.0638 16.5164 19.0602 14.0852 19.0602 11.0831C19.0602 8.08109 16.0569 5.64844 12.3543 5.64844Z" fill="black"/>
</svg>
