<svg width="310" height="42" viewBox="0 0 310 42" fill="none" xmlns="http://www.w3.org/2000/svg">
<rect width="310" height="42" rx="4" fill="#0F42F4"/>
<path d="M144.601 21.488V23.456H146.281V21.488H144.601ZM150.777 14.72V24.592H152.457V14.72H150.777ZM151.817 19.024V20.416H154.457V19.024H151.817ZM141.081 24.224C143.641 24.208 147.049 24.192 150.137 23.648L150.009 22.48C147.017 22.88 143.497 22.896 140.889 22.896L141.081 24.224ZM142.713 25.248V26.56H150.777V29.328H152.457V25.248H142.713ZM141.257 15.92V17.152H149.609V15.92H141.257ZM145.433 17.616C143.321 17.616 141.961 18.448 141.961 19.776C141.961 21.12 143.321 21.952 145.433 21.952C147.529 21.952 148.905 21.12 148.905 19.776C148.905 18.448 147.529 17.616 145.433 17.616ZM145.433 18.736C146.601 18.736 147.321 19.104 147.321 19.776C147.321 20.432 146.601 20.832 145.433 20.832C144.265 20.832 143.545 20.432 143.545 19.776C143.545 19.104 144.265 18.736 145.433 18.736ZM144.601 14.592V16.496H146.281V14.592H144.601ZM166.104 14.72V25.312H167.784V14.72H166.104ZM158.232 27.68V29.04H168.2V27.68H158.232ZM158.232 24.24V28.192H159.912V24.24H158.232ZM159.896 15.696C157.688 15.696 156.008 17.2 156.008 19.344C156.008 21.456 157.688 22.992 159.896 22.992C162.104 22.992 163.768 21.456 163.768 19.344C163.768 17.2 162.104 15.696 159.896 15.696ZM159.896 17.136C161.176 17.136 162.136 18 162.136 19.344C162.136 20.656 161.176 21.52 159.896 21.52C158.616 21.52 157.64 20.656 157.64 19.344C157.64 18 158.616 17.136 159.896 17.136Z" fill="white"/>
</svg>
