<svg width="310" height="42" viewBox="0 0 310 42" fill="none" xmlns="http://www.w3.org/2000/svg">
<rect width="310" height="42" rx="4" fill="#0F42F4"/>
<path d="M130.191 18.32V19.36C130.191 21.728 128.847 24.208 126.59 25.264L127.519 26.56C129.983 25.392 131.503 22.432 131.503 19.36V18.32H130.191ZM130.543 18.32V19.36C130.543 22.272 131.967 25.136 134.383 26.288L135.295 25.024C133.119 23.952 131.839 21.584 131.839 19.36V18.32H130.543ZM127.039 17.168V18.512H134.943V17.168H127.039ZM130.174 15.008V17.888H131.855V15.008H130.174ZM136.447 14.704V29.328H138.127V14.704H136.447ZM137.743 20.56V21.952H140.399V20.56H137.743ZM151.245 14.704V25.28H152.925V14.704H151.245ZM152.429 18.88V20.272H154.989V18.88H152.429ZM142.125 21.424V22.784H143.293C146.445 22.784 148.141 22.704 150.061 22.288L149.885 20.944C148.013 21.344 146.381 21.424 143.293 21.424H142.125ZM142.125 15.92V22.144H143.789V17.28H148.621V15.92H142.125ZM143.677 27.68V29.04H153.517V27.68H143.677ZM143.677 24.192V28.336H145.357V24.192H143.677ZM165.9 14.704V29.328H167.564V14.704H165.9ZM167.18 20.576V21.968H169.836V20.576H167.18ZM156.156 16.96V18.304H164.732V16.96H156.156ZM160.492 19.36C158.396 19.36 156.86 20.768 156.86 22.768C156.86 24.784 158.396 26.192 160.492 26.192C162.572 26.192 164.108 24.784 164.108 22.768C164.108 20.768 162.572 19.36 160.492 19.36ZM160.492 20.736C161.66 20.736 162.508 21.536 162.508 22.768C162.508 24 161.66 24.816 160.492 24.816C159.308 24.816 158.46 24 158.46 22.768C158.46 21.536 159.308 20.736 160.492 20.736ZM159.628 14.912V17.52H161.308V14.912H159.628ZM181.339 14.704V29.328H183.019V14.704H181.339ZM177.051 16.256V16.544C177.051 20.448 175.275 23.344 171.067 25.376L171.947 26.72C176.971 24.272 178.699 20.592 178.699 16.256H177.051ZM171.787 16.256V17.6H177.803V16.256H171.787Z" fill="white"/>
</svg>
