<svg width="28" height="46" viewBox="0 0 28 46" fill="none" xmlns="http://www.w3.org/2000/svg">
<path d="M8.28613 43H9.12613V38.95C9.12613 38.31 9.05613 37.43 9.00613 36.78H9.04613L9.62613 38.45L11.0161 42.27H11.6361L13.0261 38.45L13.6061 36.78H13.6561C13.6061 37.43 13.5361 38.31 13.5361 38.95V43H14.3961V35.67H13.2761L11.8861 39.6C11.7161 40.1 11.5561 40.61 11.3761 41.13H11.3361C11.1561 40.61 10.9861 40.1 10.8061 39.6L9.39613 35.67H8.28613V43ZM17.5914 43H18.5114V40.16L20.7114 35.67H19.7614L18.8114 37.75C18.5814 38.29 18.3314 38.8 18.0714 39.35H18.0314C17.7814 38.8 17.5614 38.29 17.3114 37.75L16.3714 35.67H15.3814L17.5914 40.16V43Z" fill="#9E9E9E"/>
<path d="M4.66699 24.5001C4.66699 21.2784 8.84567 18.6667 14.0003 18.6667C19.155 18.6667 23.3337 21.2784 23.3337 24.5001" stroke="#191919" stroke-width="1.6" stroke-linecap="round" stroke-linejoin="round"/>
<path d="M14.0003 15.1667C17.222 15.1667 19.8337 12.555 19.8337 9.33333C19.8337 6.11167 17.222 3.5 14.0003 3.5C10.7787 3.5 8.16699 6.11167 8.16699 9.33333C8.16699 12.555 10.7787 15.1667 14.0003 15.1667Z" stroke="#191919" stroke-width="1.6" stroke-linecap="round" stroke-linejoin="round"/>
</svg>
