<svg width="78" height="18" viewBox="0 0 78 18" fill="none" xmlns="http://www.w3.org/2000/svg">
<rect width="78" height="18" rx="4" fill="#0F42F4"/>
<path d="M10.656 5.036V5.348C10.656 6.44 9.192 7.436 7.044 7.664L7.488 8.648C9.996 8.36 11.772 7.076 11.772 5.348V5.036H10.656ZM11.232 5.036V5.348C11.232 7.088 13.008 8.36 15.516 8.648L15.96 7.664C13.8 7.436 12.336 6.44 12.336 5.348V5.036H11.232ZM7.452 4.508V5.504H15.564V4.508H7.452ZM6.54 9.248V10.256H16.476V9.248H6.54ZM7.644 11.228V12.236H13.992V14.996H15.24V11.228H7.644ZM20.1351 4.928V6.728C20.1351 8.828 19.0071 10.94 17.2551 11.732L18.0111 12.776C19.9791 11.816 21.1671 9.38 21.1671 6.728V4.928H20.1351ZM20.3751 4.928V6.728C20.3751 9.284 21.5631 11.624 23.4951 12.536L24.2391 11.528C22.5111 10.76 21.3951 8.744 21.3951 6.728V4.928H20.3751ZM25.1151 4.016V15.008H26.3751V4.016H25.1151ZM29.3381 4.712V5.708H36.2021V4.712H29.3381ZM28.1501 9.392V10.424H38.0621V9.392H28.1501ZM32.4341 10.1V15.008H33.6941V10.1H32.4341ZM35.5781 4.712V5.672C35.5781 6.788 35.5781 8.072 35.1581 9.872L36.3941 10.028C36.8141 8.132 36.8141 6.836 36.8141 5.672V4.712H35.5781ZM47.1092 4.028V14.996H48.3092V4.028H47.1092ZM45.5492 8.3V9.32H47.5292V8.3H45.5492ZM44.6852 4.232V14.468H45.8732V4.232H44.6852ZM39.2972 5.228V12.14H43.5452V5.228H39.2972ZM42.3692 6.224V11.156H40.4732V6.224H42.3692ZM57.5123 4.028V14.996H58.7723V4.028H57.5123ZM49.9643 12.968C51.9563 12.98 54.5243 12.956 56.9603 12.536L56.8763 11.612C54.5363 11.924 51.8483 11.924 49.8083 11.924L49.9643 12.968ZM50.0243 5.432V6.44H56.6603V5.432H50.0243ZM53.3363 6.956C51.7763 6.956 50.6963 7.784 50.6963 9.032C50.6963 10.268 51.7763 11.096 53.3363 11.096C54.9083 11.096 56.0003 10.268 56.0003 9.032C56.0003 7.784 54.9083 6.956 53.3363 6.956ZM53.3363 7.928C54.2123 7.928 54.8003 8.348 54.8003 9.032C54.8003 9.716 54.2123 10.136 53.3363 10.136C52.4723 10.136 51.8843 9.716 51.8843 9.032C51.8843 8.348 52.4723 7.928 53.3363 7.928ZM52.7003 4.148V6.092H53.9723V4.148H52.7003ZM60.9313 4.832V9.644H66.0553V4.832H60.9313ZM64.8193 5.84V8.648H62.1673V5.84H64.8193ZM67.8433 4.028V10.448H69.1033V4.028H67.8433ZM68.7553 6.632V7.676H70.6513V6.632H68.7553ZM65.5753 10.784C63.3193 10.784 61.9153 11.576 61.9153 12.884C61.9153 14.216 63.3193 14.996 65.5753 14.996C67.8193 14.996 69.2233 14.216 69.2233 12.884C69.2233 11.576 67.8193 10.784 65.5753 10.784ZM65.5753 11.792C67.0993 11.792 67.9753 12.176 67.9753 12.884C67.9753 13.616 67.0993 14 65.5753 14C64.0513 14 63.1633 13.616 63.1633 12.884C63.1633 12.176 64.0513 11.792 65.5753 11.792Z" fill="white"/>
</svg>
