<svg width="22" height="43" viewBox="0 0 22 43" fill="none" xmlns="http://www.w3.org/2000/svg">
<path d="M7.84039 38.08V40.72H14.1104V38.08H7.84039ZM13.0904 38.87V39.93H8.87039V38.87H13.0904ZM7.27039 32.39V33.2H14.6604V32.39H7.27039ZM10.9804 33.5C9.06039 33.5 7.98039 33.94 7.98039 34.8C7.98039 35.65 9.06039 36.09 10.9804 36.09C12.9004 36.09 13.9804 35.65 13.9804 34.8C13.9804 33.94 12.9004 33.5 10.9804 33.5ZM10.9804 34.22C12.2204 34.22 12.8604 34.41 12.8604 34.8C12.8604 35.18 12.2204 35.38 10.9804 35.38C9.75039 35.38 9.10039 35.18 9.10039 34.8C9.10039 34.41 9.75039 34.22 10.9804 34.22ZM10.4604 31.59V32.94H11.5004V31.59H10.4604ZM6.85039 36.67V37.49H15.1104V36.67H6.85039ZM10.4604 35.84V37.11H11.5004V35.84H10.4604Z" fill="#191919"/>
<path d="M21.4081 8.70105L11.8378 0.818424C11.3223 0.393859 10.5527 0.393858 10.0372 0.818423L0.466888 8.70104C0.170188 8.94542 0 9.29847 0 9.66958V21.088C0 21.7988 0.612111 22.375 1.36719 22.375H6.83594C7.59101 22.375 8.20312 21.7988 8.20312 21.088V15.9402C8.20312 15.2294 8.81524 14.6532 9.57031 14.6532H12.3047C13.0598 14.6532 13.6719 15.2294 13.6719 15.9402V21.088C13.6719 21.7988 14.284 22.375 15.0391 22.375H20.5078C21.2629 22.375 21.875 21.7988 21.875 21.088V9.66958C21.875 9.29847 21.7048 8.94542 21.4081 8.70105Z" fill="#191919"/>
</svg>
