<svg width="340" height="42" viewBox="0 0 340 42" fill="none" xmlns="http://www.w3.org/2000/svg">
<rect width="340" height="42" rx="4" fill="#0F42F4"/>
<path d="M147.474 18V19.376H151.026V18H147.474ZM143.522 15.6V17.296C143.522 19.456 142.242 21.504 139.97 22.32L140.85 23.632C143.426 22.64 144.866 20.192 144.866 17.296V15.6H143.522ZM143.858 15.6V17.328C143.858 20.016 145.266 22.352 147.73 23.28L148.626 21.984C146.434 21.2 145.202 19.296 145.202 17.328V15.6H143.858ZM150.434 14.72V25.584H152.114V14.72H150.434ZM142.594 27.68V29.04H152.45V27.68H142.594ZM142.594 24.432V28.384H144.274V24.432H142.594ZM155.28 21.552V22.928H156.24C158.512 22.928 159.92 22.864 161.6 22.56L161.44 21.2C159.824 21.504 158.464 21.552 156.24 21.552H155.28ZM155.28 15.728V22.304H156.896V17.088H160.976V15.728H155.28ZM156.4 18.624V19.904H160.816V18.624H156.4ZM165.504 14.704V23.6H167.088V14.704H165.504ZM163.408 18.416V19.776H165.968V18.416H163.408ZM162.32 14.976V23.504H163.888V14.976H162.32ZM157.184 24.304V25.664H165.424V29.328H167.088V24.304H157.184ZM176.601 20.704V22.928H178.281V20.704H176.601ZM177.417 15.344C175.305 15.344 173.785 16.528 173.785 18.272C173.785 20 175.305 21.184 177.417 21.184C179.529 21.184 181.033 20 181.033 18.272C181.033 16.528 179.529 15.344 177.417 15.344ZM177.417 16.608C178.633 16.608 179.465 17.248 179.465 18.272C179.465 19.28 178.633 19.92 177.417 19.92C176.201 19.92 175.353 19.28 175.353 18.272C175.353 17.248 176.201 16.608 177.417 16.608ZM182.793 14.72V25.888H184.473V14.72H182.793ZM183.833 19.504V20.88H186.473V19.504H183.833ZM175.001 27.664V29.024H184.985V27.664H175.001ZM175.001 24.928V28.256H176.681V24.928H175.001ZM173.193 23.84C175.657 23.84 179.049 23.792 182.057 23.232L181.945 22.016C179.017 22.464 175.513 22.48 172.985 22.48L173.193 23.84ZM191.288 23.248V26.784H192.936V23.248H191.288ZM195.944 23.232V26.768H197.576V23.232H195.944ZM187.752 26.24V27.616H201V26.24H187.752ZM189.304 15.728V17.072H197.752V19.008H189.336V23.072H191V20.336H199.416V15.728H189.304ZM189.336 22.352V23.712H199.752V22.352H189.336Z" fill="white"/>
</svg>
