<svg width="31" height="46" viewBox="0 0 31 46" fill="none" xmlns="http://www.w3.org/2000/svg">
<path d="M6.87078 39V39.84H13.2108V39H6.87078ZM5.86078 41.79V42.65H14.1408V41.79H5.86078ZM6.87078 35.49V39.36H7.91078V36.35H13.1308V35.49H6.87078ZM14.85 39.83V40.68H23.13V39.83H14.85ZM15.92 42.96V43.8H22.3V42.96H15.92ZM15.92 41.22V43.21H16.96V41.22H15.92ZM18.47 38.54V40.2H19.51V38.54H18.47ZM15.89 34.94V35.75H21.06V36.57H15.9V38.43H16.94V37.33H22.09V34.94H15.89ZM15.9 38.17V38.98H22.28V38.17H15.9Z" fill="#424242"/>
<rect x="9" y="5" width="13" height="3" fill="#0F42F4" fill-opacity="0.4"/>
<path d="M26.0555 1.76759V1.26759H25.5555H22.7894C22.5675 1.26759 22.3965 1.09121 22.3965 0.883795C22.3965 0.676377 22.5675 0.5 22.7894 0.5H30.1073C30.3291 0.5 30.5 0.676319 30.5 0.883795C30.5 1.09121 30.3291 1.26759 30.1072 1.26759H27.341H26.841V1.76759V4.37581C26.841 4.58322 26.6701 4.7596 26.4482 4.7596H23.8836H23.5112L23.4045 5.11635L23.0522 6.29447L23.0522 6.29451C22.812 7.09813 22.2178 7.74124 21.4608 8.08483L20.9797 8.30317L21.2242 8.77149L21.8351 9.9419L21.8353 9.94232C21.9315 10.1261 21.8613 10.3567 21.6679 10.4562C21.6088 10.4861 21.5465 10.5 21.4862 10.5C21.3395 10.5 21.2036 10.421 21.1358 10.2908L21.1356 10.2904L20.2654 8.62381L20.1252 8.35522H19.8222H11.1773H10.8743L10.7341 8.62381L9.86392 10.2904L9.86358 10.2911C9.76765 10.4755 9.53108 10.5561 9.3311 10.4559C9.13808 10.3563 9.0681 10.126 9.16419 9.94234L9.16442 9.9419L9.77534 8.77149L10.0198 8.30319L9.53876 8.08484C8.78183 7.74124 8.18754 7.09813 7.9473 6.2945L7.94729 6.29447L7.59499 5.11635L7.48831 4.7596H7.11595H4.55131C4.32943 4.7596 4.15849 4.58322 4.15849 4.37581V1.76759V1.26759H3.65849H0.892832C0.670945 1.26759 0.5 1.09121 0.5 0.883795C0.5 0.676382 0.670946 0.5 0.892832 0.5H8.21026C8.43214 0.5 8.60308 0.676378 8.60308 0.883795C8.60308 1.09121 8.43214 1.26759 8.21026 1.26759H5.44415H4.94415V1.76759V3.49201V3.99201H5.44415H11.1884H11.5393L11.6586 3.66205C12.0767 2.50604 13.5352 1.55207 15.4998 1.55207C17.4644 1.55207 18.9229 2.50604 19.341 3.66205L19.4603 3.99201H19.8112H25.5555H26.0555V3.49201V1.76759ZM22.298 6.07961L22.298 6.0795L22.5003 5.40282L22.6926 4.7596H22.0212H8.97846H8.30687L8.49946 5.40299L8.70169 6.07856C8.70172 6.07864 8.70174 6.07871 8.70176 6.07879C8.96867 6.97164 9.80637 7.58763 10.7393 7.58763H20.2604C21.1933 7.58763 22.031 6.97167 22.298 6.07961ZM17.6742 3.99201H19.085L17.9891 3.10361C17.4125 2.63623 16.5343 2.31968 15.4998 2.31968C14.4654 2.31968 13.5871 2.63623 13.0106 3.10361L11.9147 3.99201H13.3255H17.6742Z" fill="white" stroke="black" stroke-miterlimit="10"/>
<rect x="4" y="16" width="24" height="6" rx="3" stroke="black" stroke-width="2"/>
<circle opacity="0.6" cx="24" cy="19" r="1" fill="#0F42F4"/>
</svg>
